<?xml version="1.0" encoding="utf-8"?>
<!-- Generator: Adobe Illustrator 15.0.0, SVG Export Plug-In . SVG Version: 6.00 Build 0)  -->
<!DOCTYPE svg PUBLIC "-//W3C//DTD SVG 1.1//EN" "http://www.w3.org/Graphics/SVG/1.1/DTD/svg11.dtd">
<svg version="1.1" id="Layer_1" xmlns="http://www.w3.org/2000/svg" xmlns:xlink="http://www.w3.org/1999/xlink" x="0px" y="0px"
	 width="75px" height="75px" viewBox="0 0 75 75" enable-background="new 0 0 75 75" xml:space="preserve">
<path fill="#744314" d="M74.896,71.259c0,2.027-1.643,3.667-3.668,3.667H3.711c-2.025,0-3.667-1.64-3.667-3.667V3.74
	c0-2.025,1.642-3.667,3.667-3.667h67.517c2.025,0,3.668,1.641,3.668,3.667V71.259z"/>
<path fill="#995A24" d="M37.47,0.074v74.852h33.708c0,0,3.666-0.089,3.666-5.18V4.562c0,0,1.23-4.489-4.475-4.489H37.47z"/>
<g>
	<g>
		<g>
			<path fill="#C77C57" d="M37.351,43.126c-1.397,0.016-2.796,0.016-4.123-0.016c-1.047-0.006-2.047-0.038-2.979-0.068
				c-2.596-0.107-4.657-0.291-5.521-0.58c-3.115-1.054-3.422-2.384-3.422-2.384c2.224-1.259,3.422-12.291,3.422-12.291
				c0.022-0.2,0.198-1.62,0.244-1.811c0.289-2.131,0.802-4.162,1.71-5.926c1.688-3.275,4.721-5.598,10.423-5.598h0.101"/>
			<path fill="#E58E64" d="M37.207,14.453c0.053,0,0.098,0,0.145,0.009c5.444,0.069,8.506,2.612,10.194,5.987
				c0.053,0.045,1.963,7.289,1.963,7.338c0,0,1.42,11.208,4.008,12.949c0,0-0.916,0.923-4.008,1.726
				c-0.734,0.189-2.529,0.351-4.842,0.466c-0.963,0.045-2.023,0.091-3.131,0.123c-1.344,0.037-2.758,0.066-4.184,0.075"/>
		</g>
		<g>
			<path fill="#FBD19A" d="M48.605,32.383c0,4.223-1.527,8.001-3.939,10.545c-0.803,0.862-1.711,1.581-2.703,2.122
				c-1.389,0.772-2.934,1.199-4.558,1.199h-0.054c-1.596-0.008-3.116-0.436-4.49-1.199c-0.946-0.512-1.817-1.19-2.611-2.008
				c-2.459-2.542-4.032-6.374-4.032-10.659c0-1.611,0.221-3.153,0.643-4.596c1.504-5.385,5.643-9.24,10.491-9.271h0.054
				c4.888,0,9.048,3.863,10.568,9.271C48.385,29.229,48.605,30.771,48.605,32.383z"/>
		</g>
		<g>
			<path fill="#C77C57" d="M37.47,27.787H25.02l0.144-1.246c0.03-0.199,0.054-0.374,0.099-0.564
				c0.299-2.131,0.811-4.162,1.712-5.926c1.672-3.238,4.658-5.543,10.232-5.598"/>
			<path fill="#E58E64" d="M37.207,14.453h0.198c5.597,0,8.726,2.567,10.437,5.996c0.055,0.045,0.076,0.098,0.076,0.143
				c1.102,2.223,1.635,4.773,1.887,7.195H37.47"/>
		</g>
		<path fill="#3A6DAB" d="M37.25,48.57h11.691c4.711,0,8.529,3.819,8.529,8.528v4.269c0,2.36-1.908,4.268-4.262,4.268H37.47"/>
		<path fill="#305A90" d="M37.47,65.635H21.614c-2.36,0-4.269-1.907-4.269-4.268v-4.269c0-4.709,3.825-8.528,8.537-8.528H37.25"/>
		<g>
			<path fill="#FBD19A" d="M41.963,44.104v6.644c0,0.337-0.115,0.656-0.307,0.914c-0.273,0.36-0.717,0.597-1.213,0.597H34.38
				c-0.497,0-0.939-0.236-1.214-0.597c-0.191-0.258-0.306-0.577-0.306-0.914v-6.644c0-0.381,0.137-0.725,0.367-0.993
				c0.282-0.32,0.695-0.52,1.152-0.52h6.063c0.428,0,0.818,0.177,1.092,0.46C41.803,43.325,41.963,43.691,41.963,44.104z"/>
		</g>
		<path fill="#FBD19A" d="M37.411,63.057l1.152-2.931c4.57-0.683,8.109-5.407,8.109-11.155c0-0.119,0-0.267-0.021-0.392H28.172
			c-0.022,0.125-0.022,0.272-0.022,0.392c0,5.736,3.53,10.453,8.107,11.15L37.411,63.057"/>
	</g>
	<rect x="6.2" y="24.491" opacity="0.25" fill="#FEF9FB" width="62.421" height="31.104"/>
	<g>
		<g>
			<polygon fill="#FFFFFF" points="21.063,36.149 19.071,36.149 19.071,28.229 27.375,28.229 27.375,30.221 21.063,30.221 			"/>
		</g>
		<g>
			<polygon fill="#FFFFFF" points="47.828,30.03 47.828,28.037 55.75,28.037 55.75,36.34 53.758,36.34 53.758,30.03 			"/>
		</g>
		<g>
			<polygon fill="#FFFFFF" points="53.758,43.939 55.75,43.939 55.75,51.861 47.445,51.861 47.445,49.868 53.758,49.868 			"/>
		</g>
		<g>
			<polygon fill="#FFFFFF" points="26.992,50.06 26.992,52.051 19.071,52.051 19.071,43.749 21.063,43.749 21.063,50.06 			"/>
		</g>
		<g>
			<g>
				<rect x="36.792" y="34.143" fill="#FFFFFF" width="1.119" height="12.854"/>
			</g>
			<g>
				<rect x="30.922" y="40.01" fill="#FFFFFF" width="12.855" height="1.117"/>
			</g>
		</g>
	</g>
</g>
</svg>
