<?xml version="1.0" encoding="utf-8"?>
<!-- Generator: Adobe Illustrator 15.0.0, SVG Export Plug-In . SVG Version: 6.00 Build 0)  -->
<!DOCTYPE svg PUBLIC "-//W3C//DTD SVG 1.1//EN" "http://www.w3.org/Graphics/SVG/1.1/DTD/svg11.dtd">
<svg version="1.1" id="Layer_1" xmlns="http://www.w3.org/2000/svg" xmlns:xlink="http://www.w3.org/1999/xlink" x="0px" y="0px"
	 width="75px" height="75px" viewBox="0 0 75 75" enable-background="new 0 0 75 75" xml:space="preserve">
<path fill="#744314" d="M74.689,70.94c0,2.027-1.642,3.667-3.667,3.667H3.504c-2.025,0-3.667-1.64-3.667-3.667V3.422
	c0-2.025,1.641-3.667,3.667-3.667h67.518c2.025,0,3.667,1.641,3.667,3.667V70.94z"/>
<path fill="#995A24" d="M37.315-0.245v74.852h33.708c0,0,3.667-0.089,3.667-5.18V4.244c0,0,1.229-4.489-4.475-4.489H37.315z"/>
<g>
	<path fill="#255A83" d="M42.409,11.298c0,1.539-1.268,2.787-2.831,2.787h-4.531c-1.561,0-2.829-1.249-2.829-2.787l0,0
		c0-1.538,1.268-2.788,2.829-2.788h4.531C41.142,8.51,42.409,9.76,42.409,11.298L42.409,11.298z"/>
	<path fill="#113755" d="M37.265,8.51h-2.218c-1.561,0-2.829,1.25-2.829,2.788c0,1.539,1.268,2.787,2.829,2.787h2.218V8.51z"/>
	<path fill="#F8E683" d="M64.301,38.645c0,14.713-12.104,26.634-27.036,26.634c-14.934,0-27.038-11.921-27.038-26.634
		c0-14.71,12.104-26.634,27.038-26.634C52.196,12.011,64.301,23.934,64.301,38.645z"/>
	<path fill="#C8BB6C" d="M10.227,38.645c0,14.713,12.104,26.634,27.038,26.634V12.011C22.331,12.011,10.227,23.934,10.227,38.645z"
		/>
	<ellipse fill="#FFFFFF" cx="37.263" cy="38.645" rx="22.425" ry="22.092"/>
	<path fill="#E7E7E7" d="M14.838,38.645c0,12.202,10.04,22.092,22.426,22.092V16.553C24.878,16.553,14.838,26.443,14.838,38.645z"/>
	<path fill="#EB4C31" d="M38.99,19.907c0,0.943-0.771,1.703-1.726,1.703c-0.957,0-1.728-0.76-1.728-1.703
		c0-0.942,0.771-1.704,1.728-1.704C38.22,18.204,38.99,18.965,38.99,19.907z"/>
	<path fill="#EB4C31" d="M38.99,57.385c0-0.943-0.771-1.707-1.726-1.707c-0.957,0-1.728,0.764-1.728,1.707
		c0,0.938,0.771,1.702,1.728,1.702C38.22,59.087,38.99,58.322,38.99,57.385z"/>
	<g>
		<path fill="#D93627" d="M35.537,19.907c0,0.943,0.771,1.703,1.728,1.703v-3.407C36.308,18.204,35.537,18.965,35.537,19.907z"/>
		<path fill="#D93627" d="M35.537,57.385c0,0.938,0.771,1.702,1.728,1.702v-3.409C36.308,55.678,35.537,56.441,35.537,57.385z"/>
	</g>
	<ellipse fill="#D93627" cx="18.242" cy="38.643" rx="1.73" ry="1.704"/>
	<ellipse fill="#EB4C31" cx="56.285" cy="38.643" rx="1.73" ry="1.704"/>
	<path fill="#D93627" d="M22.837,50.93c0.54-0.534,1.413-0.534,1.955,0c0.537,0.532,0.537,1.392,0,1.927
		c-0.542,0.529-1.416,0.529-1.955,0C22.295,52.321,22.295,51.462,22.837,50.93z"/>
	<path fill="#EB4C31" d="M49.737,24.429c-0.542,0.532-0.542,1.394,0,1.926c0.539,0.531,1.413,0.531,1.955,0
		c0.539-0.532,0.539-1.394,0-1.926C51.15,23.897,50.276,23.897,49.737,24.429z"/>
	<path fill="#EB4C31" d="M49.737,52.856c-0.542-0.535-0.542-1.395,0-1.927c0.539-0.534,1.413-0.534,1.955,0
		c0.539,0.532,0.539,1.392,0,1.927C51.15,53.386,50.276,53.386,49.737,52.856z"/>
	<path fill="#D93627" d="M22.837,26.355c0.54,0.531,1.413,0.531,1.955,0c0.537-0.532,0.537-1.394,0-1.926
		c-0.542-0.532-1.416-0.532-1.955,0C22.295,24.961,22.295,25.823,22.837,26.355z"/>
	<path fill="#113755" d="M39.444,39.06c0.496,0.256,0.688,0.86,0.425,1.349l0,0c-0.261,0.489-0.879,0.68-1.37,0.418l-15.526-8.06
		c-0.496-0.255-0.688-0.859-0.425-1.348l0,0c0.26-0.489,0.876-0.678,1.37-0.42L39.444,39.06z"/>
	<path fill="#255A83" d="M38.941,40.261c0.005,0.922-0.731,1.679-1.648,1.698l0,0c-0.916,0.013-1.659-0.719-1.662-1.637L35.584,23.3
		c-0.006-0.912,0.734-1.67,1.651-1.69l0,0c0.913-0.011,1.653,0.721,1.651,1.639L38.941,40.261z"/>
	<path fill="#255A83" d="M40.616,38.645c0,1.799-1.478,3.251-3.301,3.251s-3.301-1.452-3.301-3.251c0-1.798,1.478-3.251,3.301-3.251
		S40.616,36.847,40.616,38.645z"/>
	<path fill="#113755" d="M37.265,35.401c-1.8,0.029-3.251,1.463-3.251,3.243c0,1.781,1.451,3.213,3.251,3.242V35.401z"/>
</g>
</svg>
