<?xml version="1.0" encoding="utf-8"?>
<!-- Generator: Adobe Illustrator 15.0.0, SVG Export Plug-In . SVG Version: 6.00 Build 0)  -->
<!DOCTYPE svg PUBLIC "-//W3C//DTD SVG 1.1//EN" "http://www.w3.org/Graphics/SVG/1.1/DTD/svg11.dtd">
<svg version="1.1" id="Layer_1" xmlns="http://www.w3.org/2000/svg" xmlns:xlink="http://www.w3.org/1999/xlink" x="0px" y="0px"
	 width="1013px" height="383px" viewBox="0 0 1013 383" enable-background="new 0 0 1013 383" xml:space="preserve">
<rect x="51.451" y="349.088" fill="#A0A096" width="950.255" height="4.158"/>
<g>
	<rect x="45.658" y="7.358" fill="#D15353" width="316.654" height="101.116"/>
	<rect x="45.658" y="107.758" fill="#8B3334" width="316.654" height="2.471"/>
</g>
<g>
	<rect x="45.658" y="115.753" fill="#E9E9EA" width="319.127" height="234.97"/>
</g>
<g>
	<rect x="367.218" y="115.753" fill="#E9E9EA" width="319.127" height="234.97"/>
</g>
<g>
	<rect x="688.778" y="115.753" fill="#E9E9EA" width="319.127" height="234.97"/>
</g>
<g>
	<rect x="368.54" y="7.358" fill="#3A6DAB" width="315.247" height="101.635"/>
	<rect x="368.364" y="107.758" fill="#234775" width="315.598" height="2.471"/>
</g>
<g>
	<rect x="690.542" y="107.758" fill="#A56747" width="315.601" height="2.471"/>
	<rect x="690.72" y="7.358" fill="#E58E64" width="315.245" height="100.423"/>
</g>
<text transform="matrix(1 0 0 1 9.8535 29.4814)" font-family="'FranklinGothic-Book'" font-size="9.3087">STAGES</text>
<text transform="matrix(1 0 0 1 17.6162 78.3125)"><tspan x="0" y="0" font-family="'FranklinGothic-Book'" font-size="9.3087">KEY</tspan><tspan x="-4.018" y="11.171" font-family="'FranklinGothic-Book'" font-size="9.3087">IDEAS</tspan></text>
<text transform="matrix(1 0 0 1 12.2852 217.4912)" font-family="'FranklinGothic-Book'" font-size="9.3087">DOING</text>
<text transform="matrix(1 0 0 1 6.792 344.7568)" font-family="'FranklinGothic-Book'" font-size="9.3087">EMOTION</text>
<text transform="matrix(1 0 0 1 409.123 29.7842)" fill="#FFFFFF" font-family="'FranklinGothic-Book'" font-size="18.8918">LEARNING TO DEEP BREATH</text>
<text transform="matrix(1 0 0 1 87.0293 29.7842)" fill="#FFFFFF" font-family="'FranklinGothic-Book'" font-size="18.8918">DAILY STRESS AWARENESS</text>
<text transform="matrix(1 0 0 1 766.9053 29.7842)" fill="#FFFFFF" font-family="'FranklinGothic-Book'" font-size="18.8918">BEHAVIOUR CHANGE</text>
<polygon fill="#E4E5E6" points="212.595,74.622 204.108,60.363 204.108,67.205 182.115,67.205 182.115,82.04 204.108,82.04 
	204.108,88.882 "/>
<polygon fill="#E4E5E6" points="377.552,74.622 369.065,60.363 369.065,67.205 347.071,67.205 347.071,82.04 369.065,82.04 
	369.065,88.882 "/>
<polygon fill="#E4E5E6" points="707.465,74.622 698.979,60.363 698.979,67.205 676.985,67.205 676.985,82.04 698.979,82.04 
	698.979,88.882 "/>
<polygon fill="#E4E5E6" points="542.508,74.622 534.021,60.363 534.021,67.205 512.028,67.205 512.028,82.04 534.021,82.04 
	534.021,88.882 "/>
<polygon fill="#E4E5E6" points="872.424,74.622 863.936,60.363 863.936,67.205 841.941,67.205 841.941,82.04 863.936,82.04 
	863.936,88.882 "/>
<rect x="55.71" y="47.243" fill="#F7F4E1" width="118.333" height="54.757"/>
<rect x="220.666" y="47.243" fill="#F7F4E1" width="118.333" height="54.757"/>
<rect x="385.624" y="47.243" fill="#F7F4E1" width="118.332" height="54.757"/>
<rect x="550.581" y="47.243" fill="#F7F4E1" width="118.333" height="54.757"/>
<rect x="715.537" y="47.243" fill="#F7F4E1" width="118.333" height="54.757"/>
<rect x="880.494" y="47.243" fill="#F7F4E1" width="118.333" height="54.757"/>
<text transform="matrix(1 0 0 1 61.3594 60.9502)"><tspan x="0" y="0" font-family="'HelveticaNeue-Light'" font-size="8.6993">Many people are not awared</tspan><tspan x="5.037" y="10.439" font-family="'HelveticaNeue-Light'" font-size="8.6993">the stress they are getting</tspan><tspan x="1.649" y="20.878" font-family="'HelveticaNeue-Light'" font-size="8.6993">and how it could effect their</tspan><tspan x="22.997" y="31.317" font-family="'HelveticaNeue-Light'" font-size="8.6993">health in general</tspan></text>
<text transform="matrix(1 0 0 1 228.6826 66.5801)"><tspan x="0" y="0" font-family="'HelveticaNeue-Light'" font-size="8.6993">Living under stress leads to</tspan><tspan x="4.91" y="10.439" font-family="'HelveticaNeue-Light'" font-size="8.6993">long term problems both</tspan><tspan x="8.377" y="20.878" font-family="'HelveticaNeue-Light'" font-size="8.6993">physically and mentally</tspan></text>
<text transform="matrix(1 0 0 1 400.6338 60.9502)"><tspan x="0" y="0" font-family="'HelveticaNeue-Light'" font-size="8.6993">Breath-O’Clock creates</tspan><tspan x="2.745" y="10.439" font-family="'HelveticaNeue-Light'" font-size="8.6993">awareness to the user</tspan><tspan x="0.813" y="20.878" font-family="'HelveticaNeue-Light'" font-size="8.6993">to pay attention to their</tspan><tspan x="12.419" y="31.317" font-family="'HelveticaNeue-Light'" font-size="8.6993">breathing rhythm</tspan></text>
<text transform="matrix(1 0 0 1 554.5508 56.1826)"><tspan x="0" y="0" font-family="'HelveticaNeue-Light'" font-size="8.6993">Through keeping the concept</tspan><tspan x="7.343" y="10.439" font-family="'HelveticaNeue-Light'" font-size="8.6993">of deep breathing in mind</tspan><tspan x="17.812" y="20.878" font-family="'HelveticaNeue-Light'" font-size="8.6993">and hourly exercise,</tspan><tspan x="12.818" y="31.317" font-family="'HelveticaNeue-Light'" font-size="8.6993">the user learns to relax</tspan><tspan x="7.255" y="41.757" font-family="'HelveticaNeue-Light'" font-size="8.6993">hourly even while working</tspan></text>
<text transform="matrix(1 0 0 1 722.5127 66.5801)"><tspan x="0" y="0" font-family="'HelveticaNeue-Light'" font-size="8.6993">It takes times to get used to</tspan><tspan x="-3.949" y="10.439" font-family="'HelveticaNeue-Light'" font-size="8.6993">the hourly mini-break and turn</tspan><tspan x="10.064" y="20.878" font-family="'HelveticaNeue-Light'" font-size="8.6993">proactive from passive</tspan></text>
<text transform="matrix(1 0 0 1 904.9336 67.6191)"><tspan x="0" y="0" font-family="'HelveticaNeue-Light'" font-size="8.6993">Gradually develop </tspan><tspan x="-17.885" y="10.439" font-family="'HelveticaNeue-Light'" font-size="8.6993">own habit of deep breathing</tspan><tspan x="-19.494" y="20.878" font-family="'HelveticaNeue-Light'" font-size="8.6993">regularly even when stressed</tspan></text>
<polygon fill="#DBDAC9" points="51.451,335.127 110.636,341.365 169.784,335.127 328.701,341.365 426.433,320.571 495.052,320.571 
	585.505,287.302 679.703,287.302 725.863,294.579 758.094,276.904 837.683,259.229 900.268,263.784 1001.706,225.96 
	1001.706,350.723 51.451,350.723 "/>
<g>
	<path fill="#D15353" d="M329.328,161.302h-23.396c-0.656,0-1.19,0.534-1.19,1.193v0.732c0,0.658,0.534,1.192,1.19,1.192h27.339
		v-3.118H329.328z M329.328,161.302"/>
	<path fill="#D15353" d="M319.193,152.127l-15.122-0.01l-0.357,0.002v-1.758l-6.726-7.819c-3.31,0-5.99,2.681-5.99,5.989v18.908
		c0,0.089,0.003,0.177,0.007,0.265v1.727c-0.004,0.078-0.007,0.155-0.007,0.234c0,0.078,0.003,0.156,0.007,0.233v0.002
		c0.122,2.221,1.961,3.983,4.212,3.983h13.959v14.129c0,1.868,1.519,3.381,3.393,3.381c1.873,0,3.391-1.513,3.391-3.381v-19.187
		c0-1.868-1.518-3.38-3.391-3.38h-8.854v-7.219c0,0-0.184-0.001-0.19-0.001c-0.86,0-1.685-0.361-2.266-0.998l-5.16-5.635
		c-0.166-0.177-0.153-0.455,0.026-0.621c0.179-0.165,0.458-0.151,0.622,0.027l5.163,5.634c0.418,0.458,1.001,0.707,1.621,0.73
		c0.027,0.001,0.618,0.026,0.618,0.026h15.045c1.452,0,2.629-1.179,2.629-2.634C321.822,153.305,320.646,152.127,319.193,152.127
		L319.193,152.127z M319.193,152.127"/>
	<path fill="#D15353" d="M311.339,138.321c0,3.645-2.954,6.598-6.598,6.598s-6.598-2.953-6.598-6.598s2.954-6.598,6.598-6.598
		S311.339,134.677,311.339,138.321L311.339,138.321z M311.339,138.321"/>
	<path fill="#D15353" d="M288.969,174.934c-1.021,0-1.906,0.575-2.353,1.421c-4.721-0.365-8.453-4.321-8.453-9.134
		c0-4.404,3.128-8.094,7.277-8.966v5.199c0,1.254,1.015,2.271,2.271,2.271c1.254,0,2.271-1.018,2.271-2.271v-13.208
		c0-1.256-1.017-2.271-2.271-2.271c-1.256,0-2.271,1.016-2.271,2.271v5.55c-5.491,0.904-9.692,5.683-9.692,11.425
		c0,6.137,4.798,11.173,10.841,11.556c0.436,0.873,1.336,1.474,2.38,1.474h19.194v-5.316H288.969z M288.969,174.934"/>
	<path fill="#D15353" d="M330.989,144.674c-0.554-0.189-1.157,0.105-1.346,0.66l-4.503,13.144h-16.109
		c-0.585,0-1.06,0.473-1.06,1.061c0,0.586,0.475,1.062,1.06,1.062h16.854c0.362,0,0.681-0.183,0.872-0.457
		c0.064-0.088,0.119-0.188,0.157-0.295l4.735-13.827C331.841,145.469,331.546,144.864,330.989,144.674L330.989,144.674z
		 M330.989,144.674"/>
</g>
<text transform="matrix(1 0 0 1 57.5029 141.7061)" fill="#D15353" font-family="'HelveticaNeue-Medium'" font-size="10.2782">Lifestyle</text>
<text transform="matrix(1 0 0 1 57.3174 198.3828)" fill="#D15353" font-family="'HelveticaNeue-Medium'" font-size="10.2782">Problems breakdown</text>
<text transform="matrix(1 0 0 1 57.501 263.7842)" fill="#D15353" font-family="'HelveticaNeue-Medium'" font-size="10.2782">Opportunities</text>
<g>
	<g>
		<path fill="#3A6DAB" d="M552.391,212.383l-0.398-12.093c-0.086-2.924-2.526-5.227-5.452-5.143c-2.36,0.068-4.313,1.67-4.937,3.827
			l-3.548,4.853l-7.026-0.109c-1.175-0.007-2.166,0.93-2.184,2.117c-0.016,1.013,0.678,1.868,1.618,2.11h-28.669
			c-0.765,0-1.387,0.622-1.387,1.388s0.622,1.384,1.387,1.384h1.351c-0.388,0.73-0.612,1.562-0.612,2.442v17.135
			c0,2.876,2.341,5.213,5.218,5.213c0.763,0,1.386-0.618,1.386-1.384c0-0.767-0.623-1.387-1.386-1.387
			c-1.349,0-2.443-1.097-2.443-2.442v-17.135c0-1.346,1.095-2.439,2.443-2.439h16.839c1.345,0,2.441,1.094,2.441,2.439v17.135
			c0,1.346-1.097,2.442-2.441,2.442c-0.765,0-1.387,0.62-1.387,1.387c0,0.766,0.622,1.386,1.387,1.386
			c2.876,0,5.215-2.339,5.215-5.215v-17.135c0-0.881-0.222-1.712-0.61-2.439h4.906c0.767,0,1.389-0.621,1.389-1.387
			c0-0.561-0.333-1.04-0.811-1.257l4.421,0.067h0.032c0.687,0,1.332-0.327,1.736-0.881l0.725-0.993l0.19,5.417l-3.803,0.115
			c-1.53,0.046-2.782,1.234-2.905,2.76l-0.773,9.41c-0.012,0.081-0.024,0.161-0.03,0.249l-0.202,2.594l-0.329,3.998
			c0,0.005,0,0.011,0,0.017c0,0,0.005,0,0.018,0l-0.072,0.905c-0.125,1.641,1.102,3.074,2.742,3.2
			c0.077,0.007,0.154,0.01,0.232,0.01c1.54,0,2.847-1.185,2.969-2.749l1.221-14.461l8.594-0.262c1.66-0.051,2.968-1.436,2.918-3.097
			C552.354,214.134,552.406,212.842,552.391,212.383L552.391,212.383z M552.391,212.383"/>
		<path fill="#3A6DAB" d="M557.628,213.282c-0.009-0.373-0.017-0.73-0.017-1.052v-14.378h-3.438v14.378
			c0,0.343,0.011,0.725,0.017,1.124c0.033,1.51,0.088,4.042-0.552,4.801c-0.86,1.021-3.329,0.989-5.315,0.959
			c-0.352-0.005-0.696-0.012-1.025-0.012h-5.77v3.441h4.934v8.066h-1.608c-1.823,0-3.31,1.481-3.31,3.31h2.578
			c0-0.405,0.329-0.73,0.731-0.73h6.61c0.401,0,0.73,0.325,0.73,0.73h2.579c0-1.828-1.485-3.31-3.31-3.31h-1.563v-8.051
			c2.334-0.035,4.829-0.356,6.37-2.189C557.742,218.616,557.68,215.658,557.628,213.282L557.628,213.282z M557.628,213.282"/>
		<path fill="#3A6DAB" d="M528.54,207.026l0.03-1.719l-9.165-0.16l-1.749-10.999l-1.698,0.271l1.974,12.422L528.54,207.026z
			 M528.54,207.026"/>
		<path fill="#3A6DAB" d="M525.576,189.54c4.682,0,8.491-3.809,8.491-8.487c0-4.681-3.81-8.489-8.491-8.489
			s-8.486,3.809-8.486,8.489C517.09,185.731,520.898,189.54,525.576,189.54L525.576,189.54z M518.867,180.193
			c0.39-3.046,2.806-5.463,5.851-5.851v0.875h1.72v-0.875c3.046,0.388,5.462,2.805,5.848,5.851h-0.873v1.717h0.873
			c-0.386,3.047-2.802,5.46-5.848,5.851v-1.048h-1.72v1.048c-3.045-0.391-5.461-2.806-5.851-5.851h0.877v-1.717H518.867z
			 M518.867,180.193"/>
		<path fill="#3A6DAB" d="M529.844,180.621h-3.836v-4.262h-0.86v5.122h4.696V180.621z M529.844,180.621"/>
		<path fill="#3A6DAB" d="M549.589,189.54c0,3.081-2.499,5.581-5.58,5.581c-3.083,0-5.579-2.5-5.579-5.581
			c0-3.082,2.496-5.579,5.579-5.579C547.09,183.961,549.589,186.458,549.589,189.54L549.589,189.54z M549.589,189.54"/>
	</g>
	<polygon fill="#744314" points="509.25,193.048 514.774,207.026 503.726,207.026 	"/>
	<polygon fill="#502B00" points="509.25,193.048 506.648,207.026 503.726,207.026 	"/>
</g>
<path fill="#F8E683" d="M523.338,131.129c-41.918,0-75.898,33.979-75.898,75.897s33.98,75.897,75.898,75.897
	c41.917,0,75.896-33.979,75.896-75.897S565.255,131.129,523.338,131.129z M523.338,258.906c-28.652,0-51.879-23.227-51.879-51.88
	c0-28.651,23.227-51.878,51.879-51.878s51.879,23.227,51.879,51.878C575.217,235.68,551.99,258.906,523.338,258.906z"/>
<path fill="#D9CA74" d="M448.892,221.855l23.586-4.556c0,0,9.698,44.161,54.771,41.46l-5.006,13.151l7.664,10.727
	C529.907,282.638,464.883,290.165,448.892,221.855z"/>
<path fill="#D9CA74" d="M591.896,174.424l-6.434,11.886l-14.647-0.032c0,0-18.184-40.543-62.264-29.02l2.132-13.909l-9.749-8.877
	C512.931,130.364,565.12,121.396,591.896,174.424z"/>
<rect x="379.694" y="244.154" opacity="0.8" fill="#FFFFFF" width="102.46" height="60.483"/>
<rect x="371.512" y="131.536" opacity="0.8" fill="#FFFFFF" width="102.461" height="44.33"/>
<rect x="578.529" y="120.634" opacity="0.8" fill="#FFFFFF" width="102.46" height="54.683"/>
<rect x="575.41" y="225.96" opacity="0.8" fill="#FFFFFF" width="102.46" height="54.683"/>
<text transform="matrix(1 0 0 1 397.6963 257.1123)" fill="#3A6DAB" font-family="'HelveticaNeue-Medium'" font-size="10.2782">Regular break</text>
<text transform="matrix(1 0 0 1 393.9043 142.6807)" fill="#3A6DAB" font-family="'HelveticaNeue-Medium'" font-size="10.2782">Introduction</text>
<text transform="matrix(1 0 0 1 599.7168 236.5469)" fill="#3A6DAB" font-family="'HelveticaNeue-Medium'" font-size="10.2782">Practising</text>
<text transform="matrix(1 0 0 1 604.2188 131.1289)" fill="#3A6DAB" font-family="'HelveticaNeue-Medium'" font-size="10.2782">Reminder</text>
<circle fill="#744314" cx="107.962" cy="340.519" r="2.618"/>
<circle fill="#744314" cx="183.562" cy="335.283" r="2.618"/>
<circle fill="#744314" cx="253.422" cy="337.9" r="2.618"/>
<circle fill="#744314" cx="398.459" cy="327.331" r="2.618"/>
<circle fill="#744314" cx="476.455" cy="322.095" r="2.618"/>
<circle fill="#744314" cx="541.528" cy="303.956" r="2.618"/>
<circle fill="#744314" cx="724.404" cy="295.101" r="2.618"/>
<circle fill="#744314" cx="747.797" cy="282.924" r="2.618"/>
<circle fill="#744314" cx="815.896" cy="264.689" r="2.618"/>
<circle fill="#744314" cx="932.141" cy="252.262" r="2.618"/>
<rect x="71.431" y="360.045" fill="#744314" width="55.669" height="12.571"/>
<rect x="159.625" y="366.154" fill="#744314" width="56.708" height="12.805"/>
<line fill="none" stroke="#744314" stroke-miterlimit="10" x1="107.026" y1="342.589" x2="103.661" y2="359.744"/>
<text transform="matrix(1 0 0 1 83.8955 368.7256)" fill="#FFFFFF" font-family="'HelveticaNeue'" font-size="8.8764">anxious</text>
<text transform="matrix(1 0 0 1 168.4707 375.2998)" fill="#FFFFFF" font-family="'HelveticaNeue'" font-size="9.0422">frustrated</text>
<rect x="236.368" y="346.793" fill="#744314" width="65.383" height="24.312"/>
<text transform="matrix(1 0 0 1 246.9033 356.4307)"><tspan x="0" y="0" fill="#FFFFFF" font-family="'HelveticaNeue'" font-size="8.0212">stressed but</tspan><tspan x="-7.123" y="9.625" fill="#FFFFFF" font-family="'HelveticaNeue'" font-size="8.0212">without knowing</tspan></text>
<rect x="356.602" y="348.647" fill="#744314" width="34.117" height="12.201"/>
<text transform="matrix(1 0 0 1 364.7148 357.1279)" fill="#FFFFFF" font-family="'HelveticaNeue'" font-size="8.0506">fresh</text>
<rect x="379.495" y="363.665" fill="#744314" width="34.116" height="12.2"/>
<text transform="matrix(1 0 0 1 386.7188 372.1436)" fill="#FFFFFF" font-family="'HelveticaNeue'" font-size="8.0506">weird</text>
<rect x="520.878" y="329.182" fill="#744314" width="43.26" height="12.2"/>
<text transform="matrix(1 0 0 1 524.541 337.835)" fill="#FFFFFF" font-family="'HelveticaNeue'" font-size="8.0506">perplexed</text>
<rect x="611.248" y="322.489" fill="#744314" width="48.434" height="13.659"/>
<text transform="matrix(1 0 0 1 615.3037 331.3857)" fill="#FFFFFF" font-family="'HelveticaNeue'" font-size="8.0506">determined</text>
<rect x="687.8" y="315.659" fill="#744314" width="48.435" height="13.659"/>
<text transform="matrix(1 0 0 1 699.0977 324.5576)" fill="#FFFFFF" font-family="'HelveticaNeue'" font-size="8.0506">relaxed</text>
<rect x="738.94" y="296.318" fill="#744314" width="48.435" height="13.659"/>
<text transform="matrix(1 0 0 1 743.1484 305.2148)" fill="#FFFFFF" font-family="'HelveticaNeue'" font-size="8.0506">therapeutic</text>
<rect x="807.167" y="279.53" fill="#744314" width="48.434" height="13.659"/>
<text transform="matrix(1 0 0 1 813.3916 288.4277)" fill="#FFFFFF" font-family="'HelveticaNeue'" font-size="8.0506">recharged</text>
<rect x="920.24" y="281.33" fill="#744314" width="48.434" height="13.659"/>
<text transform="matrix(1 0 0 1 927.7334 290.2285)" fill="#FFFFFF" font-family="'HelveticaNeue'" font-size="8.0506">refreshed</text>
<rect x="455.015" y="335.282" fill="#744314" width="43.259" height="12.199"/>
<text transform="matrix(1 0 0 1 463.4482 343.9346)" fill="#FFFFFF" font-family="'HelveticaNeue'" font-size="8.0506">curious</text>
<rect x="402.899" y="344.632" fill="#744314" width="34.116" height="12.2"/>
<text transform="matrix(1 0 0 1 414.29 353.1104)" fill="#FFFFFF" font-family="'HelveticaNeue'" font-size="8.0506">fun</text>
<text transform="matrix(1 0 0 1 370.4609 315.6592)"><tspan x="0" y="0" fill="#744314" font-family="'HelveticaNeue-Light'" font-size="5.7585">First encounter</tspan><tspan x="-0.535" y="6.91" fill="#744314" font-family="'HelveticaNeue-Light'" font-size="5.7585">breath-O’Clock</tspan></text>
<polyline fill="none" stroke="#744314" stroke-miterlimit="10" points="384.424,351.166 398.46,327.33 428.782,348.647 "/>
<line fill="none" stroke="#744314" stroke-miterlimit="10" x1="398.46" y1="327.33" x2="401.077" y2="366.154"/>
<line fill="none" stroke="#744314" stroke-miterlimit="10" x1="476.644" y1="320.662" x2="475.406" y2="338.189"/>
<circle fill="#744314" cx="640.643" cy="288.161" r="2.618"/>
<line fill="none" stroke="#744314" stroke-miterlimit="10" x1="640.832" y1="286.728" x2="637.153" y2="324.712"/>
<line fill="none" stroke="#744314" stroke-miterlimit="10" x1="541.382" y1="304.638" x2="548.176" y2="331.387"/>
<circle fill="#F1F2F2" cx="745.179" cy="176.723" r="51.205"/>
<circle fill="#F1F2F2" cx="848.933" cy="176.723" r="51.205"/>
<circle fill="#F1F2F2" cx="952.986" cy="176.723" r="51.205"/>
<g>
	<polygon fill="#565759" points="817.176,215.342 805.026,204.928 805.026,208.66 788.976,208.66 788.976,222.026 805.026,222.026 
		805.026,226.07 	"/>
	<rect x="785.728" y="208.672" fill="#565759" width="2.564" height="13.352"/>
	<rect x="784.1" y="208.672" fill="#565759" width="1.281" height="13.352"/>
	<rect x="783.026" y="208.672" fill="#565759" width="0.881" height="13.352"/>
</g>
<g>
	<polygon fill="#565759" points="918.558,215.189 906.408,204.775 906.408,208.508 890.357,208.508 890.357,221.874 
		906.408,221.874 906.408,225.919 	"/>
	<rect x="887.109" y="208.52" fill="#565759" width="2.562" height="13.352"/>
	<rect x="885.48" y="208.52" fill="#565759" width="1.282" height="13.352"/>
	<rect x="884.407" y="208.52" fill="#565759" width="0.882" height="13.352"/>
</g>
<g>
	<path fill="#E58E64" d="M983.609,231.646V230.6h-2.51v5.229c-0.312-0.682-0.998-1.157-1.799-1.157h-14.962v0.255
		c0,0.045,0,0.091-0.002,0.138c0.94,0.77,2.103,1.977,2.696,3.577h12.268c0.801,0,1.486-0.479,1.801-1.159v1.892H967.26
		c0.152,0.632,0.211,1.317,0.135,2.054c-0.018,0.142-0.033,0.295-0.055,0.456h13.762v6.621h4.497v-16.857H983.609z M966.056,234.93
		c0,0.009,0,0.021,0,0.031c-0.165-0.011-0.264-0.022-0.264-0.031l0.264-0.009V234.93z M966.056,234.93"/>
	<path fill="#E58E64" d="M941.056,238.641h10.121c0.568-1.52,1.644-2.681,2.522-3.43c-0.008-0.097-0.012-0.192-0.012-0.285v-0.255
		h-4.896c-8.537,0-9.222,0.476-9.536,1.157V230.6h-2.51v1.047h-1.987v16.858h4.497v-6.622h11.613
		c-0.02-0.161-0.037-0.314-0.052-0.456c-0.077-0.736-0.019-1.422,0.133-2.054h-11.694v-1.891
		C939.57,238.164,940.255,238.641,941.056,238.641L941.056,238.641z M941.056,238.641"/>
	<path fill="#E58E64" d="M961.728,240.831c0.028-0.278-0.307-0.822-1.095-1.426c-1.012,0.286-2.088,0.299-3.101,0.04
		c-0.759,0.59-1.079,1.117-1.05,1.386c0.031,0.298,0.078,0.656,0.13,1.052h4.983C961.65,241.487,961.695,241.129,961.728,240.831
		L961.728,240.831z M961.728,240.831"/>
	<path fill="#E58E64" d="M941.451,233.658h3.973c0.73,0,1.325-0.593,1.325-1.325s-0.595-1.324-1.325-1.324h-3.973
		c-0.732,0-1.326,0.592-1.326,1.324S940.719,233.658,941.451,233.658L941.451,233.658z M941.451,233.658"/>
	<path fill="#E58E64" d="M963.399,216.792c0,2.422-1.965,4.385-4.386,4.385c-2.423,0-4.388-1.963-4.388-4.385
		c0-2.421,1.965-4.386,4.388-4.386C961.435,212.406,963.399,214.371,963.399,216.792L963.399,216.792z M963.399,216.792"/>
	<path fill="#E58E64" d="M963.46,235.441c0.024-0.167,0.044-0.34,0.044-0.516v-9.658l10.785-7.974
		c0.756-0.56,0.916-1.624,0.358-2.382c-0.56-0.757-1.626-0.916-2.381-0.356l-10.407,7.691c-0.527-0.383-1.134-0.662-1.756-0.816
		l-1.09,1.102l-1.06-1.113c-0.003,0.002-0.007,0.002-0.012,0.002c-0.533,0.129-1.06,0.352-1.532,0.653l-10.173-7.519
		c-0.758-0.56-1.823-0.4-2.381,0.356c-0.56,0.758-0.4,1.822,0.357,2.382l10.327,7.633c-0.008,0.104-0.016,0.21-0.016,0.317v9.682
		c0,0.221,0.025,0.433,0.062,0.639c-1.608,1.254-3.204,3.259-2.938,5.775c0.315,2.984,1.746,10.76,1.809,11.088
		c0.179,0.971,1.024,1.648,1.975,1.648c0.123,0,0.244-0.011,0.369-0.032c1.092-0.202,1.815-1.253,1.612-2.345
		c-0.014-0.079-1.463-7.95-1.762-10.781c-0.097-0.926,0.948-1.858,1.723-2.392c0.518,0.175,1.076,0.27,1.64,0.27
		c0.609,0,1.211-0.113,1.764-0.315c0.77,0.521,1.883,1.483,1.779,2.438c-0.295,2.831-1.748,10.702-1.762,10.781
		c-0.2,1.092,0.521,2.143,1.615,2.345c0.123,0.021,0.245,0.032,0.365,0.032c0.952,0,1.801-0.678,1.978-1.648
		c0.062-0.328,1.495-8.104,1.808-11.088C966.834,238.74,965.122,236.686,963.46,235.441L963.46,235.441z M963.46,235.441"/>
</g>
<text transform="matrix(1 0 0 1 725.7627 149.0127)"><tspan x="0" y="0" fill="#E58E64" font-family="'HelveticaNeue-Medium'" font-size="10.2782">Regular</tspan><tspan x="-25.516" y="12.334" fill="#E58E64" font-family="'HelveticaNeue-Medium'" font-size="10.2782">breathing exercise</tspan></text>
<text transform="matrix(1 0 0 1 833.4404 149.0127)"><tspan x="0" y="0" fill="#E58E64" font-family="'HelveticaNeue-Medium'" font-size="10.2782">Habbit</tspan><tspan x="-9.148" y="12.334" fill="#E58E64" font-family="'HelveticaNeue-Medium'" font-size="10.2782">developed</tspan></text>
<text transform="matrix(1 0 0 1 937.6631 149.0127)"><tspan x="0" y="0" fill="#E58E64" font-family="'HelveticaNeue-Medium'" font-size="10.2782">Health</tspan><tspan x="-3.716" y="12.334" fill="#E58E64" font-family="'HelveticaNeue-Medium'" font-size="10.2782">benefits</tspan></text>
<line fill="none" stroke="#744314" stroke-miterlimit="10" x1="724.403" y1="295.1" x2="718.166" y2="316.933"/>
<line fill="none" stroke="#744314" stroke-miterlimit="10" x1="747.797" y1="282.923" x2="759.233" y2="298.738"/>
<line fill="none" stroke="#744314" stroke-miterlimit="10" x1="815.896" y1="265.815" x2="823.174" y2="281.33"/>
<line fill="none" stroke="#744314" stroke-miterlimit="10" x1="931.171" y1="252.261" x2="943.258" y2="282.923"/>
<line fill="none" stroke="#744314" stroke-miterlimit="10" x1="253.423" y1="337.899" x2="262.953" y2="349.684"/>
<line fill="none" stroke="#744314" stroke-miterlimit="10" x1="183.562" y1="337.9" x2="191.561" y2="368.707"/>
<text transform="matrix(1 0 0 1 57.79 154.7402)"><tspan x="0" y="0" font-family="'HelveticaNeue-Light'" font-size="10.2782">Long hours in front of computer</tspan><tspan x="0" y="12.334" font-family="'HelveticaNeue-Light'" font-size="10.2782">Routine stress related to the pressure of work or</tspan><tspan x="0" y="24.668" font-family="'HelveticaNeue-Light'" font-size="10.2782">other daily responsibilities</tspan></text>
<text transform="matrix(1 0 0 1 57.79 210.3633)"><tspan x="0" y="0" font-family="'HelveticaNeue-Light'" font-size="10.2782">Physical health - heart disease, frequent headache, asthma, obesity</tspan><tspan x="0" y="12.334" font-family="'HelveticaNeue-Light'" font-size="10.2782">Mental health - impatient, stress disorder</tspan><tspan x="0" y="24.668" font-family="'HelveticaNeue-Light'" font-size="10.2782">Sleep problems</tspan><tspan x="0" y="37.002" font-family="'HelveticaNeue-Light'" font-size="10.2782">Affect own’s decision making in life towards a more negative way </tspan></text>
<text transform="matrix(1 0 0 1 57.79 276.3848)"><tspan x="0" y="0" font-family="'HelveticaNeue-Light'" font-size="10.2782">Create awareness</tspan><tspan x="0" y="12.334" font-family="'HelveticaNeue-Light'" font-size="10.2782">Relaxation exercise or stretch</tspan><tspan x="0" y="24.668" font-family="'HelveticaNeue-Light'" font-size="10.2782">Re-examine one’s workload</tspan><tspan x="0" y="37.002" font-family="'HelveticaNeue-Light'" font-size="10.2782">Time management</tspan></text>
<text transform="matrix(1 0 0 1 375.71 152.3682)"><tspan x="0" y="0" font-family="'HelveticaNeue-Light'" font-size="6.9665">The system starts as it senses</tspan><tspan x="0" y="8.359" font-family="'HelveticaNeue-Light'" font-size="6.9665">the user approach and start the</tspan><tspan x="0" y="16.72" font-family="'HelveticaNeue-Light'" font-size="6.9665">first breathing exercise. </tspan></text>
<text transform="matrix(1 0 0 1 581.6484 140.4619)"><tspan x="0" y="0" font-family="'HelveticaNeue-Light'" font-size="6.9665">It goes for 1 min breathing </tspan><tspan x="0" y="8.359" font-family="'HelveticaNeue-Light'" font-size="6.9665">exercise during every ‘O’Clock’</tspan><tspan x="0" y="16.72" font-family="'HelveticaNeue-Light'" font-size="6.9665">as a reminder to deep breathing</tspan><tspan x="0" y="25.079" font-family="'HelveticaNeue-Light'" font-size="6.9665">at least once every hour.</tspan></text>
<text transform="matrix(1 0 0 1 706.8936 172.9922)"><tspan x="0" y="0" font-family="'HelveticaNeue-Light'" font-size="6.2162">Gradually the user would get</tspan><tspan x="-6.85" y="7.459" font-family="'HelveticaNeue-Light'" font-size="6.2162">used to the hourly deep breathing</tspan><tspan x="-2.129" y="14.919" font-family="'HelveticaNeue-Light'" font-size="6.2162">break and make the most out </tspan><tspan x="-4.783" y="22.378" font-family="'HelveticaNeue-Light'" font-size="6.2162">of the minute to recharge before</tspan><tspan x="-3.344" y="29.838" font-family="'HelveticaNeue-Light'" font-size="6.2162">concerntrating for another hour</tspan></text>
<text transform="matrix(1 0 0 1 807.0381 172.9922)"><tspan x="0" y="0" font-family="'HelveticaNeue-Light'" font-size="6.2162">The user has developed to deep</tspan><tspan x="-2.069" y="7.459" font-family="'HelveticaNeue-Light'" font-size="6.2162">breathing frequently and regularly.</tspan><tspan x="6.052" y="14.919" font-family="'HelveticaNeue-Light'" font-size="6.2162">It would become something</tspan><tspan x="7.201" y="22.378" font-family="'HelveticaNeue-Light'" font-size="6.2162">the body is able to perform</tspan><tspan x="1.451" y="29.838" font-family="'HelveticaNeue-Light'" font-size="6.2162">subconsciously when stressed,</tspan><tspan x="18.194" y="37.297" font-family="'HelveticaNeue-Light'" font-size="6.2162">anywhere, anytime</tspan></text>
<text transform="matrix(1 0 0 1 907.3945 172.9922)"><tspan x="0" y="0" font-family="'HelveticaNeue-Light'" font-size="6.2162">With the habbit of deep breathing,</tspan><tspan x="1.324" y="7.459" font-family="'HelveticaNeue-Light'" font-size="6.2162">the user is able to manage stress</tspan><tspan x="-4.783" y="14.919" font-family="'HelveticaNeue-Light'" font-size="6.2162">better and creating a healthier lifestyle</tspan><tspan x="7.717" y="22.378" font-family="'HelveticaNeue-Light'" font-size="6.2162">which impacts both physical</tspan><tspan x="17.616" y="29.838" font-family="'HelveticaNeue-Light'" font-size="6.2162">and mental wellness.</tspan></text>
<text transform="matrix(1 0 0 1 579.915 248.2422)"><tspan x="0" y="0" font-family="'HelveticaNeue-Light'" font-size="6.9665">It takes time to get used to</tspan><tspan x="0" y="8.359" font-family="'HelveticaNeue-Light'" font-size="6.9665">‘following’ the breathing rhythm</tspan><tspan x="0" y="16.72" font-family="'HelveticaNeue-Light'" font-size="6.9665">through the motion of</tspan><tspan x="0" y="25.079" font-family="'HelveticaNeue-Light'" font-size="6.9665">breath-O’clock once an hour.</tspan></text>
<text transform="matrix(1 0 0 1 384.4238 267.6504)"><tspan x="0" y="0" font-family="'HelveticaNeue-Light'" font-size="6.9665">During the 1 minutes deep</tspan><tspan x="0" y="8.359" font-family="'HelveticaNeue-Light'" font-size="6.9665">breathing break of each hour, </tspan><tspan x="0" y="16.72" font-family="'HelveticaNeue-Light'" font-size="6.9665">the user could incorporate other</tspan><tspan x="0" y="25.079" font-family="'HelveticaNeue-Light'" font-size="6.9665">activities such as stretching or</tspan><tspan x="0" y="33.439" font-family="'HelveticaNeue-Light'" font-size="6.9665">walk around for a bit.</tspan></text>
</svg>
