<?xml version="1.0" encoding="utf-8"?>
<!-- Generator: Adobe Illustrator 19.1.0, SVG Export Plug-In . SVG Version: 6.00 Build 0)  -->
<svg version="1.1" id="Layer_1" xmlns="http://www.w3.org/2000/svg" xmlns:xlink="http://www.w3.org/1999/xlink" x="0px" y="0px"
	 viewBox="425 57 1461.6 680" style="enable-background:new 425 57 1461.6 680;" xml:space="preserve">
<style type="text/css">
	.st0{fill:#FFFFFF;}
	.st1{fill:#3CBCDB;}
	.st2{fill:#64C9D9;}
	.st3{fill:#D8CAAB;}
	.st4{fill:#04954A;}
	.st5{fill:#010101;}
	.st6{fill:#A9DAF5;}
	.st7{fill:#E8D5A0;}
	.st8{fill:#7B6B59;}
	.st9{fill:#359244;}
	.st10{fill:#35803E;}
	.st11{fill:#629C42;}
	.st12{fill:#59883D;}
	.st13{fill:#E8AE37;}
	.st14{fill:#8D5123;}
	.st15{fill:#D6A130;}
	.st16{fill:#D6A131;}
	.st17{fill:#C3932F;}
	.st18{fill:#4E2A14;}
	.st19{fill:#5F3117;}
	.st20{fill:#C7D4ED;}
	.st21{fill:#B5AEA3;}
	.st22{fill:#F9E8A5;}
	.st23{fill:#78A690;}
	.st24{fill:#698E7C;}
	.st25{fill:#6C9581;}
	.st26{fill:#E5524E;}
	.st27{fill:#C44C43;}
	.st28{fill:#5C3816;}
	.st29{fill:#1E160F;}
	.st30{fill:#0E7E40;}
	.st31{fill:#106C37;}
	.st32{fill:#6FB243;}
	.st33{fill:#6CA041;}
	.st34{fill:#49A577;}
	.st35{fill:#3D845F;}
	.st36{fill:#9D7356;}
	.st37{fill:#8A644E;}
	.st38{fill:#BCBABA;}
	.st39{fill:#CAC5AF;}
	.st40{fill:#E6DDA2;}
	.st41{fill:#69C7C9;}
	.st42{fill:#5FB2B2;}
	.st43{fill:#A33225;}
	.st44{fill:#69B2BC;}
	.st45{fill:#CFC796;}
	.st46{fill:#AFA07D;}
	.st47{fill:#805522;}
	.st48{fill:#945F2B;}
	.st49{fill:#F04E26;}
	.st50{fill:#D44027;}
	.st51{fill:#DDCEAB;}
	.st52{fill:#DBD4BE;}
	.st53{fill:#E9DBB0;}
	.st54{fill:#C0B38C;}
	.st55{fill:#CDC19F;}
	.st56{fill:#C4B799;}
	.st57{fill:#942E26;}
	.st58{fill:#6E372D;}
	.st59{fill:#A1BAB0;}
	.st60{fill:#B7797E;}
	.st61{fill:#A36D74;}
	.st62{fill:#BC584D;}
	.st63{fill:#AB5049;}
	.st64{fill:#F9D4C7;}
	.st65{fill:#92463C;}
	.st66{fill:#D96557;}
	.st67{fill:#EA8C68;}
	.st68{fill:#EBE4D0;}
	.st69{fill:#B8AE93;}
	.st70{fill:#879D93;}
	.st71{fill:#D4A677;}
	.st72{fill:#E9E3C6;}
	.st73{fill:#5EB2B2;}
	.st74{fill:#C2B98D;}
	.st75{fill:#CD9F76;}
	.st76{fill:#BE936D;}
	.st77{fill:#C3996B;}
	.st78{fill:#787568;}
	.st79{fill:#989797;}
	.st80{fill:#E95E43;}
	.st81{fill:#D3EBFA;}
	.st82{fill:#E5E0C6;}
	.st83{fill:#DDD8C0;}
	.st84{fill:#615E54;}
	.st85{fill:#559B99;}
	.st86{fill:none;stroke:#BBE4E5;stroke-width:0.25;stroke-miterlimit:10;}
	.st87{fill:#90D5E2;}
	.st88{fill:none;stroke:#57969B;stroke-width:0.25;stroke-miterlimit:10;}
	.st89{fill:#615445;}
	.st90{fill:#4B7938;}
	.st91{fill:#486C32;}
	.st92{fill:#CCC3B4;}
	.st93{fill:#AA845E;}
	.st94{opacity:0.45;fill:#989797;}
	.st95{opacity:0.3;fill:#6F7375;}
	.st96{opacity:0.4;fill:#D3EBFA;}
</style>
<g>
	<polyline class="st0" points="1885.3,737 423.7,737 423.7,57 1885.3,57 1885.3,737 	"/>
	<path class="st1" d="M1417,559.8c12.3-24.1,51-14.9,70.8-10.2c46.8,10.7,91.3,31.3,139.6,31.6c43.4-0.8,85-16.8,128.4-15.4
		c35.4,2.1,96.5,24.9,91.1,69.8c-4.7,36.4-49.3,42.2-78,39.9c-34.1-2.6-67.4-23.5-95.1-39.7c-46.9-27.2-92.4-38.4-143.4-54.4
		c-20.3-6.1-42.4-13.1-64.4-15.5c-6.2-0.4-13,0-19.6,0.4c-8.2,0.5-16.2,1-22.4,0L1417,559.8"/>
	<path class="st2" d="M1524.4,580.1c0,0,1.3,0.4,3.9,1.1c2.5,0.7,6.3,1.7,11,3s10.5,2.9,17.1,4.8c3.3,1,6.8,2,10.4,3.3
		s7.4,2.6,11.4,3.8c8,2.4,16.9,4.6,26.1,7.8c9.1,3.2,18.6,6.8,28.4,10.8c4.9,2,9.8,4.1,14.7,6.4c4.9,2.3,9.8,4.8,14.7,7.4
		c9.8,5.2,19.4,11,29.1,16.6c4.9,2.8,9.7,5.6,14.7,8c5,2.5,10,4.9,15,7.2c10,4.6,20.1,8.7,30.2,11.3c5.1,1.3,10.1,2.3,15.1,2.9
		c5,0.6,9.9,0.9,14.7,0.9c9.6,0.1,18.7-0.9,26.8-3.1c8.1-2.1,15.2-5.3,21-8.8c1.4-0.9,2.8-1.8,4.1-2.7c1.3-0.9,2.4-1.9,3.4-3
		c2-2.2,3.5-4.4,4.8-6.5c2.6-4.2,4.1-7.7,4.8-10.3c0.4-1.3,0.5-2.3,0.6-2.9c0.1-0.7,0.1-1,0.1-1s0,0.4,0,1c0,0.7-0.2,1.7-0.5,3
		c-0.6,2.6-2,6.2-4.6,10.4c-1.3,2.1-2.8,4.4-4.8,6.6c-1,1.1-2.1,2.2-3.5,3.1c-1.3,1-2.7,1.9-4.1,2.8c-5.8,3.7-12.9,7.1-21.1,9.3
		c-8.2,2.3-17.4,3.4-27,3.4c-4.9,0-9.8-0.2-14.9-0.8c-5.1-0.5-10.2-1.5-15.3-2.8c-10.3-2.6-20.5-6.7-30.5-11.3
		c-5-2.3-10.1-4.7-15.1-7.2c-5.1-2.4-10-5.2-14.8-8c-9.7-5.7-19.3-11.4-29-16.7c-4.8-2.6-9.7-5.1-14.6-7.4
		c-4.9-2.3-9.8-4.4-14.7-6.4c-9.7-4-19.2-7.8-28.2-11c-9-3.3-17.9-5.6-25.9-8.1c-2-0.6-4-1.3-5.9-2s-3.7-1.4-5.5-2.1
		c-3.6-1.3-7-2.4-10.3-3.5c-6.5-2-12.2-3.7-17-5.1c-4.7-1.4-8.4-2.5-10.9-3.3C1525.7,580.5,1524.4,580.1,1524.4,580.1z"/>
	<path class="st3" d="M1847.3,631.2c-2.3-18.4-14.9-33.7-36-44.8c-9.4-5-27.8-14.1-46.4-17.2c-22.5-3.6-36.4-2.2-36.4-2.2
		c35.5-4.4,50.6,1.6,63.6,6.1c12.7,4.4,31.2,14.2,39.4,22.5c9.3,9.5,15,19.8,15.8,31.7V631.2z"/>
	<path class="st4" d="M1744.2,603.3c0-5.2-1.7-11.8-8.1-12c-3.8-0.1-9.2,3.9-8.8,7.6c-1.1-9.3-7.6-11.1-15.7-8.9
		c-7.8,1.9-5.9,9.3-4.1,14.8L1744.2,603.3z"/>
	<ellipse class="st0" cx="1710.9" cy="598.5" rx="2.2" ry="4.5"/>
	<ellipse class="st0" cx="1736.1" cy="599" rx="1.9" ry="3.8"/>
	<path class="st4" d="M1696.7,606.6c-0.7-2.1-2.5-3.1-4.5-2.4c-0.7,0.2-0.8,1.8-1.6,2c-0.9,0.1-3.1-1.2-4-1.5
		c-3.3-0.9-4.3,0.4-7.1,0.8c-2.2,0.3-8.1-2.2-8.6,1.3c-2.8,0.1-10.6-2.7-11,1.7c-2.8,0.1-7.8-3.3-8.6,1.1c-2.9-0.9-8.4-1.9-10.1,1.8
		c-0.4,1.1-0.1,1.8,0.3,2.1"/>
	<path class="st4" d="M1803.3,603.1c12.8-2.5,9.6-24.4,3-31.1c-6.4-6.7-15.3-8.1-24.2-8.9c1.7-4.4,8.9-3.7,11.8-1
		c2.7-3.9,6.9,1.7,7.9,4.4c5.2-2.7,9.9,1.2,9.6,6.7c4.4,1.5,9.4,4.7,4.9,9.4c3.9,3.9,6.7,6.7,2.2,11.8c3.9,3,5.7,6.7,1,9.9
		c6.9,3.9-8.1,9.4-8.4,8.4"/>
	<path class="st5" d="M1736,596.9c0-0.1,0-0.4,0.1-0.5c-0.6,0.1-1.1,0.1-1.7,0.2c0.3,0.7,0.4,1.6-0.1,2.2c0.6-0.1,1.2-0.2,1.8-0.3
		c-0.1-0.5-0.2-1.1,0-1.6c0.1-0.4-1.7-0.2-1.9,0.3c-0.2,0.6-0.1,1.2,0,1.7s1.7-0.1,1.8-0.3c0.7-0.8,0.6-1.7,0.3-2.6
		c-0.2-0.5-1.5,0-1.7,0.2c-0.5,0.3-0.5,0.6-0.5,1.1C1734,597.8,1735.9,597.6,1736,596.9z"/>
	<path class="st5" d="M1710.3,595.7c0-0.1,0-0.4,0.1-0.5c-0.6,0.1-1.1,0.1-1.7,0.2c0.3,0.7,0.4,1.6-0.1,2.2c0.6-0.1,1.2-0.2,1.8-0.3
		c-0.1-0.5-0.2-1.1,0-1.6c0.1-0.4-1.7-0.2-1.9,0.3c-0.2,0.6-0.1,1.2,0,1.7s1.7-0.1,1.8-0.3c0.7-0.8,0.6-1.7,0.3-2.6
		c-0.2-0.5-1.5,0-1.7,0.2c-0.5,0.3-0.5,0.6-0.5,1.1C1708.3,596.5,1710.2,596.3,1710.3,595.7z"/>
	<path class="st6" d="M1286,410.5c-0.6,34.1-1.2,68.2-1.8,102.3c-0.4,25.2,0.1,50.5,0.3,75.7c0,2.5,0.1,5.1,1.4,7.3
		c1.1,1.8,2.8,6.4,4.6,7.5c22.4,13.4,73.7,41,76.9,43.2c8.2,5.4,12.1,7,16.5,9.4c15.3,8.4,29,14.4,44.1,23.4
		c3.8,2.3,6.6,6.2,10.7,4.6c4-1.5,4.7-5.5,7.5-8.2c2.3-2.3,5.7-3.7,8.5-5.4c9.9-6.3,19.6-12.9,29.3-19.4
		c19.4-13.1,38.6-26.5,57.6-40.1c3.1-2.2,6.3-4.6,8.2-7.8c2.1-3.5,0.2-7.7,0.2-11.8c-0.4-45.8,0.8-83.7,1.1-127.6
		c0-1.3-0.5-6-1.1-7.2c-1.2-2.2-6.1-3.8-8.5-4.2c-31-5.6-51.1-13-81-23.2c-5.7-2-11.5-4-17.4-5.2c-7.7-1.6-15.7-1.8-23.6-2.8
		c-15.1-1.8-29.7-6.5-44.5-9.8c-30.3-6.6-61.9-7.3-92.5-1.9L1286,410.5"/>
	<path class="st7" d="M1439.5,684l-0.5-215l112.8-11.4l1.4,141.9c0,0-0.1,3.7-0.7,4.9c-0.7,1.4-4.3,3.9-4.3,3.9L1439.5,684z"/>
	<path class="st8" d="M506.1,626c0,1.7-1.4,3.5-2.4,3l-5.7-2.9c-2-1.1-2-1.7-2-3.3V536c0-1.7,1.1-3,2.4-3h5.3c1.3,0,2.4,1.3,2.4,3
		V626z"/>
	<path class="st8" d="M1202.3,661.7c0,1.3-1.1,2.6-1.8,2.3l-4.3-2.2c-1.5-0.8-1.5-1.3-1.5-2.5v-65.5c0-1.3,0.8-2.3,1.8-2.3h4
		c1,0,1.8,1,1.8,2.3V661.7z"/>
	<polygon class="st9" points="478.8,572.8 501.4,517.1 523.4,571.2 504.6,583.8 	"/>
	<polygon class="st10" points="501.4,517.1 504.6,583.8 523.4,571.2 	"/>
	<polygon class="st11" points="1178.3,627.5 1200.4,539.1 1221.9,625.9 1203.5,638.2 	"/>
	<polygon class="st12" points="1200.4,539.1 1203.5,638.2 1221.9,625.9 	"/>
	<path class="st13" d="M1230.3,467.2c-4.5,3.6-4.6,5.2-6,9.7c-0.8,2.4,0.8,8.5,1.7,12c0.1,0.4,0.2,0.9,0.5,1.6
		c0.5,1,1.1,1.5,1.6,1.7c0.9,0.4,1,0.7,1.3,1c0.7,1,2.2,1.5,3.3,2c1.4,0.7,2.8,1.2,4.2,1.8c2.9,1.2,5.1,2.2,7.7,3.8
		c4,2.5,11.4,0.4,16-0.9c1.8-0.5,4.6-2.2,5.9-3.1c2-1.4,2.9-2.9,3.5-5c1.6-4.7,2.5-10.1-1-13.4c-1.4-1.3-5.6-5.9-9.5-6.6
		c-5.3-0.9-8,1.4-11.8-1.8c-2-1.7-6.5-4.3-9.6-4.7C1236.9,465.2,1231,466.5,1230.3,467.2"/>
	<path class="st14" d="M1227.1,470.5c-0.7-0.5-0.6-2.1,0.4-2.7c0.8-0.5,2.2,0.1,2.6,0.4c-0.4,1.1-1.5,1.9-2.6,2.3"/>
	<path class="st15" d="M1230,478.2c0.4,0.5-0.4,2.4-1.5,3.7"/>
	<path class="st15" d="M1240.6,468.9c0.8,1.3-0.5,2.8-1,3.3"/>
	<path class="st15" d="M1239.4,494.2c1.3-0.1,3,1.3,2.8,2.2"/>
	<path class="st15" d="M1248.6,492.4c0.1-1.7,0.6-3.3,2.4-4.4"/>
	<path class="st15" d="M1238.4,481.3c1.4,0.9,1.7,2.3,1.6,3.9"/>
	<path class="st15" d="M1253.8,498.4c0.2,0.8,1.7,3.1,2.8,2.4"/>
	<path class="st16" d="M1257,480.1c0-0.1,0.1,1.1,2.8,0.3"/>
	<path class="st16" d="M1259.7,489.9L1259.7,489.9c2.5-0.7,2.5-2,3-3.2"/>
	<path class="st17" d="M1267.2,493.1L1267.2,493.1c-0.7,1.6-0.5,2.3-0.3,3.2"/>
	<path class="st15" d="M1251.3,471.9c-1.5,0.2-2.6,0.6-3.7,1.7"/>
	<path class="st15" d="M1233.8,490.9c-0.7-0.1-1.6,0-2.3,0.1c-0.4,0.1-1.8,0-2.1,0.2c-0.2,0.2-0.5,1.5-0.2,1.3
		c0.3-0.2,0.7-0.5,0.9-0.7c0.2-0.3,0.4-0.3,0.8-0.3c0.6-0.1,1.2-0.4,1.8-0.4L1233.8,490.9z"/>
	<path class="st18" d="M1226.7,469.5c1.2-1.7,1.8-1,3-1.2c2.2-0.3,4.1-2.2,6.6-2.3c5.4-0.3,9.2,4.5,14,6c4.7,1.5,9.6-0.3,14.1,2.7
		c2.1,1.4,4.2,3.3,5.7,5.4c1.4,2,1.4,3.8,1.4,6.1c0,0.2,0,1.3,0,0.9c0-1.8,0.5-4.5-0.1-6.3c-2.1-5.8-9.4-9.4-15.1-9.5
		c-3.1-0.1-5.6-0.2-8.4-1.6c-2.8-1.5-5.4-3.9-8.5-4.7c-2.7-0.7-6-0.2-8.4,1.3c-0.7,0.4-1.6,0.8-2,1c-1.1,0.5-0.8-1-2.2,1
		C1226.5,468.6,1226.9,469.3,1226.7,469.5z"/>
	<path class="st18" d="M1211.7,471.2c-6.5,4.2-9,1.7-9,1.7l83.8-55.6l1.7,2.5C1288.1,419.8,1249,447,1211.7,471.2z"/>
	<polyline class="st18" points="1227.6,459.7 1227.6,468.5 1228.4,468.5 1228.4,459.7 	"/>
	<polyline class="st18" points="1259.8,438.5 1259.8,472.8 1260.5,472.8 1260.5,438.5 	"/>
	<path class="st19" d="M1289.8,415.2l-1.1-1.7l-6.2,4.2c-0.5,0.2-0.9,0.6-0.9,0.6l-12,8.1c-3.4,2.2-6.9,4.2-10.8,4.7
		c-6.4,0.8-19.9-2.8-19.2,0.2c0.1,1.5,2.1,1.5,3.5,1.6c5.2,0.3,10.3,0.6,15.5,0.9l-1.8,1.2c-8.8,6-12.7,7.7-19.7,12.3
		c-2.1,1.4-5.9,2.8-8.4,3.5c-5.2,1.4-11.4-0.3-17.6-0.7c-0.6,0,0.3,0.7-0.3,1c4.9,1.8,9.9,3.3,15,4.7l-17.3,11.6
		c-2,1.2-3.9,2.5-5.8,3.9c-0.7,1.7,0.4,2.4,2.1,1.7l2.8-1.3l1.2-0.8c10.9-6.3,29-18.5,39.4-25.7c-1.1,3.8-3.8,11.6-2.5,11.4
		c1.9,0.6,2.5-3,5.9-9.6c1-1.9,1.7-3.6,3-5.3c1-1.3,2.3-2.4,3.7-3.4c11.8-9.1,18.3-12.8,31.7-19.4c1.8-0.9,3.9-2.2,3.9-4.2
		C1292.3,414.7,1291.1,414.9,1289.8,415.2z"/>
	<g>
		<polygon class="st20" points="1470.5,557.3 1529.9,524.7 1529.9,573.3 1470.5,609.6 		"/>
		<path class="st21" d="M1528.9,526.4v46.3l-57.4,35.1v-50L1528.9,526.4 M1530.9,523l-3,1.6l-57.4,31.5l-1,0.6v1.2v50v3.6l3-1.9
			l57.4-35.1l1-0.6v-1.1v-46.3V523L1530.9,523z"/>
	</g>
	<polyline class="st22" points="1286.3,418.5 1439.5,501.6 1438.7,555.5 1287.9,472.8 1286.3,418.5 	"/>
	<path class="st23" d="M1439.7,509.4c0,0,22.9,7.2,30.1,39l113.8-55.5c0,0-1-28-32.9-35.2L1439.7,509.4z"/>
	<path class="st24" d="M1440,510.3c15.4,6.3,25.2,22.1,29,37.7c0.2,0.8,1.4,0.5,1.2-0.3c-3.9-16.1-14-32.2-29.9-38.6
		C1439.5,508.8,1439.2,510,1440,510.3z"/>
	<path class="st25" d="M1440.3,509.1c0,0,10.8,4.2,13.5,8.9l112.7-53.8c0,0-8.4-6.1-15.8-6.5L1440.3,509.1z"/>
	<polygon class="st26" points="1262,407 1452.8,510.4 1563.9,458.7 1458.9,323.1 1357.3,358 	"/>
	<polygon class="st27" points="1357.3,358 1452.8,510.4 1563.9,458.7 1458.9,323.1 	"/>
	<path class="st28" d="M538.6,712.3L538.6,712.3c-2.7,0-4.9-2.2-4.9-4.9v-72.2c0-2.7,2.2-4.9,4.9-4.9s4.9,2.2,4.9,4.9v72.2
		C543.5,710.1,541.3,712.3,538.6,712.3z"/>
	<path class="st29" d="M542.7,708.1c-1.1,1.1-3.1,0.9-4.3-0.1s-1.8-2.6-2.1-4.2c-1.6-6.8-0.4-13.8,0.3-20.8
		c2.1-20.5,1.2-17.1,0.9-25c-1.3,0.4-3.9,0.1-4,1.5c-0.1,1.9,0.8,5,0.5,8.7c-0.9,11.9,0.2,23.5-0.1,37.4c0,1.7-0.1,2.6,0.6,4.1
		c0.7,1.5,2.7,2.4,4.3,2.6c1.7,0.2,4.6-1.4,4.6-3.1"/>
	<path class="st30" d="M535.2,549.7c7,10.5,8.9,23.6,12.8,35.7c3.6,11.4,9.1,22.1,14.3,32.8c1.9,3.9,3.8,7.8,4.6,12.1
		c1.4,7.5-0.8,15.2-2.9,22.6c-0.6,1.9-1.2,3.9-2.6,5.2c-1.1,1-2.6,1.5-4.1,1.9c-8.4,2.5-17,4.7-25.7,4.2s-17.6-4.1-22.7-11.4
		c-4.2-6-5.2-14.7-0.8-20.5"/>
	<path class="st31" d="M536,551c-0.9,15.4,2.4,30.8,4.1,46.2c1.7,15.4,4.9,28.9-0.9,43.5c-3,7.3-8.6,10.8-11,15.2
		c-0.6,1.1-8,5-7.2,6c0.6,0.7,8.1,1.2,9.1,1.3c8.5,1.3,21.4,1.9,28.9-1.8c6.4-3.1,7.4-6.5,10.6-12.1c5.6-10-5.2-33.8-14.9-52.7
		c-7.4-14.5-5.1-23.4-11.7-37c-1.9-3.9-3.5-8-5.9-11.7c-1.8,1.1-2.5,3.4-1.4,5.1"/>
	<path class="st28" d="M488.3,709.5L488.3,709.5c-1.9,0-3.5-1.6-3.5-3.5v-51.5c0-1.9,1.6-3.5,3.5-3.5l0,0c1.9,0,3.5,1.6,3.5,3.5V706
		C491.8,708,490.3,709.5,488.3,709.5z"/>
	<path class="st29" d="M491.2,706.5c-0.8,0.8-2.2,0.6-3.1-0.1c-0.9-0.7-1.3-1.9-1.5-3c-1.1-4.8-0.3-9.9,0.2-14.8
		c1.5-14.6,0.9-12.2,0.6-17.8c-0.9,0.3-2.8,0.1-2.9,1.1c-0.1,1.4,0.6,3.6,0.4,6.2c-0.6,8.5,0.1,16.7-0.1,26.7c0,1.2-0.1,1.9,0.4,2.9
		c0.5,1.1,1.9,1.7,3.1,1.8s3.2-1,3.3-2.2"/>
	<path class="st32" d="M485.9,593.5c5,7.5,6.3,16.8,9.1,25.5c2.6,8.1,6.5,15.8,10.2,23.4c1.3,2.8,2.7,5.6,3.3,8.6
		c1,5.4-0.5,10.9-2.1,16.1c-0.4,1.3-0.8,2.8-1.9,3.7c-0.8,0.7-1.9,1.1-2.9,1.4c-6,1.8-12.1,3.3-18.3,3c-6.2-0.4-12.5-3-16.2-8.1
		c-3-4.2-3.7-10.5-0.6-14.6C466.5,652.3,476.4,631.9,485.9,593.5"/>
	<path class="st33" d="M486.5,594.4c-0.6,11,1.7,22,3,33s3.5,20.6-0.7,31.1c-2.1,5.2-6.2,7.7-7.8,10.8c-0.4,0.8-5.7,3.6-5.1,4.2
		c0.4,0.5,5.8,0.8,6.5,0.9c6,0.9,15.3,1.3,20.6-1.3c4.5-2.2,5.3-4.6,7.5-8.6c4-7.1-3.7-24.1-10.6-37.6c-5.3-10.3-3.6-16.7-8.3-26.4
		c-1.4-2.8-2.5-5.7-4.2-8.3c-1.3,0.8-1.8,2.5-1,3.7"/>
	<path class="st28" d="M1246.7,718.8L1246.7,718.8c-2.9,0-5.3-2.4-5.3-5.3V636c0-2.9,2.4-5.3,5.3-5.3l0,0c2.9,0,5.3,2.4,5.3,5.3
		v77.6C1252,716.5,1249.7,718.8,1246.7,718.8z"/>
	<path class="st29" d="M1251,714.3c-1.2,1.2-3.3,0.9-4.7-0.2c-1.4-1.1-2-2.9-2.3-4.5c-1.7-7.2-0.5-14.9,0.3-22.3
		c2.3-22,1.4-18.4,0.9-26.8c-1.4,0.5-4.2,0.2-4.4,1.7c-0.2,2.1,0.9,5.4,0.6,9.3c-0.9,12.8,0.2,25.2-0.2,40.2c0,1.8-0.2,2.9,0.6,4.4
		c0.8,1.7,2.9,2.6,4.7,2.7s4.8-1.5,5-3.3"/>
	<path class="st34" d="M1243.1,544.1c10.9,1.8,9.5,25.3,13.7,38.4c3.9,12.2,9.8,23.8,15.4,35.2c2,4.2,4.1,8.4,5,13
		c1.5,8.1-0.8,16.4-3.2,24.2c-0.6,2-1.2,4.2-2.9,5.6c-1.2,1.1-2.9,1.7-4.4,2.1c-9,2.7-18.2,5-27.6,4.5c-9.3-0.6-18.8-4.5-24.4-12.2
		c-4.5-6.3-5.6-15.8-0.9-22C1213.8,632.6,1228.8,601.9,1243.1,544.1"/>
	<path class="st35" d="M1243.3,547.6l0.1,0.8c-0.9,16.6,3.2,30.2,5.2,46.7c2,16.6,5.3,31-1.1,46.8c-3.2,7.8-9.3,11.6-11.7,16.3
		c-0.6,1.2-8.6,5.4-7.7,6.3c0.6,0.8,8.7,1.2,9.8,1.4c9,1.4,23,2,31-2c6.8-3.3,8-6.9,11.3-13c6-10.7-0.5-32.6-10.9-52.9
		c-8-15.5-8.5-16.6-17.5-43.5c-1.5-4.5-0.7-6.8-5.8-9.7C1243.8,543.9,1243.1,543.8,1243.3,547.6"/>
	<polygon class="st36" points="1266.3,409.3 1357.2,362.3 1447.8,507.5 	"/>
	<polygon class="st37" points="1357.2,362.3 1266.6,409.2 1280.6,416.9 1363.3,372.1 	"/>
	<polygon class="st38" points="1328.9,430.9 1328.9,398.7 1379.8,424.2 1379.8,456.8 	"/>
	<path class="st39" d="M1329.4,399.5l49.9,25V456l-49.9-25.4V399.5 M1328.4,397.9v33.3l51.9,26.5v-33.8L1328.4,397.9z"/>
	<path class="st40" d="M1439.5,684c0,0-2.7,0.5-3.6,0.5s-3.6-0.5-3.6-0.5V508.2h7.2V684L1439.5,684z"/>
	<path class="st40" d="M1293.2,606.3l-3.6-2.9c-2.5-2.6-3.8-8.3-3.8-10.5l0.2-167.5h7.2L1293.2,606.3L1293.2,606.3z"/>
	<g>
		<polyline class="st41" points="1395.4,661.2 1432.7,681.8 1432.7,573.2 1395.4,552.9 1395.4,661.2 		"/>
	</g>
	<path class="st6" d="M1428.1,636.8l-28.3-15.7v-39c0,0,4-7,14.3-3.1c14.6,5.5,14.1,16.3,14.1,16.3L1428.1,636.8"/>
	<path class="st42" d="M1411.3,643.6l-10-5.9l-0.1,21.1l9.9,5.8c0.2,0.1,0.3,0.1,0.3-0.2v-20.2
		C1411.3,644,1411.4,643.7,1411.3,643.6z"/>
	<path class="st43" d="M1378.2,307.4c1.2,14.6,1.5,29.4,0.8,44.1c2.9-1.2,5.8-2.4,8.7-3.6c0.3-0.1,0.6-0.2,0.7-0.5
		c0.4-0.5,0.2-1.4,0-2.1c-2.3-9.9-3.6-20.3-3.8-30.7c0-2.4-0.1-5.1-1.1-7c-1.1-1.9-3.7-2.3-4.4,0"/>
	<path class="st43" d="M1442.6,300.1c1.2,10.5,1.5,21.1,0.8,31.7c2.9-0.9,5.8-1.7,8.7-2.6c0.3-0.1,0.6-0.2,0.7-0.4
		c0.4-0.4,0.2-1,0-1.5c-2.3-7.1-3.6-14.6-3.8-22.1c0-1.8-0.1-3.7-1.1-5s-3.7-1.6-4.4,0"/>
	<path class="st13" d="M1344.9,149.4c-19.3,9-20.9,15.4-29.7,31.8c-4.7,9-4.2,35.6-3.7,51c0,1.9,0.1,3.9,0.7,7.1
		c0.9,4.6,2.9,7.7,4.4,9.1c2.8,2.6,3,3.9,3.8,5.9c1.8,4.9,6.6,8.9,10.2,12.5c4.4,4.5,9.1,8.7,13.8,12.9c9.6,8.6,16.8,15.4,24.9,25.4
		c12.3,15.1,41.2,16.3,58.7,17c7,0.3,18.4-3.2,24.1-5.1c8.5-3.2,13-8.1,16.8-15.7c9.8-17.2,17.2-37.9,7.5-56
		c-3.9-7.3-15.5-31.3-29-39.1c-18.6-10.6-30-4.7-41.3-22.7c-5.9-9.4-20-26.1-31.1-31.5C1370.2,149.7,1347.9,147.4,1344.9,149.4"/>
	<path class="st14" d="M1330.5,158.6c-2-2.9-0.4-9.5,3.6-10.4c3.2-1,7.9,3.3,9.2,5c-2.3,3.8-7.1,5.7-11.4,5.9"/>
	<path class="st15" d="M1334.8,193.7c0.9,2.7-3.6,9.4-8.4,13.2"/>
	<path class="st15" d="M1380.7,169.6c1.8,6.2-4.1,10.7-6.4,12"/>
	<path class="st15" d="M1355.7,271.4c4.8,1.1,9.6,9.1,8.5,12.7"/>
	<path class="st15" d="M1390.4,275.7c1.8-6.8,4.8-12.9,12.4-14.7"/>
	<path class="st15" d="M1362.4,217.5c4.4,5.5,4.3,11.6,2.6,17.9"/>
	<path class="st15" d="M1404.3,307.1c0,3.7,3.5,14.8,8.3,13.6"/>
	<path class="st15" d="M1476.2,243.3c4.2,9,7,17,4.5,29.8c-2.6,13.3-9.4,23.5-12.4,29.7c-4.7,9.9-17.3,16.8-27.6,17.8
		c-2.8,0.3-5.8,0.9-8.6,1.4c14-8.1,18.4-28.9,19.5-56.4c1.7-43.3-21.6-65.5-21.8-66.3c14.2,3.2,24.9,11.1,27.9,15.3
		C1463.5,222.8,1476.2,243.3,1476.2,243.3z"/>
	<path class="st16" d="M1431.2,236.5c0.1-0.6-0.4,4.5,9.7,4.9"/>
	<path class="st16" d="M1432.9,280.2L1432.9,280.2c9.7,0.5,10.8-4.8,13.4-9.2"/>
	<path class="st17" d="M1457.3,302.8L1457.3,302.8c-4,5.7-3.7,8.6-3.7,12.6"/>
	<path class="st15" d="M1417,195.9c-5.6-0.9-10-0.8-14.9,2.1"/>
	<path class="st15" d="M1337.9,250.5c-2.5-1.5-5.7-2-8.5-2.6c-1.6-0.4-6.5-2.3-7.8-1.7c-1,0.5-3.1,5.7-2,5.1c1.1-0.5,3.1-1.2,4-1.7
		c1.1-0.7,1.8-0.5,3.1-0.4c2.4,0.2,4.8-0.1,7,0.6L1337.9,250.5z"/>
	<path class="st43" d="M1378.6,312.8c1.3,0.2,3.4,0.5,4.7,0.9c1.2,0.3,1.6,0.7,2.3,0.3c-0.3,0.9-0.4,1.4-1.1,1.9s-2,0.4-2.3-0.4"/>
	<path class="st43" d="M1443.8,320.5c0.2-0.4-0.2-0.8-0.4-1.3c-0.2-0.5-0.1-1,0.6-1.1c0.5-0.1,2.5,0.1,3.1,0c1.4-0.1,1.2,0.1,2-0.5
		c0.4-0.3,1.1-0.8,1.6-0.5c0.2,0.1,0.2,0.4,0.2,0.6c-0.2,0.8-0.3,1.5-0.5,2.3"/>
	<polygon class="st44" points="1399.8,624.5 1399.8,630.3 1427.6,646 1427.5,640 	"/>
	<polyline class="st45" points="1291,469.4 1430.2,547.9 1430.6,547.1 1291.5,468.5 	"/>
	<polyline class="st22" points="1393.9,624.5 1395.1,661.9 1292.9,606 1292.9,569.4 1393.9,624.5 	"/>
	<polyline class="st46" points="1295.8,571.3 1393,624.6 1393.5,623.7 1296.3,570.5 1295.8,571.3 	"/>
	<polygon class="st47" points="1468.8,602.1 1480,606.6 1539.1,569.7 1539.2,579 1479.9,616.6 1468.8,612 	"/>
	<polygon class="st47" points="1528.2,566.4 1539.2,569.8 1539.2,579 1528.1,574.6 	"/>
	<polygon class="st48" points="1468.8,602.1 1471.2,601.4 1480,604.7 1537.4,570 1528.2,566.4 1529.1,565.8 1539.2,569.8 
		1480,606.6 	"/>
	<path class="st49" d="M1478.9,602.7c-0.3-0.1,0.8-0.6,0.5-0.7c-0.7-0.2-1.4-1-2-1.3c-0.2-0.1-0.6-0.2-0.8-0.1
		c-0.2,0.1-0.1,0.4-0.2,0.5c-0.4-0.1-0.8-0.2-1.2-0.3c-0.2,0-0.4-0.1-0.6,0c-0.3,0.1-0.3,0.3-0.3,0.4c0,0.2,0.2,0.3,0.2,0.5
		s-0.2,0.4-0.4,0.4c-0.1,0-0.3,0-0.4,0c-0.2,0-0.2,0.1-0.2,0.2s0.1,0.2,0.2,0.2c0.4,0.3,1.1,0.4,1.7,0.5c-0.1,0.3,0.1,0.6,0.5,0.8
		s0.9,0.2,1.4,0.1c0,0.1,0.1,0.3,0.2,0.4c0.2,0.1,0.4,0.2,0.7,0.1c0.2-0.1,0.3-0.3,0.2-0.4c0,0.1,0.4,0.2,0.6,0
		c0.2-0.1,0.2-0.3,0.2-0.4"/>
	<path class="st50" d="M1480.4,602.8c-0.2,0-0.4,0-0.5-0.2s0-0.4,0.2-0.5c-0.1,0.1-0.4,0-0.5-0.2s0.1-0.4,0.2-0.5
		c0.2-0.1,0.4-0.1,0.6-0.1c-0.1-0.4,0.1-0.9,0.4-1.1s0.8-0.4,1.2-0.3c0.2-0.5,0.5-1,0.9-1.3c0.1-0.1,0.2-0.2,0.3-0.2
		c0.1,0,0.3,0.1,0.3,0.2c0,0.1-0.1,0.2-0.1,0.3c0,0.2,0.2,0.4,0.4,0.4c0.2,0,0.4-0.1,0.6-0.1s0.5,0.1,0.5,0.3s0,0.3-0.1,0.4
		c-0.2,0.3-0.4,0.6-0.6,0.9c0.2,0.1,0.5,0,0.7,0.2s0,0.5-0.2,0.6c-0.5,0.4-1.3,0.6-1.7,1.1c-0.2,0.2-0.3,0.5-0.5,0.7
		c-0.4,0.3-0.9,0.3-1.4,0.3c-0.6-0.1-1.2-0.1-1.8-0.2c-0.1,0-0.3,0-0.4-0.1c-0.2-0.1-0.3-0.3-0.3-0.5c-0.1-0.4,0-0.9,0.2-1.3"/>
	<path class="st49" d="M1493.3,592.5c-0.6,0-1.2-0.1-1.6-0.6c-0.3-0.5-0.1-1.3,0.5-1.4c-0.4,0.4-1.2,0.1-1.4-0.5s0.2-1.2,0.7-1.5
		s1.1-0.4,1.7-0.4c-0.2-1.2,0.2-2.5,1.2-3.3c0.9-0.8,2.2-1.1,3.4-0.8c0.5-1.5,1.4-2.9,2.7-3.8c0.3-0.2,0.6-0.4,1-0.5
		c0.4,0,0.8,0.2,0.8,0.6c0,0.4-0.2,0.7-0.3,1c-0.1,0.6,0.6,1.1,1.2,1.1s1.2-0.2,1.9-0.2c0.6,0,1.4,0.2,1.5,0.8
		c0.1,0.5-0.1,0.9-0.4,1.3c-0.6,0.9-1.1,1.8-1.7,2.7c0.6,0.4,1.6,0.1,2,0.7c0.5,0.6,0,1.4-0.6,1.9c-1.6,1.2-3.7,1.7-4.9,3.4
		c-0.5,0.7-0.8,1.5-1.3,2.1c-1,1-2.7,0.9-4.1,0.8c-1.7-0.2-3.5-0.4-5.2-0.6c-0.4,0-0.9-0.1-1.2-0.3c-0.5-0.3-0.8-0.9-0.9-1.5
		c-0.3-1.3-0.1-2.6,0.5-3.8"/>
	<path class="st49" d="M1509.3,582.5c-0.6,0-1.2-0.1-1.6-0.6c-0.3-0.5-0.1-1.3,0.5-1.4c-0.4,0.4-1.2,0.1-1.4-0.5
		c-0.2-0.6,0.2-1.2,0.7-1.5s1.1-0.4,1.7-0.4c-0.2-1.2,0.2-2.5,1.2-3.3s2.2-1.1,3.4-0.8c0.5-1.5,1.4-2.9,2.7-3.8
		c0.3-0.2,0.6-0.4,1-0.5c0.4,0,0.8,0.2,0.8,0.6c0,0.4-0.2,0.7-0.3,1c-0.1,0.6,0.6,1.1,1.2,1.1s1.2-0.2,1.9-0.2
		c0.6,0,1.4,0.2,1.5,0.8c0.1,0.5-0.1,0.9-0.4,1.3c-0.6,0.9-1.1,1.8-1.7,2.7c0.6,0.4,1.6,0.1,2,0.7c0.5,0.6,0,1.4-0.6,1.9
		c-1.6,1.2-3.7,1.7-4.9,3.4c-0.5,0.7-0.8,1.5-1.3,2.1c-1,1-2.7,0.9-4.1,0.8c-1.7-0.2-3.5-0.4-5.2-0.6c-0.4,0-0.9-0.1-1.2-0.3
		c-0.5-0.3-0.8-0.9-0.9-1.5c-0.3-1.3-0.1-2.6,0.5-3.8"/>
	<rect x="1294.6" y="466.3" class="st22" width="3.9" height="107.7"/>
	<polygon class="st51" points="1433.6,548.5 1433.6,684.5 1439.7,684 1439.7,542.6 	"/>
	<polygon class="st52" points="1283.3,425.4 1433.9,506.3 1439.7,503.4 1439.7,547.3 1433.8,550.8 1286,467.1 	"/>
	<polygon class="st53" points="1286.3,420.1 1278.7,415.9 1278.7,454.1 1281,456.9 1280.4,466.2 1283.6,468.4 1283.6,585.2 
		1281.2,587.3 1281.2,604.7 1291.7,611.9 1296.4,609.9 1296.8,591.2 1294.2,589 1294.8,462 1296.4,457.5 1296.4,425.5 	"/>
	<rect x="1291.5" y="466.8" class="st51" width="3.2" height="124.5"/>
	<polygon class="st51" points="1296.8,591.2 1296.8,609.6 1291.7,611.9 1291.7,593.1 	"/>
	<polygon class="st54" points="1281.2,587.3 1291.7,593.1 1296.8,591.2 1294.8,588.8 1291.5,589.9 1283.6,585.2 	"/>
	<polygon class="st51" points="1297.6,426.2 1297.6,457.1 1290.7,463.1 1290.7,422.5 	"/>
	<polygon class="st55" points="1280.4,466.6 1290.9,472.5 1296.8,468.7 1297,461.2 1297.6,457.1 1290.7,460.3 1278.7,453.8 
		1280.4,459.3 	"/>
	<polyline class="st22" points="1294.8,479 1394.1,535.5 1394.1,528.3 1296.1,473.2 1294.8,479 	"/>
	<polygon class="st55" points="1297.3,432.9 1295.1,433.9 1424.4,503.3 1424.4,501.1 	"/>
	<polygon class="st56" points="1295.1,434.9 1295.1,433.9 1424.4,503.3 1424.4,504.8 	"/>
	<polygon class="st55" points="1295.1,471.1 1293.2,472.1 1429.2,546.5 1429.2,544.3 	"/>
	<polygon class="st56" points="1293.2,473.1 1293.2,472.1 1429.2,546.5 1429.3,548 	"/>
	<path class="st57" d="M1495.2,473.9l17,8.8l51.7-24.1c0,0,0.5-0.9-2.9-3.7c-4.1-3.5-36.8-18.1-36.8-18.1L1495.2,473.9"/>
	<polygon class="st58" points="1462.3,441.9 1494.8,474.2 1534.4,453 1534.4,382.1 1481.4,367.1 1461.6,384.9 	"/>
	<path class="st59" d="M1466.3,422.8l23.4,13.1v-32.5c0,0-11.7-30.3-23.4-4.8V422.8z"/>
	<path class="st60" d="M1457.4,388.4l21.8-17.9l19.7,37.2l0.8,0.5l40.2-17.5c0,0,0.4-0.6,0.4-0.8c0-0.6,0-0.6,0-0.6l-26.4-34.7
		l-33.2,11.2l-24,22.2L1457.4,388.4z"/>
	<path class="st61" d="M1509.9,384l13.9,11.4v2.2l16.1-7c0,0,1.4-0.6-0.3-2.3c-1.7-1.7-19.6-10.4-19.6-10.4L1509.9,384z"/>
	<path class="st62" d="M1478.5,301.3c3.5,9.1,5.9,18.5,8.4,27.8c4.3,15.8,8.9,31.5,13.9,47.1c0.2,0.6,0.4,1.2,0.7,1.7
		c0.5,0.7,1.2,1.2,1.9,1.7c1.9,1.3,5,4.7,7.2,4.7c2,0,8-2,9.2-3.6c1.5-2.2-1.1-10-1.4-12.9c-0.8-9.3-0.2-18.8,1.4-28
		c1.7-10.1,4.6-20,7.9-29.6c1.3-3.7,5-8.8-0.3-10c-4.6-1-9.6-1.1-14.3-1.6c-4.6-0.5-9.3-1-13.9-1c-7.3-0.1-14.6,1-21.6,3.1"/>
	<path class="st63" d="M1520.1,380.6c1.5-2.2-1.1-10-1.4-12.9c-0.8-9.3-0.2-18.8,1.4-28c1.7-10.1,4.6-20,7.9-29.6
		c1.3-3.7,5-8.8-0.3-10c-4.6-1-9.6-1.1-14.3-1.6c-3.5-0.4-7-0.7-10.5-0.9c-2-0.1-3-0.5-3.8,1c-0.7,1.2,12,10.1,11.5,11.4
		c-2.1,5.5-3.4,21.8-3.9,32.3c-0.2,3.7,1.3,26.9,1.9,31.9c0.4,3.2,0.6,7.3,2,10C1513.3,383.7,1518.4,382.9,1520.1,380.6z"/>
	<polygon class="st64" points="1501.3,291.1 1476.1,297.7 1510.6,304.2 1532.4,296.3 	"/>
	<polygon class="st65" points="1476.4,301.8 1501.4,295.2 1532.9,301 1532.9,295.9 1501.4,290.8 1475.7,297.4 	"/>
	<polygon class="st66" points="1475.5,297.4 1475.5,302.3 1510.7,310 1532.9,301 1532.9,295.9 1510.6,303.6 	"/>
	<path class="st67" d="M1501.4,290.8l-25.7,6.6l34.9,6.3l22.3-7.8L1501.4,290.8z M1478.1,297l23.3-5.9l29.8,4.9l-20.5,6.9
		L1478.1,297z"/>
	<path class="st25" d="M1523.7,484.6c0,0,17.7-1.1,28.7,23.5l31.2-15.2c0,0,0.6-18.1-19.6-30.4L1523.7,484.6z"/>
	<polygon class="st37" points="1328.2,397.9 1328.2,431.4 1380.2,457.9 1380.4,457.4 1328.7,431 1328.7,397.9 	"/>
	<polyline class="st68" points="1295.5,470.2 1425.8,541.3 1426.1,540.6 1295.9,469.5 	"/>
	<polyline class="st68" points="1297.1,436.9 1423.8,505.2 1424.2,504.5 1297.5,436.2 	"/>
	<polyline class="st68" points="1296.2,468.1 1426.5,539.2 1426.8,538.5 1296.6,467.5 	"/>
	<polyline class="st56" points="1295.8,468.7 1426.1,539.8 1426.5,538.9 1296.3,467.9 	"/>
	<polygon class="st56" points="1426.5,538.3 1296.6,467.3 1296.9,466.6 1296.7,465.9 1426.9,537 	"/>
	<polyline class="st69" points="1296.3,465.7 1426.5,536.8 1426.8,536.4 1296.5,465.3 	"/>
	<path class="st70" d="M1474.8,388.1c-0.1,0-1.2,0.1-2.9,1.5c-1.7,1.3-3.9,3.9-6.1,8.8v0.1v24.6l23.7,13.2l0.5-0.9l-23.1-13v-23.9
		h-0.5l0.5,0.2c2.2-4.8,4.3-7.2,5.8-8.5c0.8-0.6,1.4-0.9,1.8-1.1c0.2-0.1,0.4-0.1,0.5-0.1h0.1l0,0v-0.2v0.2l0,0v-0.2v0.2
		L1474.8,388.1L1474.8,388.1z"/>
	<polygon class="st71" points="1465.4,642.8 1465.4,667 1469.9,669 1472.3,666.5 1472.3,643.5 	"/>
	<polygon class="st71" points="1531.2,619 1555.4,628.2 1555.3,633.3 1531.1,624.9 	"/>
	<polygon class="st72" points="1393.3,660.9 1428.6,682.4 1429.6,679.6 1393.3,657.9 	"/>
	<polyline class="st72" points="1396.8,553.6 1429.4,571.5 1429.4,568.5 1396.8,550.8 1396.8,553.6 	"/>
	<path class="st73" d="M1404.4,578.5c-0.9,0.5-1.7,1-2.5,1.6s-1.5,1.3-1.9,2.1v-0.1c0.1,3.3,0.1,6.5,0.2,9.7c0,3.3,0.1,6.5,0.1,9.8
		v9.8c0,3.2,0,6.5,0,9.7l-0.2-0.4l7.1,3.9c2.4,1.3,4.7,2.7,7,4l7,4l7,4.1l-7.2-3.7l-7.1-3.8c-2.4-1.3-4.8-2.5-7.1-3.8l-7.1-3.9
		l-0.2-0.1v-0.3c0-3.3,0-6.5,0-9.7v-9.8c0-3.2,0.1-6.5,0.1-9.8c0-3.2,0.1-6.5,0.2-9.7l0,0l0,0c0.1-0.2,0.3-0.5,0.4-0.7
		c0.2-0.2,0.3-0.4,0.5-0.6c0.4-0.3,0.8-0.7,1.2-0.9C1402.6,579.4,1403.5,578.9,1404.4,578.5"/>
	<path class="st74" d="M1396.8,532.3v18.5l32.6,17.8v-18.1L1396.8,532.3 M1428.7,567.4l-30.9-17v-17l30.9,17.4V567.4"/>
	<polygon class="st71" points="1471.3,656.3 1495.6,665.5 1495.5,670.6 1471.2,662.2 	"/>
	<polygon class="st75" points="1471.3,656.3 1468.8,658 1494.9,667.9 1494.8,665.2 	"/>
	<polygon class="st76" points="1478.7,661.8 1530.1,626.7 1532.8,627.4 1532.8,630.5 1484.7,664.6 1482.8,666.2 1478.7,664.8 	"/>
	<polygon class="st71" points="1494.2,652.3 1493.8,675.9 1497.9,677.5 1502,674.9 1502,649.4 	"/>
	<polygon class="st71" points="1550.8,616.9 1550.5,637.3 1555.6,639.5 1558.7,637.4 1558.7,614 	"/>
	<polygon class="st75" points="1464.4,640.1 1464.4,645.2 1498.8,655.9 1559.5,614.5 1559.5,609.1 1527.9,612.4 	"/>
	<polygon class="st77" points="1528.4,601.4 1559.5,609.1 1497.6,649.6 1464.4,640.1 	"/>
	<polygon class="st78" points="1405.8,636 1417.6,642.8 1417.6,644 1405.8,637.2 	"/>
	<polygon class="st79" points="1379.3,452 1332,428.1 1332,400.7 1329.2,399.3 1329.2,430.8 1379.3,456 	"/>
	<polygon class="st53" points="1432,499 1424.4,494.9 1424.4,533 1426.7,535.9 1426.1,545.2 1429.3,547.3 1429.5,667.6 1427,669.8 
		1427,685.1 1437.2,690.8 1442.6,686.6 1442.7,672.1 1440,669.9 1440.5,540.9 1442.1,536.5 1442.1,504.5 	"/>
	<rect x="1437.2" y="548" class="st51" width="3.2" height="124.5"/>
	<polygon class="st51" points="1442.7,672.1 1442.6,686.6 1437.2,690.8 1437.2,672.1 	"/>
	<polygon class="st54" points="1427,669.8 1437.2,675.4 1442.7,672.1 1440.5,670 1436.7,671.9 1429.5,667.6 	"/>
	<polygon class="st51" points="1443.3,505.1 1443.3,536.1 1436.5,542.1 1436.5,501.4 	"/>
	<polygon class="st55" points="1426.1,545.5 1436.6,551.4 1441.3,548.4 1441.5,540.8 1443.3,536.1 1436.4,539.3 1424.4,532.8 
		1426.1,538.3 	"/>
	<path class="st80" d="M1484.2,597.8c-1.2,0-2.4-0.8-3-1.9c0.9-0.2,1.8-0.6,2.4-1.2c0.3-0.3,0.6-0.7,1.1-0.8
		c0.8-0.3,1.7,0.1,2.3,0.8c0.6,0.6,1,1.4,1.6,2c-1,1.1-2.5,1.7-4,1.6"/>
	<path class="st73" d="M1397.1,659.9c-0.1-8.8-0.1-17.7-0.1-26.5l-0.1-26.5c0-8.8-0.1-17.7,0-26.5l0.1-26.5v-0.3l0.2,0.1l15.8,8.6
		l15.8,8.7l-15.9-8.5L1397,554l0.2-0.1l0.1,26.5c0,8.8,0,17.7,0,26.5l-0.1,26.5C1397.2,642.2,1397.1,651,1397.1,659.9z"/>
	<polygon class="st22" points="1396.8,662 1393.3,659.9 1393.3,528.3 1396.8,530.2 	"/>
	<polyline class="st81" points="1368.1,521 1342.5,506.2 1386.4,619.8 1393.5,623.7 1393.5,588.8 1368.1,521 	"/>
	<path class="st82" d="M1425.2,587c1.2,1.7,1.9,3.3,2.3,4.6C1427.1,589.9,1426.2,588.3,1425.2,587"/>
	<path class="st81" d="M1404.9,578.3c-1.1,0.5-1.1,0.4-2.6,1.2l20.9,54.2l5,3c0-1.9,0-4,0-5.9l-19.9-53.1
		C1408.3,577.8,1406.6,577.8,1404.9,578.3z"/>
	<path class="st83" d="M1400.3,614.6L1400.3,614.6v5.7C1400.3,618.4,1400.3,616.5,1400.3,614.6"/>
	<polyline class="st81" points="1409.6,540 1417.6,561.3 1428.7,567.4 1428.7,550.8 1421.1,546.5 	"/>
	<path class="st83" d="M1409.6,556.9L1409.6,556.9l19.1,10.5L1409.6,556.9 M1428.7,550.8L1428.7,550.8v16.6v-10.9V550.8"/>
	<path class="st41" d="M1405.8,637.2"/>
	<polygon class="st84" points="1406.5,636.8 1417.6,643 1417.6,644 1405.8,637.2 	"/>
	<polygon class="st85" points="1410.2,662.3 1402.3,657.7 1402.3,639.9 1410.3,644.6 	"/>
	<polyline class="st86" points="1401.3,637.7 1411.3,643.6 1411.3,664.6 	"/>
	<path class="st42" d="M1424.2,651.1l-9.8-6c-0.2-0.1-0.5,0-0.5,0.3v20c0,0.1,0.1,0.2,0.2,0.3l9.8,5.9c0.2,0.1,0.5,0.1,0.5-0.2
		l0.1-20C1424.4,651.3,1424.3,651.2,1424.2,651.1z"/>
	<polygon class="st85" points="1423.2,669.4 1415.3,664.8 1415.3,647.6 1423.3,652.4 	"/>
	<polyline class="st86" points="1414.4,645.2 1424.3,651.1 1424.3,670.9 	"/>
	<ellipse class="st44" cx="1397.8" cy="623.1" rx="2" ry="2.6"/>
	<g>
		<path class="st87" d="M1399.1,623c0-0.5-0.2-1.6,0-1.4c0.1,0.1,0.7,1.1,0.2,2.4c-0.7,1.8-2,1.4-2.2,1.3c-0.1-0.1-0.2-0.3,0-0.4
			c0.2-0.2,1,0.1,1.8-0.9C1399,623.8,1399.1,623.4,1399.1,623z"/>
	</g>
	<polygon class="st88" points="1400.2,625.4 1400.3,629.9 1427,645.1 1427,640.4 	"/>
	<polyline class="st86" points="1402.3,639.9 1402.3,657.7 1410.2,662.3 	"/>
	<polyline class="st86" points="1415.3,647.6 1415.3,664.8 1423.2,669.4 	"/>
	<path class="st89" d="M604.1,725c0,1.4-1.1,2.8-1.9,2.4l-4.6-2.3c-1.6-0.9-1.6-1.4-1.6-2.6V653c0-1.4,0.9-2.4,1.9-2.4h4.2
		c1,0,1.9,1,1.9,2.4V725z"/>
	<path class="st90" d="M581.2,677.1l14.3-74.2c0.5-2.6,4.1-2.6,4.7-0.2l18.6,74c0.2,1-0.1,1.9-0.9,2.5l-12.3,9.3
		c-0.7,0.5-1.6,0.6-2.4,0.3l-20.7-9C581.6,679.4,581,678.2,581.2,677.1z"/>
	<path class="st91" d="M603.5,687.4l-5.6-84.3c-0.1-1.9,1-2.6,2.2-0.8l19,75.1c0.2,0.6-0.1,1.3-0.6,1.7l-12.8,9.4
		C604.7,689.3,603.5,688.7,603.5,687.4z"/>
	<polygon class="st81" points="1335.4,502.1 1374.7,613.3 1377.6,615 1338.5,503.8 	"/>
	<polygon class="st81" points="1409.2,577.8 1428.3,628.8 1428.2,625.7 1410.4,578 	"/>
</g>
<g>
	<path class="st92" d="M1298.7,482.9l93.6,52.8l0.2,86.4l-93.8-51.3V482.9 M1297.7,481.2v90.1l95.8,52.4l-0.2-88.6L1297.7,481.2
		L1297.7,481.2z"/>
</g>
<g>
	<path class="st93" d="M1480.6,640.1c0,0,0.7-0.6,1.7-1.5s2.5-2.1,3.9-3.2c1.4-1.1,2.9-2.2,4-3s1.9-1.3,1.9-1.3s-0.7,0.6-1.7,1.5
		s-2.5,2.1-3.9,3.2c-1.4,1.1-2.9,2.2-4,3C1481.3,639.6,1480.6,640.1,1480.6,640.1z"/>
</g>
<g>
	<path class="st93" d="M1485.2,638.2c0,0,0.6-0.7,1.6-1.6c1-0.9,2.3-2.2,3.7-3.3c1.4-1.2,2.8-2.2,3.9-3s1.9-1.3,1.9-1.3
		s-0.7,0.6-1.7,1.5s-2.4,2.1-3.8,3.2c-1.4,1.2-2.8,2.3-3.8,3.1C1486,637.7,1485.2,638.2,1485.2,638.2z"/>
</g>
<g>
	<path class="st93" d="M1486.9,640c0,0,0.6-0.6,1.6-1.5c0.5-0.5,1.2-1.1,1.9-1.7c0.4-0.3,0.8-0.7,1.2-1c0.4-0.3,0.9-0.7,1.4-1.1
		c1-0.8,2-1.5,3.2-2.3c1.1-0.8,2.4-1.6,3.7-2.4c2.6-1.6,5.4-3.2,8.2-4.8c2.9-1.6,5.7-3.1,8.4-4.6c1.3-0.7,2.6-1.5,3.8-2.1
		c1.2-0.7,2.4-1.3,3.4-2c1-0.6,2-1.2,2.8-1.7s1.6-1,2.2-1.4c1.2-0.8,1.9-1.2,1.9-1.2s-0.7,0.5-1.8,1.3c-0.6,0.4-1.3,0.9-2.1,1.5
		c-0.8,0.6-1.7,1.2-2.8,1.8c-2.1,1.3-4.5,2.7-7.2,4.2s-5.5,3.1-8.4,4.6c-2.8,1.6-5.7,3.2-8.3,4.8c-1.3,0.8-2.5,1.6-3.7,2.4
		c-1.2,0.8-2.3,1.5-3.2,2.2c-1,0.7-1.9,1.4-2.6,2c-0.8,0.6-1.5,1.1-2,1.6C1487.5,639.4,1486.9,640,1486.9,640z"/>
</g>
<g>
	<path class="st93" d="M1514.7,626.2c0,0,0.3-0.3,0.7-0.7c0.4-0.4,1-0.9,1.7-1.3c0.6-0.4,1.3-0.7,1.9-1c0.5-0.2,0.9-0.3,0.9-0.3
		s-0.3,0.2-0.8,0.6c-0.5,0.3-1.1,0.7-1.7,1.1c-0.6,0.4-1.3,0.8-1.8,1.1C1515,626,1514.7,626.2,1514.7,626.2z"/>
</g>
<g>
	<path class="st93" d="M1518.5,625.3c0,0,0.4-0.3,1.2-0.8c0.7-0.5,1.8-1.3,3.1-2.1c1.3-0.8,2.9-1.8,4.6-2.7s3.5-1.9,5.3-2.9
		s3.6-2,5.3-2.9c0.8-0.5,1.6-1,2.4-1.4c0.8-0.5,1.5-0.9,2.1-1.3c1.3-0.8,2.4-1.5,3.1-2.1c0.7-0.5,1.2-0.8,1.2-0.8s-0.4,0.3-1.1,0.9
		c-0.3,0.3-0.8,0.6-1.3,1s-1.1,0.8-1.7,1.2c-1.3,0.9-2.8,1.9-4.5,2.9s-3.5,2-5.3,3s-3.7,2-5.4,2.9c-1.7,0.9-3.3,1.8-4.6,2.6
		C1520.3,624.2,1518.5,625.3,1518.5,625.3z"/>
</g>
<g>
	<path class="st93" d="M1549,609.5c0,0-0.5,0.4-1.4,1c-0.8,0.6-2,1.3-3.2,2s-2.4,1.3-3.3,1.8s-1.5,0.7-1.5,0.7s0.5-0.4,1.4-1
		c0.8-0.6,2-1.3,3.2-2s2.4-1.3,3.3-1.8C1548.4,609.8,1549,609.5,1549,609.5z"/>
</g>
<g>
	<path class="st93" d="M1492.3,645c0,0,0.3-0.4,0.8-1c0.6-0.6,1.4-1.5,2.4-2.4c1.1-0.9,2.4-1.9,3.9-2.8c1.5-0.9,3.3-1.7,5-2.3
		c1.8-0.6,3.6-1.2,5.2-1.7c1.7-0.5,3.3-1,4.6-1.4c2.7-0.8,4.5-1.3,4.5-1.3s-1.8,0.6-4.4,1.6c-1.3,0.4-2.9,1-4.6,1.5
		s-3.5,1.1-5.2,1.8c-1.8,0.6-3.5,1.4-5,2.2c-1.5,0.9-2.9,1.8-4,2.6c-1.1,0.9-2,1.6-2.6,2.2C1492.6,644.6,1492.3,645,1492.3,645z"/>
</g>
<g>
	<path class="st93" d="M1495.7,644.8c0,0,0.9-0.9,2.4-2.1c0.7-0.6,1.6-1.3,2.6-2s2.1-1.4,3.2-2s2.3-1.1,3.4-1.5s2.2-0.7,3.2-0.8
		c0.9-0.2,1.7-0.2,2.3-0.2c0.6,0,0.9,0,0.9,0s-0.3,0-0.9,0.1c-0.6,0-1.3,0.2-2.3,0.4c-1.8,0.4-4.2,1.3-6.4,2.5
		c-1.1,0.6-2.2,1.3-3.2,1.9c-1,0.7-1.9,1.3-2.7,1.8C1496.8,644,1495.7,644.8,1495.7,644.8z"/>
</g>
<g>
	<path class="st93" d="M1495.5,647.7c0,0,0.7-0.8,2-1.7c0.6-0.5,1.4-1,2.2-1.5c0.8-0.5,1.8-1,2.7-1.5c1-0.4,1.9-0.8,2.9-1.1
		c0.9-0.3,1.8-0.5,2.6-0.7c0.8-0.2,1.4-0.3,1.8-0.5c0.4-0.1,0.7-0.2,0.7-0.2s-1,0.5-2.5,0.9c-1.5,0.5-3.5,1.1-5.3,2.1
		c-1.9,0.9-3.7,1.9-5,2.8c-0.6,0.4-1.2,0.8-1.6,1.1C1495.7,647.5,1495.5,647.7,1495.5,647.7z"/>
</g>
<g>
	<path class="st93" d="M1529.7,605.2c0,0-1.2,0.9-2.9,2.3c-0.9,0.7-1.9,1.5-3.1,2.3c-1.1,0.8-2.3,1.7-3.5,2.6
		c-1.2,0.9-2.4,1.7-3.6,2.5c-1.1,0.8-2.2,1.5-3.2,2.2c-1.9,1.3-3.1,2.1-3.1,2.1s1.2-0.9,2.9-2.3c0.9-0.7,1.9-1.5,3.1-2.3
		c1.1-0.8,2.3-1.7,3.5-2.6c1.2-0.9,2.4-1.7,3.6-2.5s2.2-1.5,3.2-2.2C1528.5,606,1529.7,605.2,1529.7,605.2z"/>
</g>
<g>
	<path class="st93" d="M1470.1,640c0,0,0.5-0.4,1.3-1.1c0.8-0.7,2-1.6,3.5-2.7c1.5-1.1,3.2-2.4,5.2-3.7c1.9-1.3,4-2.6,6.1-3.9
		c2.1-1.3,4.3-2.5,6.3-3.6s4-2.1,5.6-2.9c1.7-0.8,3.1-1.4,4.1-1.9c0.2-0.1,0.5-0.2,0.6-0.3c0.2-0.1,0.3-0.2,0.4-0.4
		c0.1-0.3-0.1-0.4-0.1-0.4s0.2,0.1,0.1,0.4c-0.1,0.1-0.2,0.3-0.4,0.4c-0.2,0.1-0.4,0.2-0.6,0.3c-1,0.5-2.3,1.2-4,2
		c-3.3,1.7-7.6,4.1-11.8,6.6c-2.1,1.3-4.2,2.6-6.1,3.8c-1.9,1.3-3.7,2.5-5.2,3.5C1472.1,638.5,1470.1,640,1470.1,640z"/>
</g>
<g>
	<path class="st93" d="M1496.7,625c0,0,0.3-0.2,0.8-0.5s1.2-0.7,1.9-1c0.7-0.4,1.4-0.7,1.9-0.9s0.9-0.4,0.9-0.4s-0.3,0.3-0.8,0.6
		s-1.1,0.8-1.8,1.1c-0.7,0.4-1.4,0.7-2,0.8C1497.1,624.9,1496.7,625,1496.7,625z"/>
</g>
<g>
	<path class="st93" d="M1525.7,626.4c0,0,1.3-0.8,3.4-1.9c1-0.5,2.2-1.2,3.5-1.8s2.7-1.3,4.1-2s2.8-1.3,4.1-1.9
		c1.3-0.6,2.6-1.1,3.6-1.6c2.1-0.9,3.6-1.5,3.6-1.5s-1.4,0.7-3.5,1.7s-4.9,2.4-7.6,3.7c-2.8,1.3-5.6,2.7-7.6,3.7
		C1527.1,625.7,1525.7,626.4,1525.7,626.4z"/>
</g>
<g>
	<path class="st93" d="M1500.6,634.2c0,0-1,0.8-2.5,1.9c-0.8,0.6-1.7,1.2-2.6,1.9c-1,0.7-2,1.4-3.1,2.1c-1.1,0.7-2.1,1.4-3.1,2
		s-2,1.2-2.8,1.7c-1.7,1-2.8,1.5-2.8,1.5s4.2-2.8,8.4-5.7c1.1-0.7,2.1-1.4,3.1-2.1c1-0.7,1.9-1.3,2.7-1.8
		C1499.5,634.9,1500.6,634.2,1500.6,634.2z"/>
</g>
<polygon class="st94" points="1329.2,399.3 1379.3,424.5 1379.3,456 1361.8,447.1 "/>
<path class="st95" d="M1479.5,543.7l64.3,61.5l6.3,1.6c0,0,2.1-1.5,2.4-2.4c1.1-3.5,0.7-6.4,0.6-18.3l-0.7-78L1479.5,543.7z"/>
<polygon class="st96" points="1328.4,499.7 1361.8,606.3 1392.5,622.1 1393.3,535.1 "/>
</svg>
