<?xml version="1.0" encoding="utf-8"?>
<!-- Generator: Adobe Illustrator 15.0.0, SVG Export Plug-In . SVG Version: 6.00 Build 0)  -->
<!DOCTYPE svg PUBLIC "-//W3C//DTD SVG 1.1//EN" "http://www.w3.org/Graphics/SVG/1.1/DTD/svg11.dtd">
<svg version="1.1" id="Layer_1" xmlns="http://www.w3.org/2000/svg" xmlns:xlink="http://www.w3.org/1999/xlink" x="0px" y="0px"
	 width="244.119px" height="244.118px" viewBox="0 0 244.119 244.118" enable-background="new 0 0 244.119 244.118"
	 xml:space="preserve">
<circle fill="#E3E3E2" cx="122.06" cy="122.059" r="122.059"/>
<path fill="#CFCFCF" d="M171.057,10.164C56.223-16.138,6.934,58.304,0.612,129.073C0.314,132.407-6.966,66.21,48.115,25.152
	C109.265-20.43,171.057,10.164,171.057,10.164z"/>
<g>
	<g>
		<path fill="#C6C6C5" d="M225.772,83.64c-5.374-0.163-16.518-0.525-25.718-0.369c-0.872-9.949-3.039-19.766-7.238-28.785
			c0.896,0.015,1.782,0.066,2.648,0.179c0.693-3.807-0.691-22.845-5.538-24.922c-3.324-1.552-9.772,0.729-15.526,2.844
			c-8.702-6.189-19.051-10.246-29.299-11.619c-16.197-2.169-31.323,2.406-44.257,11.801c-5.242-4.998-13.305-7.986-18.829-5.531
			c-10.222,4.229-8.233,16.111-1.357,22.172c-0.249,0.106-0.448,0.326-0.46,0.673c-0.247,7.083-3.814,13.742-6.992,19.906
			c-3.252,6.311-6.874,12.428-9.898,18.854c-1.681-1.143-3.644-2.112-5.898-2.841c-29.595-9.346-19.73,45.691,0,29.595l1.038,2.077
			c2.938-1.011,5.347-2.482,7.24-4.24c0.051,0.046,0.095,0.096,0.167,0.133c8.64,4.382,17.085,9.204,25.729,13.61
			c0.05,3.674,0.307,7.492,0.536,10.371c0.062,0.771,0.114,1.635,0.412,2.938c0.439,1.918,1.334,3.152,1.966,3.697
			c0.557,0.48,0.873,0.852,1.094,1.197c-7.903,4.959-15.758,10.002-23.624,15.014c-4.674,2.98-9.518,6.311-14.603,8.896
			c-6.945-4.08-28.47-7.838-25.659-0.34c-16.96,7.25,3.199,23.668,19.76,22.686c18.712-1.018,17.313-13.637,7.318-21.348
			c4.475-2.367,8.751-5.252,12.925-7.887c8.202-5.176,16.343-10.451,24.555-15.613c0.898,1.906,2.838,3.416,4.335,4.82
			c1.901,1.785,3.904,3.461,5.917,5.121c1.015,0.834,1.968,1.631,2.882,2.414c-2.606,16.91-1.231,34.486-7.919,50.535
			c-3.441-0.25-7.106,0.178-7.106,0.178v-1.037c-18.692,3.115,0,30.113,14.538,25.439c11.941-3.633,6.23-19.209-2.596-23.363
			c-0.79-0.527-1.947-0.852-3.232-1.047c6.382-15.805,5.237-32.9,7.696-49.502c2.232,1.98,4.281,3.986,6.494,6.492
			c5.368,6.082,17.35,6.082,24.647,6.082c0.686,0,1.473-0.094,2.297-0.244c-0.116,0.078-0.222,0.17-0.342,0.244
			c1.148-0.303,2.164-0.719,3.313-0.883c0.637-0.094,1.292-0.246,1.952-0.441c2.991,2.814,6.326,5.256,9.845,7.406
			c0.204,0.123,0.401,0.137,0.575,0.086c-10.644,9.463-9.801,29.154,1.376,38.182c6.75,5.711,24.922,1.557,28.037-8.828
			c6.726-9.557,4.757-24.656-4.248-31.33c0.553-1.764,1.445-3.844,1.938-5.379c1.878-5.852,3.595-11.752,5.167-17.689
			c4.125-15.59,7.128-31.549,8.245-47.65c10.977,0.667,26.984,1.638,26.984-2.893C227.33,92.751,227.719,83.601,225.772,83.64z
			 M130.536,115.712c-2.627-3.794-8.757-10.508-13.427-12.551c-2.043-0.875-11.377-1.448-12.545-0.572
			c-0.515,0.267-0.996,0.528-1.451,0.784c-0.865-0.709-2.154-1.458-3.085-1.148c-1.566,0.427-2.149,3.067-1.364,4.28
			c-2.67,2.487-3.673,5.203-5.884,9.792c-0.875,1.815-1.177,5.296-1.202,9.132c-8.313-4.268-16.455-8.897-24.775-13.124
			c5.919-6.621,5.262-16.488-2.224-22.518c3.254-6.957,7.175-13.583,10.692-20.407c3.043-5.904,6.18-12.343,6.473-19.09
			c3.104,2.292,7.01,3.431,11.176,2.39l-2.596,1.558c3.642,1.324,8.543-0.313,11.892-3.286c9.448,5.426,18.959,10.689,29.333,14.083
			c-2.4,6.917-0.254,17.206,5.263,18.63c-2.55,10.821-5.247,22.189-5.253,33.409C131.217,116.66,130.878,116.214,130.536,115.712z
			 M183.723,175.729c-0.062,0.186-0.134,0.379-0.203,0.568c-4.072-2.506-9.387-3.402-15.834-1.604
			c-2.981,0.828-5.522,2.203-7.641,3.963c0.16-0.328,0.128-0.754-0.273-1c-3.198-1.953-6.229-4.145-8.98-6.65
			c1.021-0.428,2.03-0.963,2.969-1.598c1.017-0.625,1.854-1.352,2.567-2.188c0.853-0.92,1.553-1.939,2.021-3.041
			c1.117-2.637,3.793-6.953,4.638-12.541c0.807-5.338-0.474-8.609-2.371-12.295c0,0-1.334-1.967-2.992-4.359
			c-0.395-0.625-0.816-1.268-1.258-1.92c5.104-1.795,10.297-3.35,15.381-5.219c1.744,7.436,12.561,9.992,16.487-1.201
			c5.677-14.634-10.094-22.649-12.067-8.039l-2.848,0.992c-1.397,2.401-1.914,4.673-1.805,6.679
			c-5.309,1.963-10.737,3.588-16.065,5.479c-0.482-0.67-0.983-1.332-1.505-1.975c-0.556-0.764-1.071-1.457-1.497-2.004
			c-0.659-0.848-2.129-2.051-4.173-3.176c-0.074-0.041-0.147-0.094-0.223-0.135c-0.121-0.061-0.234-0.109-0.354-0.168
			c-1.961-1.012-4.378-1.926-7.083-2.413c0,0.002,0,0.002,0,0.002c-2.793-0.653-5.17-1.168-7.476-3.176
			c-0.271-11.636,2.533-23.424,5.184-34.673c0.019-0.077,0.01-0.144,0.008-0.213c1.039-0.037,2.173-0.356,3.396-1.032l2.077-1.039
			c12.461,2.077,14.019-12.98,4.153-19.73c-8.368-5.706-13.458-3.327-15.813,1.566c-10.188-3.314-19.516-8.463-28.786-13.782
			c1.307-1.462,2.248-3.144,2.543-4.918c0.761-3.804-0.992-7.743-3.971-11.009c10.982-7.96,23.62-12.401,37.441-11.913
			c11.827,0.418,23.251,4.905,33.082,11.333c-2.472,0.902-4.727,1.684-6.407,1.98c-4.5,0.692-9,0-13.5,0.692
			c-0.346,2.423,3.461,15.576,2.423,15.23v2.077c-0.346,2.423-2.077,4.5-3.807,6.23c2.768-0.692,6.576-2.769,8.999-2.423
			c1.038,0,2.77,2.077,4.5,2.077c1.385,0.346,4.153-0.692,5.538-1.039c6.503-0.848,13.932-3.311,20.773-3.619
			c4.305,8.859,6.569,18.845,7.49,28.796c-6.628,0.163-11.942,0.631-12.798,1.7c-1.558,2.596-0.595,17.289-0.774,20.693l7.005,0.195
			c0.433,1.59,0,2.672-1.428,5.268c4.543-1.644,5.971-3.288,5.192-5.019c0.952,0.048,1.995,0.108,3.102,0.174
			C197.345,129.946,191.048,153.586,183.723,175.729z"/>
	</g>
	<g>
		<path fill="#C6C6C5" d="M44.542,152.245c0.673,3.102,1.136,3.342,1.521,8.605c1.91-1.568,2.526-5.965,6.073-10.131
			c1.679-2.068,12.438-2.336,12.406-5.549c0-7.061-2.079-19.141-6.05-19.141c-10.688,0-29.673,3.912-39.413,7.361
			c-0.769,0.338-2.401,0.627-2.564,2.246c-0.495,4.918,1.292,15.412,4.026,17.656c3.023,2.068,12.773,0.021,12.773,0.021
			C37.345,152.625,44.478,150.719,44.542,152.245z"/>
	</g>
</g>
<g>
	<g>
		<path fill="#E8AC37" d="M100.451,98.733c-7.881,4.086-8.426,6.739-11.784,13.707c-1.828,3.795-1.17,14.846-0.661,21.252
			c0.062,0.771,0.114,1.635,0.412,2.938c0.439,1.918,1.334,3.152,1.967,3.697c1.204,1.041,1.308,1.572,1.671,2.42
			c0.855,1.998,2.885,3.555,4.43,5.006c1.901,1.785,3.904,3.461,5.917,5.121c4.112,3.387,7.225,6.107,10.756,10.109
			c5.367,6.082,17.351,6.082,24.648,6.082c2.918,0,7.589-1.65,9.924-2.525c3.502-1.459,5.255-3.604,6.713-6.814
			c3.795-7.297,6.514-16.025,2.182-23.35c-1.748-2.953-6.939-12.736-12.689-15.763c-7.881-4.086-12.551-1.459-17.514-8.756
			c-2.626-3.794-8.756-10.508-13.426-12.551C110.953,98.43,101.619,97.857,100.451,98.733"/>
	</g>
	<g>
		<path fill="#8C4E0D" d="M94.601,102.747c-0.875-1.167-0.292-3.941,1.313-4.378c1.313-0.438,3.356,1.234,3.885,1.926
			c-0.875,1.605-2.864,2.453-4.615,2.598"/>
	</g>
	<path fill="#C5942F" d="M96.981,117.282c0.419,1.096-1.323,3.927-3.277,5.603"/>
	<path fill="#C5942F" d="M115.632,106.501c0.875,2.536-1.491,4.495-2.474,5.073"/>
	<path fill="#C5942F" d="M106.954,149.176c1.984,0.371,4.155,3.631,3.729,5.119"/>
	<path fill="#C5942F" d="M121.429,150.415c0.626-2.852,1.767-5.438,4.923-6.314"/>
	<path fill="#C5942F" d="M108.845,126.694c1.908,2.211,1.96,4.736,1.392,7.371"/>
	<path fill="#C5942F" d="M127.714,163.174c0.05,1.531,1.677,6.096,3.675,5.529"/>
	<g>
		<path fill="#D7A033" d="M156.5,135.489c1.897,3.686,3.178,6.957,2.371,12.295c-0.844,5.588-3.52,9.904-4.638,12.541
			c-1.775,4.188-6.882,7.238-11.16,7.857c-1.147,0.164-2.165,0.58-3.313,0.883c5.686-3.576,6.918-12.424,6.918-23.877
			c0-17.967-10.068-26.828-10.178-27.157c5.935,1.064,10.51,4.194,11.832,5.891C150.877,127.186,156.5,135.489,156.5,135.489z"/>
	</g>
	<path fill="#C5942F" d="M140.805,134.083c0.048-0.225,0,3.137,6.216,2.311"/>
	<path fill="#C5942F" d="M141.898,157.813L141.898,157.813c4.647,1.891,6.659,0.076,9.213-1.129"/>
	<g>
		<path fill="#C5942F" d="M131.136,116.807c-2.334-0.299-4.175-0.17-6.167,1.125"/>
	</g>
	<g>
		<path fill="#C5942F" d="M99.212,140.792c-1.089-0.59-2.381-0.738-3.54-0.959c-0.691-0.141-2.748-0.82-3.267-0.568
			c-0.419,0.254-1.189,2.416-0.734,2.162c0.44-0.246,1.271-0.518,1.631-0.754c0.453-0.326,0.739-0.252,1.281-0.227
			c0.984,0.051,1.97-0.119,2.911,0.137L99.212,140.792z"/>
	</g>
</g>
<g>
	<path fill="#80BEDD" d="M28.488,166.752c-7.075-10.258,20.438-5.129,25.941-0.514c10.219,7.693,11.791,20.514-7.075,21.541
		c-17.294,1.023-38.518-16.926-17.294-23.592"/>
</g>
<g>
	<path fill="#80BEDD" d="M90.259,206c0,0,8.827-1.039,11.942,1.039c8.827,4.154,14.538,19.73,2.596,23.363
		c-14.538,4.674-33.23-22.326-14.538-25.441"/>
</g>
<g>
	<path fill="#80BEDD" d="M184.86,204.586c-3.116,10.385-21.288,14.539-28.038,8.828c-13.499-10.904-11.941-37.385,6.75-42.576
		C185.898,164.608,194.725,190.569,184.86,204.586"/>
</g>
<g>
	<path fill="#80BEDD" d="M53.296,111.74c-19.73,16.096-29.595-38.941,0-29.595c17.653,5.711,17.653,25.96,1.039,31.672"/>
</g>
<g>
	<path fill="#80BEDD" d="M137.611,78.938c-15.057,8.307-16.615-36.345,6.23-20.769c9.865,6.75,8.308,21.807-4.153,19.73"/>
</g>
<g>
	<path fill="#80BEDD" d="M172.052,114.751c1.974-14.611,17.744-6.595,12.067,8.039c-5.169,14.736-22.304,5.65-14.915-7.047"/>
</g>
<g>
	<g>
		<path fill="#6DA2BB" d="M132.373,79.677c-2.757,11.691-5.699,24.031-5.232,36.125c0.056,1.446,2.306,1.452,2.25,0
			c-0.46-11.908,2.436-24.007,5.152-35.526C134.876,78.864,132.706,78.265,132.373,79.677L132.373,79.677z"/>
	</g>
</g>
<g>
	<g>
		<path fill="#6DA2BB" d="M142.852,133.389c8.581-4.135,17.88-6.316,26.73-9.752c1.338-0.52,0.757-2.696-0.598-2.17
			c-9.034,3.508-18.51,5.758-27.268,9.979C140.409,132.075,141.552,134.016,142.852,133.389L142.852,133.389z"/>
	</g>
</g>
<g>
	<g>
		<path fill="#6DA2BB" d="M155.832,173.5c-5.206-3.178-9.968-6.984-13.79-11.766c-0.906-1.133-2.488,0.471-1.592,1.592
			c3.936,4.92,8.89,8.846,14.247,12.117C155.938,176.202,157.068,174.256,155.832,173.5L155.832,173.5z"/>
	</g>
</g>
<g>
	<g>
		<path fill="#6DA2BB" d="M61.566,110.008c12.565,6.373,24.708,13.703,37.666,19.277c1.318,0.566,2.465-1.371,1.136-1.943
			c-12.958-5.574-25.1-12.904-37.666-19.276C61.411,107.411,60.272,109.352,61.566,110.008L61.566,110.008z"/>
	</g>
</g>
<g>
	<g>
		<path fill="#6DA2BB" d="M47.221,170.057c7.443-2.441,14.258-7.234,20.825-11.387c9.081-5.74,18.091-11.605,27.211-17.283
			c1.229-0.764,0.1-2.711-1.136-1.943c-8.785,5.469-17.491,11.088-26.215,16.65c-6.678,4.26-13.7,9.305-21.284,11.793
			C45.251,168.338,45.838,170.51,47.221,170.057L47.221,170.057z"/>
	</g>
</g>
<g>
	<g>
		<path fill="#6DA2BB" d="M98.603,207.75c7.974-18.139,5.425-38.045,9.436-57.037c0.299-1.414-1.87-2.018-2.17-0.598
			c-3.956,18.734-1.352,38.627-9.208,56.5C96.083,207.93,98.021,209.077,98.603,207.75L98.603,207.75z"/>
	</g>
</g>
<g>
	<g>
		<path fill="#6DA2BB" d="M60.181,87.348c3.458-7.639,7.798-14.838,11.605-22.301c2.974-5.828,5.978-12.172,6.202-18.819
			c0.049-1.452-2.201-1.447-2.25,0c-0.245,7.25-4.014,14.095-7.287,20.387c-3.401,6.537-7.172,12.879-10.213,19.598
			C57.645,87.523,59.584,88.668,60.181,87.348L60.181,87.348z"/>
	</g>
</g>
<g>
	<path fill="#80BEDD" d="M88.805,48.823c-14.538,3.635-25.96-19.21-10.904-25.441c9.346-4.153,25.961,7.269,23.884,17.653
		c-1.038,6.23-9.865,11.423-15.576,9.346"/>
</g>
<g>
	<g>
		<path fill="#6DA2BB" d="M97.583,47.199c10.168,5.842,20.386,11.547,31.67,14.943c1.393,0.419,1.983-1.753,0.598-2.17
			c-11.103-3.341-21.131-8.97-31.132-14.715C97.458,44.532,96.326,46.477,97.583,47.199L97.583,47.199z"/>
	</g>
</g>
<g>
	<g>
		<path fill="#6DA2BB" d="M94.5,33.004c11.313-9.303,24.633-14.767,39.378-14.594c12.049,0.142,23.753,4.574,33.806,10.996
			c16.101,10.287,23.511,27.583,25.888,45.969c4.033,31.193-3.746,63.859-13.313,93.414c-0.657,2.029-1.782,4.266-2.009,6.406
			c-0.152,1.441,2.099,1.428,2.25,0c0.136-1.281,1.631-4.883,2.237-6.766c1.775-5.51,3.409-11.064,4.916-16.654
			c4.334-16.08,7.491-32.539,8.684-49.164c1.224-17.059,0.155-34.864-6.663-50.745c-7.33-17.071-22.982-28.264-40.496-33.378
			c-20.068-5.86-40.398-0.126-56.268,12.924C91.787,32.335,93.389,33.917,94.5,33.004L94.5,33.004z"/>
	</g>
</g>
<g>
	<path fill="#1A602B" d="M150.854,49.425c-0.347,2.423-2.077,4.5-3.807,6.23c2.769-0.692,6.575-2.77,8.999-2.423
		c1.038,0,2.769,2.077,4.5,2.077c1.384,0.346,4.154-0.692,5.537-1.039c7.963-1.038,17.309-4.5,25.27-3.461
		c0.691-3.808-0.692-22.845-5.539-24.922c-5.192-2.422-17.998,4.5-23.884,5.539c-4.499,0.692-8.999,0-13.5,0.692
		c-0.345,2.423,3.462,15.576,2.424,15.23"/>
</g>
<g>
	<path fill="#1A602B" d="M180.775,101.84c0.181-3.404-0.783-18.097,0.774-20.693c2.077-2.596,30.438-1.656,40.109-1.363
		c1.947-0.04,1.558,9.111,1.288,19.86c0,5.192-21.019,3.159-31.402,2.64c0.778,1.73-0.649,3.375-5.192,5.019
		c1.428-2.596,1.859-3.678,1.428-5.268L180.775,101.84z"/>
</g>
<g>
	<path fill="#1A602B" d="M39.192,149.051c0.672,3.102,1.136,3.344,1.52,8.605c1.91-1.566,2.526-5.967,6.074-10.131
		c1.679-2.068,12.437-2.336,12.406-5.551c0-7.061-2.079-19.138-6.05-19.138c-10.688,0-29.673,3.913-39.412,7.36
		c-0.769,0.336-2.401,0.627-2.564,2.248c-0.494,4.916,1.292,15.41,4.026,17.654c3.023,2.068,12.773,0.023,12.773,0.023
		C31.995,149.432,39.127,147.526,39.192,149.051z"/>
</g>
<g>
	<g>
		<path fill="#6DA2BB" d="M174.082,162.137c0.683,3.621,3.328,7.387,4.96,10.654c0.214,0.428,0.82,0.672,1.271,0.518
			c4.422-1.518,8.732-3.332,13.153-4.848c1.364-0.469,0.778-2.643-0.598-2.17c-4.422,1.516-8.732,3.33-13.153,4.848
			c0.423,0.172,0.847,0.344,1.271,0.518c-1.546-3.094-4.09-6.699-4.733-10.117C175.983,160.116,173.815,160.719,174.082,162.137
			L174.082,162.137z"/>
	</g>
</g>
</svg>
