<?xml version="1.0" encoding="utf-8"?>
<!-- Generator: Adobe Illustrator 15.0.0, SVG Export Plug-In . SVG Version: 6.00 Build 0)  -->
<!DOCTYPE svg PUBLIC "-//W3C//DTD SVG 1.1//EN" "http://www.w3.org/Graphics/SVG/1.1/DTD/svg11.dtd">
<svg version="1.1" id="Layer_1" xmlns="http://www.w3.org/2000/svg" xmlns:xlink="http://www.w3.org/1999/xlink" x="0px" y="0px"
	 width="244.119px" height="244.118px" viewBox="0 0 244.119 244.118" enable-background="new 0 0 244.119 244.118"
	 xml:space="preserve">
<circle fill="#E3E3E3" cx="122.068" cy="122.059" r="122.059"/>
<path fill="#D0D0D0" d="M170.908,10.164C56.075-16.138,6.786,58.304,0.463,129.071C0.166,132.406-7.114,66.21,47.966,25.152
	C109.116-20.43,170.908,10.164,170.908,10.164z"/>
<g>
	<path fill="#C6C6C6" d="M182.882,156.099c-3.491-0.216-6.846-0.284-10.118-0.301c-0.226-1.05-0.536-2.15-0.942-3.276
		c3.061-0.71,6.141-1.386,9.122-2.457c6.671-2.298,12.917-4.355,19.35-7.079c3.001-1.242,6.836-3.4,6.872-7.123
		c0.067-3.067-0.955-5.05-3.607-5.577c-2.659-0.665-5.613-0.403-8.543,0.373c-1.871,0.386-4.01,1.258-6.189,2.347
		c-1.63,0.787-3.177,1.66-4.595,2.542c-1.91,1.142-3.727,2.311-5.279,3.315c-2.367,1.534-5.311,4.281-7.313,6.26
		c-0.693,0.656-1.367,1.335-2.012,2.044c-0.141,0.146-0.219,0.23-0.25,0.265c-2.47-3.992-5.497-6.32-7.501-5.453l-25.174,10.971
		c-1.077-0.298-2.165-0.625-3.264-0.987c-14.7-5.187-28.938-14.334-42.424-21.552c-14.963-7.534-33.552-3.413-47.213,4.135
		c-2.958-1.029-6.608-2.562-9.431-1.072c-3.417,2.009-2.042,5.062-0.074,7.507c-0.945,0.789-1.837,1.588-2.66,2.392
		c-16.663,16.268-9.634,39.018,5.646,55.994l4.412,3.999c0.1,0.304,0.204,0.612,0.315,0.924c-5.324-0.079-10.525,1.13-15.61,2.227
		c-6.639,1.425-16.833,5.106-20.354,11.771c-1.38,2.324-0.586,4.411,1.742,6.407c2.795,2.46,6.961,1.047,9.891-0.356
		c6.323-2.969,12.025-6.246,18.191-9.677c2.922-1.576,5.596-3.522,8.296-5.41c2.411,4.651,5.221,7.674,6.735,7.018l5.388-2.345
		c2.787,1.532,5.567,2.994,8.192,4.46c27.704,15.474,60.956,24.568,92.607,17.932c12.378-2.595,24.596-7.334,35.577-13.59
		c9.402-5.357,21.118-13.391,23.131-24.911C219.442,178.595,201.318,157.163,182.882,156.099z"/>
</g>
<g>
	<g>
		<path fill="#DBA444" d="M34.897,194.183c-15.279-16.976-26.725-35.01-10.062-51.277c12.367-12.074,31.573-20.847,57.24-16.487
			c15.08,2.561,34.279,15.175,48.979,20.36c17.353,5.713,31.666,3.04,49.447,4.136c18.437,1.063,36.561,22.496,32.91,41.716
			c-3.587,20.531-43.52,36.281-62.418,39.181c-32.589,4.884-59.863-2.311-88.897-18.61c-5.401-3.018-11.457-6.003-16.89-9.675"/>
	</g>
	<g>
		<path fill="#8D4F0D" d="M40.754,130.344c-3.11-0.941-7.376-3.14-10.577-1.45c-4.466,2.626-0.748,7.041,1.782,9.543
			c3.429-1.483,7.055-3.411,9.088-6.575"/>
	</g>
	<g>
		<path fill="#C39D45" d="M37.694,190.982c15.087,13.06,36.202,22.807,54.961,27.281c25.486,6.079,44.722,6.266,64.699,2.729
			c15.403-2.728,42.213-13.894,54.713-25.909c-6.064,18.264-42.749,31.779-56.464,34.083c-19.138,3.216-39.34,2.333-59.731-2.897
			c-13.733-3.332-28.505-10.479-41.125-17.873c-2.707-1.647-23.536-15.76-17.903-16.928"/>
	</g>
	<path fill="#C5943E" d="M41.446,189.418c29.242-11.851,57.988-24.868,86.925-37.435c1.771-0.769,0.242-3.353-1.514-2.591
		c-28.699,12.464-57.207,25.379-86.209,37.133C38.88,187.243,39.652,190.146,41.446,189.418L41.446,189.418z"/>
	<path fill="#C5943E" d="M63.434,208.691c35.017-14.545,69.404-30.529,104.035-45.956c1.764-0.786,0.236-3.371-1.515-2.591
		c-34.394,15.321-68.542,31.208-103.318,45.654C60.876,206.529,61.647,209.433,63.434,208.691L63.434,208.691z"/>
	<g>
		<path fill="#FBE79E" d="M201.177,125.103c-7.312-1.83-16.858,3.3-22.354,7.29c-4.114,2.98-8.375,5.979-11.829,9.856
			c-2.469-3.993-5.497-6.321-7.502-5.454L39.083,189.27c-1.528,0.661-1.235,4.841,0.54,9.836c-5.324-0.078-10.524,1.13-15.61,2.228
			c-6.639,1.424-16.833,5.105-20.354,11.771c-1.38,2.324-0.586,4.41,1.742,6.408c2.795,2.458,6.961,1.046,9.892-0.358
			c6.323-2.969,12.024-6.245,18.191-9.677c2.922-1.575,5.596-3.521,8.295-5.409c2.411,4.65,5.222,7.672,6.736,7.018l120.417-52.441
			c0.001-0.002,0.004-0.002,0.004-0.002c2.312-0.999,2.462-5.883,0.503-11.304c3.061-0.71,6.141-1.387,9.123-2.458
			c6.671-2.297,12.917-4.355,19.35-7.079c3-1.242,6.836-3.401,6.872-7.123C204.851,127.611,203.829,125.629,201.177,125.103z"/>
	</g>
	<path fill="#EAD894" d="M168.168,133.355"/>
	<g>
		<path fill="#EAD894" d="M166.965,142.278c1.091,1.555,0.966,1.295,1.558,2.749c0.974-2.457,4.613-6.868,9.803-10.652
			c4.889-3.566,14.306-8.898,14.306-8.898c-4.875,1.006-11.566,5.292-16.063,8.205C172.593,136.255,166.965,142.278,166.965,142.278
			z"/>
	</g>
</g>
</svg>
