<?xml version="1.0" encoding="utf-8"?>
<!-- Generator: Adobe Illustrator 15.0.0, SVG Export Plug-In . SVG Version: 6.00 Build 0)  -->
<!DOCTYPE svg PUBLIC "-//W3C//DTD SVG 1.1//EN" "http://www.w3.org/Graphics/SVG/1.1/DTD/svg11.dtd">
<svg version="1.1" id="Layer_1" xmlns="http://www.w3.org/2000/svg" xmlns:xlink="http://www.w3.org/1999/xlink" x="0px" y="0px"
	 width="244.349px" height="244.118px" viewBox="0 0 244.349 244.118" enable-background="new 0 0 244.349 244.118"
	 xml:space="preserve">
<circle fill="#E3E3E3" cx="122.29" cy="122.18" r="122.059"/>
<path fill="#D0D0D0" d="M170.917,10.048C56.083-16.254,6.794,58.188,0.472,128.955C0.175,132.29-7.105,66.094,47.976,25.036
	C109.125-20.546,170.917,10.048,170.917,10.048z"/>
<g>
	<g>
		<g>
			<path fill="#777777" d="M76.468,126.275c12.998-5.161,59.675-24.483,72.703-24.284c11.277,0.512,23.656,5.16,34.447,9.006
				c12.932,4.729,24.362,8.177,38.242,14.101c6.048,2.581,13.128,5.065,17.206,10.461c2.264,2.997,1.364,8.72-6.733,15.785
				c-23.246,20.281-48.246,38.638-78.984,61.948c-11.548,8.757-24.124,17.478-38.424,18.229
				c-13.665,0.275-29.685-7.221-40.81-13.883c-15.15-9.076-56.397-35.24-69.493-48.165c-11.365-11.215,7.462-18.755,19.004-23.097
				C32.511,143.033,52.845,135.656,76.468,126.275z"/>
		</g>
		<g>
			<path fill="#5E5D5C" d="M227.151,134.104c8.054,4.141,6.217,8.065-11.764,22.373c-27.626,21.983-41.748,31.552-62.908,46.577
				c-12.633,8.971-28.175,22.478-44.211,19.556c-13.256-2.512-22.13-7.389-34.413-14.097c-8.919-4.869-6.857-3.302-24.678-14.641
				c-8.098-5.153-22.636-14.133-40.098-29.048l140.322-58.086L227.151,134.104z"/>
		</g>
		<g>
			<path fill="#8C8C8B" d="M229.256,134.935c-6.202-3.043-18.047-8.389-25.983-11.385c-13.321-5.028-18.961-7.836-32.711-12.436
				c-7.443-2.489-16.521-5.56-19.303-5.808c-0.032-0.023-1.863-0.28-2.066-0.271c-0.005,0-0.015,0-0.019,0l0,0
				c-5.123,0.245-7.221,1.637-16.376,5.011c-8.413,3.1-10.708,4.269-18.756,7.302c-13.812,5.207-60.913,24.435-71.721,28.351
				c-5.315,1.925-15.213,5.715-20.061,8.097c-4.269,1.838-9.803,3.826-11.195,5.081c-1.272,1.146-2.935,2.842-2.429,4.262
				c0.47,1.314,0.791,1.905,0.791,1.905s6.887-2.43,8.946-3.494c3.42-1.582,115.358-47.26,120.75-49.064
				c2.982-0.998,7.257-3.05,9.916-2.97c2.41,0.423,9.483,1.976,10.959,2.545c17.029,6.573,21.501,7.554,38.329,14.747
				c6.14,2.624,17.064,7.215,22.891,9.646c3.136,1.308,7.71,3.651,9.821,4.51C231.439,141.127,233.814,137.172,229.256,134.935z"/>
		</g>
	</g>
	<g>
		<path fill="#A9BDCA" d="M128.448,98.327c-0.404,2.269-0.665,9.214-0.931,11.151c-0.411,3.018-0.514,7.221-0.606,10.283
			c-0.177,5.875,3.224,9.921,5.302,11.444c4.398,3.223,11.37,3.451,16.097,2.407c2.92-0.645,3.937-0.907,5.906-2.71
			c2.43-2.225,4.403-5.738,4.958-8.975c0.696-4.061-0.15-8.522-0.465-12.603c-0.168-2.166-0.399-4.387-0.871-6.514
			c-0.347-1.559-0.194-2.919-0.853-5.279"/>
	</g>
	<g>
		<g>
			<path fill="#E6BB55" d="M137.208,111.636c-1.117,0.408-1.377,1.947-1.612,2.95c-0.111,0.472-0.628,3.428-1.664,2.935
				c-0.188-0.089-0.337-1.157-0.386-1.366c-0.158-0.665-0.229-1.409-0.545-2.035c-0.937-1.845-2.207-0.325-2.775,0.923
				c-1.374,3.017-2.037,6.498-1.256,9.803c0.377,1.594,0.952,3.255,2.199,4.355c1.338,1.18,3.29,2.022,5.004,2.533
				c3.07,0.916,6.754,1.329,9.933,0.673c1.843-0.38,3.991-1.434,5.559-2.483c1.633-1.094,3.045-2.742,3.96-4.478
				c1.447-2.746,1.012-6.589,0.824-9.557c-0.039-0.635,0.266-1.81-0.683-1.318c-0.582,0.303-0.606,0.953-0.778,1.474
				c-0.424,1.299-0.906,0.312-1.25-0.407c-0.43-0.897-0.901-1.835-2.035-1.138c-1.161,0.713-2,2.701-3.532,2.681
				c-0.349-0.886-0.301-1.96-1.012-2.688c-0.915-0.941-1.485-0.192-2.007,0.764c-0.39,0.715-0.75,1.474-1.003,2.248
				c-0.253,0.776-0.298,1.812-1.041,2.32c-2.314,1.583-2.97-3.669-3.215-4.811c-0.204-0.948-0.955-3.778-2.51-3.427
				C137.325,111.599,137.268,111.615,137.208,111.636z"/>
		</g>
	</g>
	<path fill="#484747" d="M125.296,148.011c0.357-0.829,0.541-1.64,0.427-2.242c-0.829-2.924-4.978-0.572-6.433,0.73
		c-0.806-0.702-1.702-1.582-2.551-2.149c0.691-0.548,2.109-1.767,3.101-2.741c0.151-0.146,0.364-1.845-0.222-2.528
		c-1.394-1.629-5.407,1.208-6.463,2.196c-0.534-0.174-1.073-0.79-1.345-1.32c0.978-0.975,2.032-1.738,3.13-3.141
		c0,0,0.25-2.9-1.773-3.355c-1.957-0.336-4.871,1.381-6.372,2.373c-0.943-1.191-4.246-3.897-6.332-3.828
		c-2.117,0.07-3.042,1.627-2.824,3.008c0.202,1.267,1.437,2.306,2.086,3.575c-1.236,0.633-3.156,1.909-4.436,2.676
		c-3.04-3.157-6.619-1.918-6.333,0.122c0.075,0.533,1.275,2.063,1.986,2.671c-2.692,1.492-6.515,4-6.88,7.422
		c-0.274,3.044,3.296,1.688,6.385-0.233c5.325-3.309,6.182-0.136,6.182-0.136c0.223,0.412,0.272,0.87-0.01,1.327
		c-0.76,1.228-4.598,3.761-4.948,4.845c-0.392,0.759-0.842,2.908-0.347,3.658c0.772,1.724,2.185,0.998,3.867,0.36
		c1.698-0.619,2.683-1.434,3.966-2.27c3.156-2.056,3.408-0.587,3.408-0.587c0.288,0.467,0.765,1.521,0.653,1.757
		c-0.334,0.712-2.862,2.47-3.293,3.807c-0.343,1.068,0.211,3.462,0.622,4.479c0.297,1.001,3.232-1.293,5.38-3.277
		c2.035-1.88,3.08-0.369,3.08-0.369c1.604,1.355,3.76,2.839,5.289,1.733c1.409-1.169,2.162-4.472-0.29-6.88
		c0.409-1.272,1.389-1.831,2.276-2.769l0.287-0.053c1.369,0.812,4.82,3.389,6.184,2.69c2.65-1.358,0.734-6.401-0.389-7.945
		C123.37,151.175,124.631,149.56,125.296,148.011z"/>
	<g>
		<g>
			<path fill="#D7963F" d="M104.16,135.41c1.476-1.027,4.349-2.813,6.314-2.525c2.032,0.406,1.854,3.31,1.854,3.31
				c-1.065,1.43-2.101,2.22-3.054,3.217c0.284,0.523,0.837,1.126,1.375,1.286c1.032-1.012,4.977-3.947,6.407-2.351
				c0.601,0.668,0.432,2.371,0.283,2.523c-0.969,0.997-2.356,2.249-3.034,2.812c0.863,0.549,1.781,1.406,2.603,2.089
				c1.423-1.337,5.515-3.788,6.414-0.886c0.129,0.599-0.037,1.413-0.373,2.25c-0.627,1.565-1.848,3.209-2.847,3.678
				c1.162,1.517,3.198,6.513,0.581,7.934c-1.395,0.759-5.132-1.958-6.398-2.626c-0.896,1.053-1.944,1.621-2.342,2.967
				c2.51,2.35,1.837,5.671,0.456,6.873c-2.078,1.581-5.48-1.769-6.897-2.92c-1.526,2.186-6.382,6.455-6.8,5.163
				c-0.435-1.007-1.05-3.387-0.729-4.463c0.398-1.346,2.883-3.164,3.201-3.885c0.127-0.289-0.638-1.765-0.852-1.947
				c-1.091-0.928-1.976,0.076-3.236,0.875c-1.349,0.732-2.229,1.706-3.912,2.365c-1.665,0.68-3.059,1.438-3.875-0.267
				c-0.513-0.737-0.115-2.898,0.258-3.666c0.324-1.092,4.1-3.716,4.83-4.963c0.889-1.519-1.755-2.968-2.557-2.762
				c-2.754,0.709-10.311,6.562-10.019,2.107c0.281-3.43,4.042-6.03,6.699-7.585c-0.727-0.591-1.962-2.092-2.052-2.624
				c-0.336-2.033,3.212-3.356,6.328-0.274c1.261-0.798,3.15-2.12,4.371-2.783c-0.68-1.253-1.939-2.262-2.171-3.525
				c-0.252-1.375,0.635-2.953,2.75-3.074C99.821,131.617,103.188,134.243,104.16,135.41"/>
		</g>
		<g>
			<g>
				<path fill="#DDB459" d="M120.536,153.011c-1.091-1.235-2.274-2.372-3.553-3.568c1.133-1.01,2.25-2.053,3.511-3.367
					c1.154-1.203,2.487-2.466-0.352-1.271c-0.617,0.26-2.487,1.669-4.571,3.324c-1.678-1.574-3.361-3.093-5.048-4.607
					c1.214-0.974,2.416-1.989,3.778-3.266c1.278-1.2,2.748-2.455-0.272-1.372c-0.664,0.237-2.727,1.632-5.023,3.267
					c-1.452-1.301-3.053-2.707-4.635-4.104c1.445-0.895,2.866-1.819,4.511-3.033c1.41-1.041,3.015-2.115-0.112-1.394
					c-0.744,0.172-3.284,1.5-6.006,3.002c-1.201-1.067-2.359-2.106-3.38-3.055c-0.721-0.627-1.193-1.36-2.331-0.758
					c-0.067,0.155,1.838,2.099,4.357,4.566c-1.652,0.923-3.275,1.854-4.518,2.574c-0.85,0.492-2.931,1.8-4.771,2.973
					c-0.561-0.507-1.11-1.006-1.617-1.478c-0.719-0.627-1.192-1.36-2.33-0.758c-0.052,0.121,1.082,1.316,2.765,2.992
					c-0.73,0.468-1.35,0.871-1.729,1.121c-1.71,1.203-5.293,3.948-5.293,3.948c-1.164,0.985-2.285,2.715-0.116,1.638
					c1.401-0.696,5.985-3.756,7.091-4.375c0.555-0.31,1.058-0.59,1.54-0.857c1.712,1.678,3.721,3.608,5.59,5.385
					c-0.891,0.732-1.671,1.379-2.105,1.747c-1.555,1.396-4.791,4.542-4.791,4.542c-1.039,1.116-1.949,2.966,0.078,1.642
					c1.309-0.856,5.5-4.434,6.527-5.179c0.671-0.484,1.255-0.91,1.814-1.312c1.973,1.86,3.619,3.389,4.325,4.006
					c0.316,0.287,0.729,0.667,1.195,1.094c-0.629,0.576-1.167,1.073-1.489,1.377c-1.408,1.403-4.319,4.548-4.319,4.548
					c-0.929,1.109-1.685,2.899,0.181,1.536c1.206-0.882,5.006-4.488,5.949-5.249c0.396-0.318,0.764-0.615,1.113-0.897
					c2.185,2.003,4.71,4.303,5.076,4.478c0.884,0.36,1.092-0.839,0.079-1.987c-1.127-1.274-2.351-2.446-3.679-3.686
					c1.737-1.407,3.097-2.546,5.177-4.401c0.864-0.772,1.652-1.454,2.41-2.113c2.14,1.961,4.536,4.137,4.891,4.309
					C121.341,155.357,121.549,154.158,120.536,153.011z M93.775,144.405c2.127-1.193,3.755-2.136,6.307-3.729
					c1.045-0.652,1.987-1.223,2.896-1.775c1.479,1.431,3.057,2.942,4.521,4.329c-1.648,1.193-3.291,2.411-4.525,3.337
					c-0.658,0.496-2.11,1.659-3.556,2.834C97.612,147.792,95.639,146.063,93.775,144.405z M110.001,152.673
					c-0.647,0.54-2.121,1.857-3.531,3.133c-1.684-1.574-3.373-3.099-5.061-4.618c-0.111-0.1-0.231-0.208-0.345-0.31
					c1.669-1.222,3.083-2.295,5.164-3.964c1.021-0.817,1.936-1.531,2.82-2.222c1.691,1.588,3.071,2.866,3.703,3.417
					c0.346,0.315,0.805,0.736,1.325,1.215C112.589,150.526,111.113,151.743,110.001,152.673z"/>
			</g>
		</g>
		<polygon fill="#BE8436" points="95.1,145.312 94.659,144.594 103.071,139.431 106.731,143.146 106.132,143.737 102.941,140.5 		
			"/>
		<polygon fill="#BE8436" points="102.274,151.467 101.75,150.808 109.04,145.02 113.809,149.467 113.234,150.081 108.995,146.13 		
			"/>
		<polygon fill="#BE8436" points="109.224,157.676 108.673,157.039 115.583,151.047 119.865,154.819 119.309,155.45 115.58,152.166 
					"/>
		<polygon fill="#BE8436" points="83.988,151.778 83.546,151.061 92.395,145.591 97.643,150.486 97.068,151.104 92.292,146.646 		
			"/>
		<polygon fill="#BE8436" points="91.219,159.847 90.705,159.178 99.686,152.281 104.96,157.198 104.386,157.815 99.634,153.383 		
			"/>
		<polygon fill="#BE8436" points="99.779,165.773 99.232,165.133 106.526,158.9 111.776,163.397 111.229,164.038 106.525,160.009 		
			"/>
		
			<rect x="107.264" y="133.089" transform="matrix(-0.5729 -0.8196 0.8196 -0.5729 57.4755 302.9978)" fill="#BE8436" width="0.843" height="6.869"/>
		
			<rect x="113.072" y="138.228" transform="matrix(-0.6697 -0.7427 0.7427 -0.6697 84.4057 320.5569)" fill="#BE8436" width="0.843" height="6.558"/>
		
			<rect x="119.333" y="144.217" transform="matrix(-0.6713 -0.7412 0.7412 -0.6713 90.8156 335.2703)" fill="#BE8436" width="0.845" height="6.559"/>
		
			<rect x="96.021" y="135.027" transform="matrix(-0.7046 -0.7096 0.7096 -0.7046 72.6222 301.1291)" fill="#BE8436" width="5.939" height="0.842"/>
		
			<rect x="87.014" y="142.07" transform="matrix(-0.7044 -0.7098 0.7098 -0.7044 50.6112 306.0585)" fill="#BE8436" width="4.033" height="0.842"/>
	</g>
	<g>
		<path fill="#FAB43C" d="M80.311,201.775c-0.245,0.531-0.527,1.163-0.141,1.777c0.783,1.241,20.937,11.241,23.271,10.161
			c2.806-1.404,7.602-7.775,9.593-10.615c0.688-0.982,0.319-1.513,0.156-1.78c-6.562-10.761-10.961-19.027-17.184-30.565
			c-0.057-0.105-0.36-0.346-0.663-0.131c-2.756,1.952-7.315,5.18-7.315,5.18C85.706,186.417,80.311,201.775,80.311,201.775z"/>
	</g>
	<path fill="#EAA93A" d="M88.532,180.825c3.667,8.436,8.503,16.321,11.854,24.898c0.614,1.572,2.914,0.302,2.306-1.256
		c-3.351-8.578-8.187-16.463-11.854-24.9C90.164,178.016,87.862,179.28,88.532,180.825L88.532,180.825z"/>
	
		<ellipse transform="matrix(-0.0057 -1 1 -0.0057 -123.3733 228.9977)" fill="#484747" cx="52.161" cy="175.834" rx="6.075" ry="16.648"/>
	<g>
		<path fill="#E6BB55" d="M49.245,145.795c-2.975,0.066-11.843,1.647-14.605,5.89c-1.934,3.062-2.677,5.703-2.54,7.951
			c-0.176,5.267-0.409,12.364,2.888,16.138c3.812,4.048,9.781,4.003,14.845,4.471c4.274,0.396,14.624-1.02,17.83-4.856
			c2.702-2.756,2.822-11.237,2.749-15.154C70.761,151.669,61.905,145.508,49.245,145.795z"/>
	</g>
	<g>
		<path fill="#BB9A46" d="M42.064,151.739c-14.057,6.971,12.416,12.444,19.419,6.671c4.082-3.604,1.438-6.768-3.844-7.953
			C47.594,148.203,42.064,151.739,42.064,151.739z"/>
	</g>
	<g>
		<path fill="#98AEBC" d="M147.322,92.665c3.604,0.117,13.496,3.369,7.276,6.973c-3.438,2.215-33.009,4.001-24.51-3.511
			C133.792,92.854,139.383,92.407,147.322,92.665z"/>
		<path fill="#B2C1CB" d="M147.312,92.993c2.617,0.186,5.233,0.991,7.486,2.334c3.585,2.137-0.818,4.372-2.86,4.827
			c-3.941,0.877-8.09,1.051-12.116,1.078c-2.778,0.018-8.96,0.462-10.796-2.195c-1.638-2.369,5.431-4.982,6.52-5.297
			C139.289,92.659,143.46,92.89,147.312,92.993c0.422,0.012,0.443-0.645,0.02-0.657c-4.492-0.119-9.799-0.452-14.026,1.447
			c-1.563,0.701-5.01,2.35-5.061,4.541c-0.094,3.878,8.524,3.518,10.773,3.56c4.998,0.092,12.23,0.374,16.589-2.523
			c5.494-3.652-6.132-6.871-8.275-7.024C146.909,92.306,146.89,92.963,147.312,92.993z"/>
	</g>
	<g opacity="0.5">
		<path fill="#FFFFFF" d="M157.501,108.194c-2.374,3.534-4.234,8.036-7.442,11.537c-3.282,3.579-5.34,4.901-8.284,6.757
			c-2.592,1.592-4.382,1.818-7.981,2.667l-1.82,0.121l-0.519,0.027c-0.019,2.076,8.682,3.313,9.777,3.38
			c4.991,0.298,11.465-1.633,13.812-5.646c2.462-4.212,2.33-8.698,2.393-14.237C157.453,111.42,157.472,111.457,157.501,108.194z"/>
	</g>
	<g>
		<g>
			<path fill="#AC7932" d="M136.188,192.454c-1.847-0.081-3.687-0.307-5.497-0.7c-2.058-0.446-4.016-1.417-5.123-3.271
				c-0.393-0.658-0.761-1.342-1.054-2.049c-1.156-2.779,0.244-6.486,2.367-8.536c2.147-2.07,5.151-3.141,8.015-3.739
				c5.284-1.108,12.707-1.23,17.244,2.212c2.979,2.26,6.648,10.896,1.577,12.934c-2.683,1.079-5.723,1.927-8.572,2.466
				C142.21,192.325,139.189,192.582,136.188,192.454z"/>
		</g>
		<g>
			<path fill="#CD8F3B" d="M125.176,184.55c-2.155-1.372-0.452-3.292,0.775-4.882c2.084-2.724,5.279-4.118,8.569-4.922
				c4.465-1.109,10.774-1.796,16.358,1.114c1.693,0.881,3.812,3.659,3.733,5.644c-0.135,3.385-4.812,4.019-7.391,4.501
				c-3.986,0.779-8.175,1.189-12.139,1.039C126.951,186.74,125.176,184.55,125.176,184.55z"/>
		</g>
	</g>
	<g>
		<g>
			<path fill="#AC7932" d="M139.109,183.879c-1.834,0.237-3.686,0.328-5.534,0.25c-2.104-0.09-4.198-0.712-5.605-2.35
				c-0.499-0.581-0.978-1.192-1.389-1.84c-1.612-2.541-0.867-6.431,0.879-8.814c1.762-2.406,4.538-3.972,7.259-5.052
				c5.016-1.992,12.31-3.378,17.369-0.76c3.321,1.717,8.409,9.602,3.758,12.476c-2.46,1.519-5.311,2.875-8.025,3.892
				C145.021,182.726,142.087,183.495,139.109,183.879z"/>
		</g>
		<g>
			<path fill="#CD8F3B" d="M126.911,177.969c-2.358-0.984-1.007-3.167-0.068-4.942c1.589-3.039,4.5-4.957,7.604-6.312
				c4.21-1.855,10.31-3.607,16.309-1.692c1.817,0.581,4.377,2.957,4.639,4.924c0.446,3.359-4.055,4.782-6.514,5.696
				c-3.795,1.446-7.852,2.564-11.784,3.094C129.032,179.826,126.911,177.969,126.911,177.969z"/>
		</g>
	</g>
	<g>
		<g>
			<path fill="#AC7932" d="M139.748,174.234c-1.748,0.016-3.497-0.105-5.225-0.389c-1.964-0.321-3.861-1.14-4.998-2.836
				c-0.404-0.601-0.785-1.23-1.097-1.883c-1.228-2.567-0.09-6.136,1.815-8.175c1.925-2.061,4.708-3.22,7.383-3.928
				c4.934-1.307,11.937-1.788,16.393,1.238c2.924,1.986,6.816,9.96,2.127,12.135c-2.479,1.15-5.309,2.103-7.972,2.752
				C145.428,173.815,142.589,174.207,139.748,174.234z"/>
		</g>
		<g>
			<path fill="#CD8F3B" d="M128.959,167.314c-2.102-1.189-0.588-3.086,0.491-4.648c1.834-2.674,4.783-4.148,7.849-5.072
				c4.16-1.267,10.083-2.227,15.5,0.245c1.642,0.749,3.78,3.269,3.803,5.146c0.04,3.202-4.346,4.033-6.756,4.616
				c-3.726,0.932-7.66,1.526-11.411,1.581C130.743,169.296,128.959,167.314,128.959,167.314z"/>
		</g>
	</g>
	<path fill="#E3E3E2" d="M62.624,189.052c-2.688-1.355-5.063-3.236-7.741-4.611c-0.391-0.2-1.05-0.005-1.005,0.537
		c0.065,0.774,0.289,1.393,0.611,2.101c0.351,0.771,1.501,0.14,1.153-0.628c-0.019-0.037-0.029-0.076-0.047-0.114
		c2.127,1.249,4.126,2.715,6.333,3.828C62.678,190.545,63.379,189.435,62.624,189.052z"/>
	<g>
		<g>
			<path fill="#E3E3E2" d="M65.168,188.019c0.846,0.025,0.885-1.287,0.04-1.312C64.362,186.681,64.323,187.993,65.168,188.019
				L65.168,188.019z"/>
		</g>
	</g>
	<path fill="#E3E3E2" d="M89.981,165.173c-0.779,0.667-1.71,1.12-2.604,1.625c-0.19-1.434-0.431-2.952-1.144-4.176
		c-1.244-2.136-2.7,0.635-3.11,1.757c-0.291,0.798,0.967,1.179,1.255,0.388c0.14-0.38,0.28-0.749,0.463-1.111
		c0.071-0.136,0.154-0.265,0.245-0.387c0.29,0.352,0.405,0.95,0.517,1.353c0.305,1.114,0.464,2.269,0.62,3.411
		c0.054,0.402,0.62,0.642,0.954,0.421c1.217-0.812,2.588-1.368,3.705-2.326C91.526,165.577,90.623,164.623,89.981,165.173z"/>
	<g>
		<g>
			<path fill="#E3E3E2" d="M93.08,164.926c0.846,0.026,0.885-1.287,0.04-1.312C92.274,163.589,92.234,164.901,93.08,164.926
				L93.08,164.926z"/>
		</g>
	</g>
	<path fill="#E3E3E2" d="M133.226,136.561c-0.25-1.72-1.689-2.061-3.045-1.737c0.122-1.021-0.052-2.105-1.114-2.477
		c-1.374-0.48-2.487,0.659-3.004,1.805c-0.347,0.772,0.913,1.147,1.255,0.387c0.195-0.435,0.669-1.103,1.237-0.982
		c0.769,0.163,0.221,1.741,0.088,2.132c-0.184,0.543,0.449,1.054,0.943,0.769c0.896-0.512,2.251-0.917,2.381,0.522
		c0.09,1.004-0.461,1.984-1.507,2.099c-0.839,0.092-0.52,1.367,0.311,1.276C132.606,140.154,133.468,138.22,133.226,136.561z"/>
	<g>
		<g>
			<path fill="#E3E3E2" d="M135.648,137.315c0.846,0.025,0.885-1.287,0.04-1.312C134.842,135.978,134.803,137.29,135.648,137.315
				L135.648,137.315z"/>
		</g>
	</g>
	<path fill="#E3E3E2" d="M116.698,190.784c-0.734-0.771-1.51-1.522-2.315-2.244c0.39-0.424,0.748-0.88,1.066-1.375
		c0.459-0.714-0.656-1.409-1.113-0.697c-0.283,0.441-0.603,0.841-0.95,1.216c-0.805-0.666-1.636-1.297-2.51-1.847
		c-0.719-0.452-1.412,0.663-0.697,1.113c0.779,0.492,1.519,1.051,2.238,1.638c-0.695,0.567-1.465,1.046-2.285,1.446
		c-0.055-0.83-0.154-1.657-0.15-2.49c0.002-0.845-1.31-0.887-1.312-0.04c-0.004,1.173,0.196,2.334,0.186,3.508
		c-0.005,0.538,0.517,0.781,0.971,0.597c1.317-0.538,2.543-1.254,3.607-2.162c0.802,0.717,1.574,1.467,2.308,2.237
		C116.327,192.299,117.283,191.399,116.698,190.784z"/>
	<g>
		<g>
			<path fill="#E3E3E2" d="M119.46,190.237c0.846,0.025,0.886-1.286,0.04-1.312C118.654,188.9,118.614,190.212,119.46,190.237
				L119.46,190.237z"/>
		</g>
	</g>
	<path fill="#E3E3E2" d="M166.109,168.931c-0.303-0.705-0.925-1.413-1.848-1.489c-0.978-0.083-1.752,0.46-2.362,1.082
		c-0.42-0.395-0.824-0.806-1.119-1.276c-0.038-0.06-0.087-0.1-0.134-0.141c0.638-0.911,1.356-1.765,2.265-2.422
		c0.675-0.489,0.058-1.649-0.628-1.154c-1.354,0.98-2.36,2.246-3.264,3.64c-0.373,0.573,0.276,1.122,0.784,0.949
		c0.465,0.631,1.065,1.183,1.652,1.728c0.318,0.295,0.825,0.22,1.08-0.089c0.836-1.014,1.925-1.668,2.408-0.112
		c0.289,0.932,0.114,2.413-1.129,2.721c-0.843,0.208-0.521,1.37,0.33,1.159C166.345,172.98,166.832,170.612,166.109,168.931z"/>
	<g>
		<g>
			<path fill="#E3E3E2" d="M168.046,171.181c0.846,0.025,0.885-1.287,0.04-1.312S167.2,171.155,168.046,171.181L168.046,171.181z"/>
		</g>
	</g>
	<path fill="#E3E3E2" d="M217.946,142.02c-1.834-0.96-3.09,0.968-3.746,2.573c-1.141-1.136-1.643-2.891,0.186-3.827
		c0.753-0.386,0.126-1.539-0.628-1.153c-2.974,1.521-1.926,4.835,0.155,6.442c0.097,0.164,0.267,0.269,0.454,0.309
		c1.341,0.818,2.983,0.925,4.268-0.47C219.699,144.74,219.327,142.745,217.946,142.02z M217.726,144.944
		c-0.561,0.869-1.534,0.875-2.438,0.434c0.327-1.002,0.962-2.543,1.999-2.222C218.013,143.381,218.065,144.417,217.726,144.944z"/>
	<g>
		<g>
			<path fill="#E3E3E2" d="M221.855,143.415c0.846,0.025,0.885-1.287,0.04-1.312C221.048,142.078,221.009,143.39,221.855,143.415
				L221.855,143.415z"/>
		</g>
	</g>
	<g>
		<g>
			<path fill="#BEA862" d="M198.434,134.111c-5.476-4.769-11.818-8.298-19.144-8.981c-5.342-0.497-15.596,2.326-16.965,8.46
				c-0.602,2.694-0.275,6.189,1.564,8.203c2.139,2.344,4.877,2.773,7.926,2.775c2.387,0,7.364-2.733,7.771,1.15
				c0.044-1.458,0.088-2.916,0.132-4.374c-0.68,2.828-3.482,4.266-5.119,6.496c-0.229,0.312-0.373,4.186-0.132,4.374
				c2.251,1.761,12.509-2.489,12.928-0.125c0.044-1.457,0.088-2.915,0.132-4.374c-0.229,2.06-2.197,3.931-3.407,5.465
				c-1.038,1.315-0.864,2.625-0.908,4.216c-0.038,1.38-0.445,2.462,1.34,2.089c1.195-0.25,6.845-3.812,6.853-0.838
				c0.045-1.432,0.09-2.863,0.135-4.296c-0.33,1.268-0.976,2.277-1.698,3.36c-0.216,0.324-0.13,4.374-0.132,4.374
				c3.169,0.522,6.674-1.984,9.195-3.583c3.07-1.946,6.859-4.325,7.663-8.104C208.107,143.165,203.505,138.565,198.434,134.111
				c0.678,0.596-0.848,3.745-0.132,4.373c3.157,2.774,8.374,6.556,8.27,11.274c0.043-1.244,0.085-2.487,0.129-3.732
				c-0.758,3.563-3.993,5.583-6.812,7.536c-2.627,1.822-6.645,4.709-10.048,4.148c-0.044,1.459-0.088,2.917-0.132,4.374
				c1.738-2.604,1.794-4.426,1.833-7.435c0.058-4.435-8.187,2.204-8.223,0.056c-0.044,1.432-0.089,2.863-0.135,4.295
				c1.053-2.485,4.094-4.347,4.23-7.21c0.057-1.22,0.596-3.496-0.077-4.586c-1.39-2.251-10.023,2.761-12.741,0.636
				c-0.044,1.458-0.088,2.915-0.132,4.374c1.487-2.026,4.946-3.834,5.126-6.573c0.093-1.386,0.269-2.913,0.124-4.296
				c-0.402-3.839-6.433-1.15-8.951-1.151c-3.852-0.001-8.239-2.383-8.441-6.604c-0.044,1.458-0.088,2.916-0.132,4.374
				c1.314-5.886,10.582-8.358,15.662-8.503c7.623-0.219,14.913,4.203,20.447,9.023C197.625,137.894,199.15,134.733,198.434,134.111z
				"/>
		</g>
	</g>
	<g>
		<path fill="#DFC371" d="M198.421,134.548c-8.312-7.474-20.42-12.436-30.678-6.178c-2.902,1.883-6.017,4.332-5.048,7.728
			c0.299,1.049,1.265,1.844,2.189,2.424c1.403,2.006,5.261,2.284,8.183,2.047c2.412-0.146,5.54-2.241,6.554,0.416
			c0.796,2.651-3.882,5.355-5.035,7.291c3.188,3.161,19.019-6.432,10.379,4.253c-3.406,4.056-1.206,3.685,2.572,1.829
			c4.658-2.048,5.037-0.067,2.293,3.79c3.473,0.98,13.815-5.96,15.585-8.724C208.656,144.364,202.259,137.946,198.421,134.548z"/>
	</g>
</g>
</svg>
