<?xml version="1.0" encoding="utf-8"?>
<!-- Generator: Adobe Illustrator 15.0.0, SVG Export Plug-In . SVG Version: 6.00 Build 0)  -->
<!DOCTYPE svg PUBLIC "-//W3C//DTD SVG 1.1//EN" "http://www.w3.org/Graphics/SVG/1.1/DTD/svg11.dtd">
<svg version="1.1" id="Layer_1" xmlns="http://www.w3.org/2000/svg" xmlns:xlink="http://www.w3.org/1999/xlink" x="0px" y="0px"
	 width="244.349px" height="244.118px" viewBox="0 0 244.349 244.118" enable-background="new 0 0 244.349 244.118"
	 xml:space="preserve">
<circle fill="#E3E3E3" cx="122.29" cy="122.18" r="122.059"/>
<path fill="#D0D0D0" d="M170.917,10.048C56.083-16.254,6.794,58.188,0.472,128.955C0.175,132.29-7.105,66.094,47.976,25.036
	C109.125-20.546,170.917,10.048,170.917,10.048z"/>
<g>
	<ellipse fill="#333332" cx="122.578" cy="169.11" rx="107.935" ry="47.051"/>
	<ellipse fill="#3C3C3B" cx="122.578" cy="164.901" rx="86.58" ry="36.004"/>
	<g>
		<path fill="#FFE095" d="M108.161,131.657c6.28-1.046,6.605,0.089,13.563,0.539c9.474,0.43,18.946,0,28.635,0.646
			c10.55,0.646,23.897,3.445,33.586,8.182c4.521,2.153,10.979,4.521,13.779,8.827c2.799,4.09,8.827,9.473,9.257,14.855
			c0.861,7.536-7.319,9.904-11.841,13.564c-4.736,3.445-7.966,9.688-13.994,11.411c-5.598,1.292-10.119,3.445-15.932,3.875
			c-6.89,0.646-14.641,1.076-21.1,3.014c-6.674,2.153-12.917,2.368-19.807,2.799c-3.66,0.216-7.104,1.292-10.55,1.077
			c-3.875-0.215-7.32-1.938-10.98-2.583c-10.334-2.153-20.668-2.583-30.571-6.89c-10.55-4.521-23.898-10.334-28.419-21.745
			c-2.799-7.105-2.369-11.626,3.659-16.147c5.383-4.09,10.119-8.396,15.933-11.411c5.598-3.014,11.841-5.167,18.3-6.028
			c7.104-1.076,14.425-3.444,21.529-3.444L108.161,131.657z"/>
	</g>
	<g>
		<path fill="#F7A93C" d="M96.032,133.428c14.911-5.725,30.312-10.741,37.632-9.207c7.423,1.386,24.263,6.928,25.34,11.03
			c0.796,3.035,2.376,29.995-0.608,32.843c-7.393,7.059-28.889,23.202-39.182,21.724c-10.365-1.409-27.072-12.697-28.717-17.115
			c-1.412-3.795-1.581-21.085-1.412-26.827C89.356,136.661,96.032,133.428,96.032,133.428z"/>
	</g>
	<g>
		<path fill="#EED18C" d="M45.647,169.083c6.315,5.167,11.77,8.899,18.945,12.917c6.028,3.158,12.345,4.88,18.66,7.464
			c6.314,2.583,12.343,3.157,18.945,4.306c6.315,1.148,11.77,4.306,18.372,2.871c12.057-2.297,22.965-6.315,35.309-7.464
			c5.741-0.287,12.057,0,17.511-1.148c5.454-1.148,11.77-5.741,15.788-9.473c0.575,12.057-25.261,12.631-33.299,13.205
			c-14.065,0.861-28.132,7.464-42.198,6.603c-11.482-0.575-24.687-4.019-35.596-7.75c-13.204-4.88-25.261-9.187-33.586-20.956l0,0
			l0,0c0.574,0,0.861,0.287,1.148,0.574"/>
	</g>
	<g>
		<g>
			<path fill="#FFDC65" d="M194.355,177.807c1.104-2.7,5.143-3.951,7.474-5.296c2.295-1.325,4.352-3.182,4.349-6.011
				c-0.002-1.935-3.002-1.935-3,0c0.002,2.686-4.01,4.058-5.967,5.105c-2.417,1.292-4.68,2.787-5.749,5.404
				C190.73,178.8,193.633,179.572,194.355,177.807L194.355,177.807z"/>
		</g>
	</g>
	<g>
		<path fill="#1E6B31" d="M79.275,171.072c-0.431,0.431-0.718,1.148-1.005,1.579c1.148,0,2.152-0.287,3.158-0.287
			c-0.432-0.431-1.148-0.861-1.867-1.005"/>
	</g>
	<g>
		<path fill="#1E6B31" d="M86.643,180.932c-0.574,0.431-1.004,1.004-1.436,1.578c1.148,0,2.297,0.144,3.445,0.431l0,0
			c-0.287-0.574-0.718-1.292-1.005-1.866l0,0c-0.287,0-0.431-0.143-0.718-0.143"/>
	</g>
	<g>
		<path fill="#00542A" d="M72.701,158.323c-0.359,0.143-0.573,0.287-0.789,0.574l0,0c0.574,0.071,1.148,0.144,1.65,0.43l0,0
			c-0.144-0.359-0.358-0.717-0.573-1.076"/>
	</g>
	<g>
		<path fill="#1B602B" d="M80.227,179.449c-0.574,0.575-1.865,0.287-2.439-0.717c0.144,0,1.291-0.718,1.436-0.718h0.144
			c0.286,0.575,1.147,1.004,1.292,1.148"/>
	</g>
	<g>
		<path fill="#1E6B31" d="M72.487,151.142c0-0.287,0.145-0.574,0.431-0.861c0.431,0.144,1.148,0.718,1.436,1.148
			c-0.431,0.144-1.005,0.144-1.579,0.144"/>
	</g>
	<g>
		<path fill="#2A6C35" d="M78.327,155.257c-0.101-0.27-0.066-0.589,0.103-0.958c0.454-0.016,1.327,0.272,1.746,0.576
			c-0.354,0.284-0.892,0.484-1.431,0.685"/>
	</g>
	<g>
		<path fill="#207436" d="M60.879,172.752c0-0.135,0.067-0.27,0.203-0.405c0.202,0.067,0.54,0.337,0.675,0.54
			c-0.202,0.067-0.473,0.067-0.743,0.067"/>
	</g>
	<g>
		<path fill="#207436" d="M69.286,153.7c0-0.135,0.068-0.27,0.203-0.405c0.203,0.067,0.54,0.338,0.676,0.541
			c-0.203,0.067-0.473,0.067-0.744,0.067"/>
	</g>
	<g>
		<path fill="#207436" d="M74.353,163.137c0-0.135,0.067-0.27,0.203-0.405c0.202,0.067,0.54,0.337,0.675,0.54
			c-0.202,0.067-0.473,0.067-0.743,0.067"/>
	</g>
	<g>
		<path fill="#047F37" d="M86.052,149.574c0-0.135,0.067-0.27,0.203-0.405c0.202,0.067,0.54,0.338,0.675,0.541
			c-0.202,0.067-0.473,0.067-0.743,0.067"/>
	</g>
	<g>
		<path fill="#207C3A" d="M180.743,172.358c0-0.135,0.066-0.27,0.202-0.405c0.203,0.067,0.54,0.337,0.676,0.54
			c-0.203,0.067-0.473,0.067-0.743,0.067"/>
	</g>
	<g>
		<path fill="#1E6B31" d="M67.42,170.642c-0.144-0.431-0.144-0.861-0.287-1.148c0.718,0.287,1.436,0.574,2.152,1.004
			c-0.43,0.287-0.86,0.431-1.291,0.574"/>
	</g>
	<g>
		<path fill="#00542A" d="M163.532,155.208c-0.372,0.107-0.6,0.229-0.842,0.495l0,0c0.565,0.126,1.13,0.253,1.602,0.586l0,0
			c-0.108-0.371-0.287-0.748-0.468-1.126"/>
	</g>
	<g>
		<path fill="#1E6B31" d="M179.104,151.484c0.027-0.286,0.198-0.557,0.512-0.816c0.414,0.184,1.073,0.825,1.318,1.281
			c-0.442,0.102-1.015,0.046-1.586-0.009"/>
	</g>
	<g>
		<path fill="#2A6C35" d="M184.521,156.142c-0.074-0.277-0.009-0.591,0.194-0.943c0.453,0.028,1.294,0.399,1.683,0.741
			c-0.38,0.25-0.935,0.397-1.49,0.544"/>
	</g>
	<g>
		<path fill="#047F37" d="M192.757,151.229c0.013-0.134,0.093-0.262,0.241-0.383c0.195,0.086,0.504,0.388,0.619,0.603
			c-0.207,0.047-0.477,0.021-0.746-0.005"/>
	</g>
	<g>
		<path fill="#1E6B31" d="M165.823,151.503c-0.101-0.443-0.06-0.872-0.176-1.171c0.688,0.355,1.375,0.709,2.047,1.207
			c-0.456,0.245-0.898,0.346-1.341,0.447"/>
	</g>
	<g>
		<path fill="#1E6B31" d="M191.91,156.617c-0.101-0.443-0.06-0.872-0.176-1.171c0.688,0.355,1.374,0.709,2.048,1.207
			c-0.457,0.245-0.899,0.346-1.342,0.447"/>
	</g>
	<g>
		<path fill="#1E6B31" d="M166.227,178.23c-0.373-0.259-0.631-0.604-0.919-0.747c0.747-0.201,1.493-0.402,2.325-0.488
			c-0.172,0.488-0.432,0.861-0.689,1.234"/>
	</g>
	<g>
		<path fill="#1E6B31" d="M179.774,175.135c-0.372-0.259-0.631-0.604-0.918-0.747c0.747-0.201,1.492-0.401,2.325-0.487
			c-0.173,0.488-0.432,0.861-0.689,1.234"/>
	</g>
	<g>
		<path fill="#1E6B31" d="M74.353,144.826c-0.144-0.287-0.287-0.431-0.287-0.717c0.574,0.143,1.005,0.287,1.436,0.574l0,0
			c-0.287,0-0.575,0.287-0.861,0.431"/>
	</g>
	<g>
		<path fill="#007136" d="M61.236,151.427c-8.837-1.557-14.747,8.229-23.116,8.993c6.022,0.277,13.765,0.634,19.553-0.25
			c6.088-1.156,8.959-7.346,14.239-9.689c-3.948-1.619-8.901-0.123-12.983,1.126"/>
	</g>
	<g>
		<path fill="#1A602B" d="M59.425,144.97c-4.593,0-9.187,1.723-12.917,4.593c-6.029,4.306-1.723,4.306,3.444,3.158
			c4.019-0.861,7.751-0.288,11.769-0.575c5.742-0.287,5.742-1.435,8.899-5.167c-3.732-0.861-8.611,1.148-10.908-1.435"/>
	</g>
	<g>
		<path fill="#1F7134" d="M62.338,142.022c4.795-0.785,11.082,0.938,10.678,2.236c-0.517,1.656-6.014,2.333-7.591,2.171
			c-1.578-0.162-2.931-0.72-4.591-0.459c-1.969,0.346-4.045,1.987-5.962,1.319c1.85-1.978,4.575-3.2,6.593-5.291L62.338,142.022z"/>
	</g>
	<g>
		<path fill="#EC9738" d="M92.006,146.621c0-0.431,0.431-1.938,0.861-2.799c1.292,0.646,5.813,2.799,6.244,4.09
			c0.861,2.583-1.938,3.014-4.091,2.368c-0.216,4.521-3.015-0.861-2.799-3.229"/>
	</g>
	<g>
		<path fill="#EC9738" d="M95.667,173.963c-1.507-0.861-2.799-1.938-3.875-3.229c5.167,1.507,10.334,5.598,15.286,8.181
			c2.368,1.077,6.028,2.153,7.535,4.091c-4.306,0.43-8.182-2.799-12.057-4.306c-2.799-1.292-6.028-2.153-8.612-4.091"/>
	</g>
	<g>
		<g>
			<path fill="#F7A93C" d="M126.884,152.642c1.935,0,1.935-3,0-3S124.95,152.642,126.884,152.642L126.884,152.642z"/>
		</g>
	</g>
	<g>
		<path fill="#EC9738" d="M147.984,138.008c3.229-2.799,5.812-3.229,0.646-5.598c0.861,1.292,0.861,3.014-0.215,4.091l0,0
			C148.844,135.64,147.337,138.654,147.984,138.008"/>
	</g>
	<g>
		<path fill="#EC9738" d="M139.963,143.297c2.225-0.494,2.019-3.186,2.854-5.163c-3.894-0.494-5.84,4.449-8.343,6.426
			C136.42,145.054,137.668,144.32,139.963,143.297"/>
	</g>
	<g>
		<path fill="#EC9738" d="M110.901,141.474c0,5.27,6.404,3.865,9.796,5.972c-0.377-3.513-4.145-5.62-7.159-6.674"/>
	</g>
	<g>
		<path fill="#EC9738" d="M116.12,153.079c1.938,0,4.091,0.215,6.244,0.646c-2.584,0.861-6.244,1.723-5.383,4.952
			c0.215-1.292,0.431-2.584,0.431-3.875c-1.292,0-2.153-0.431-2.583-1.507"/>
	</g>
	<g>
		<path fill="#EC9738" d="M100.833,159.107c2.153,0.861,5.813,0.861,7.966,2.153c-3.229,2.799-9.258,0-11.625-2.368
			c1.291-0.646,3.014-0.646,4.521-0.646"/>
	</g>
	<g>
		<path fill="#EC9738" d="M113.537,172.025c1.507,1.077,3.659,2.153,5.382,3.229v0.216c-3.875,1.292-11.626-1.077-14.425-4.306
			c1.938-0.431,10.55,0,11.195,0.861"/>
	</g>
	<g>
		<path fill="#FFFFFF" d="M117.792,115.22c-1.823,7.036-9.322,10.069-11.663,16.479c-2.763,7.811,6.6,12.452,12.887,13.051
			c13.404,1.565,33.952-8.3,19.691-22.059c-2.898-2.871-5.511-5.715-9.035-8.069c-3.238-2.327-4.967-5.376-8.179-7.988
			c-2.244,2.381-3.77,6.273-3.837,10.016"/>
	</g>
	<g>
		<path fill="#F0F0F0" d="M122.866,144.896c2.01,0,7.75-0.213,10.621-1.648c3.445-1.723,8.837-5.552,9.742-9.273
			c1.74-7.161-5.578-12.759-16.345-21.823c0,0-0.326,3.296,0,4.328c2.858,9.036,0,19.879-3.444,27.917L122.866,144.896z"/>
	</g>
	<g>
		<path fill="#333332" d="M62.075,24.645c9.352,6.229,21.259,16.449,27.703,18.884c2.26,0.854,4.952,1.146,7.293,1.6
			c4.854,0.94,12.907,2.548,13.482,8.441c0.864,8.87-11.152,7.631-16.116,5.783c-4.785-1.78-5.394-3.194-8.04-8.178
			c-3.09-5.817-6.811-9.113-11.484-12.213c-6.881-4.562-15.35-9.93-21.82-15.07c-7.342-5.83-17.063-11.855-22.488-18.307
			C29.29,3.991,32.1,1.313,34.593,3.224L62.075,24.645z"/>
	</g>
	<g>
		<path fill="#FFFFFF" d="M121.049,110.779c-1.571-10.117-2.732-21.075-6.227-30.749c-0.244-0.678-6.598-18.781-9.597-19.764
			c-3.624-1.187-17.44-4.967-14.736-11.401c1.208-2.873,7.503-2.94,9.853-2.322c12.272,3.234,15.894,22.653,18.17,33.049
			c1.068,5.961,2.499,11.605,3.544,17.281c0.666,3.401,0.945,6.835,1.418,10.253c0.163,2.003,0.893,8.567-1.413,4.147
			c-0.262-0.842-0.502-1.399-0.571-2.258"/>
	</g>
	<g>
		<path fill="#207C3A" d="M85.174,160.7c0-0.135,0.067-0.27,0.203-0.405c0.202,0.067,0.539,0.338,0.675,0.541
			c-0.202,0.067-0.473,0.067-0.743,0.067"/>
	</g>
	<g>
		<path fill="#F0A43A" d="M121.202,154.789c0.068-0.802,0.152-1.601,0.231-2.415c0.203-2.096,0.398-3.323,2.08-4.783
			c1.42-1.233,2.82-1.881,4.602-2.341c3.437-0.889,5.978-2.32,9.187-3.691c2.679-1.144,5.145-3.102,6.629-5.661
			c0.846-1.458,0.945-3.558,0.347-5.117c-0.39-1.017-2.275-2.828-0.914-3.629c0.768-0.452,2.499,0.228,3.237,0.472
			c2.313,0.764,4.426,2.007,6.579,3.123c1.512,0.783,3.169,1.498,4.216,2.906c2.243,3.019,2.447,8.341,2.458,11.976
			c0.01,3.056-0.218,6.125,0.104,9.173c0.397,4.289,1.391,10.979-2.385,14.582c-2.186,1.887-5.168,3.259-7.552,4.976
			c-2.782,2.229-5.566,4.804-8.547,6.861c-3.975,2.402-9.315,5.807-14.057,7.279c-4.552,1.414-4.877-7.455-5.054-10.887
			c-0.34-6.594-1.312-13.24-1.312-19.738C121.051,156.82,121.114,155.803,121.202,154.789z"/>
	</g>
	<g>
		<path fill="#EC9738" d="M128.176,156.309c-0.431-3.014,3.229-6.244,5.598-7.32c0.216,2.583-1.076,7.104-3.444,8.612
			c-1.292,1.077-3.229,1.077-1.723-1.507"/>
	</g>
	<g>
		<path fill="#EB9338" d="M139.372,161.906c3.015-0.646,4.736-4.521,8.182-3.229c-1.076,1.938-3.875,6.243-6.674,6.458
			c-3.015,0.215-1.508-1.292-0.216-3.229"/>
	</g>
	<g>
		<path fill="#EC9738" d="M145.904,169.322c-4.521,4.306-7.966,8.612-13.563,11.626c0-1.077,0.431-2.368,1.292-3.229"/>
	</g>
	<g>
		<path fill="#EC9738" d="M149.06,150.926c2.368,0.215,7.104-1.938,7.535-4.736c-3.229-0.215-8.181,1.292-10.55,3.66
			c1.508,1.076,3.445,1.507,5.168,1.076"/>
	</g>
	<g>
		<g>
			<path fill="#EC9738" d="M152.512,158.461c-0.19,2.472,0.146,5.319-0.872,7.639c-0.56,1.276,0.65,2.915,2.052,2.053
				c1.8-1.106,3.494-2.548,3.658-4.798c0.154-2.103-0.57-4.096-0.169-6.217c0.355-1.882-2.324-2.668-2.893-0.798
				c-0.215,0.708-0.365,1.433-0.528,2.153c-0.097,0.429-0.199,0.856-0.306,1.283c-0.112,0.451-0.613,1.144-0.085,0.863
				c0.385-0.051,0.771-0.101,1.156-0.151c-0.038-0.009-0.076-0.019-0.114-0.028c-1.878-0.469-2.674,2.425-0.798,2.893
				c2.848,0.71,3.054-4.525,3.568-6.214c-0.964-0.266-1.928-0.532-2.893-0.798c-0.344,1.82-0.256,3.512-0.003,5.334
				c0.275,1.979-0.405,2.842-2.106,3.888c0.684,0.684,1.368,1.368,2.052,2.053c1.271-2.898,1.043-6.064,1.281-9.154
				C155.661,156.531,152.66,156.545,152.512,158.461L152.512,158.461z"/>
		</g>
	</g>
	<g>
		<path fill="#D58633" d="M159.084,139.569c0.139,2.154,0.038,4.498,0.116,6.276c0.077,2.509,0.155,4.915,0.155,7.425
			c0,4.497-0.194,8.681-0.504,13.073c-0.504-3.87-0.35-9.518-0.311-13.7c0.039-2.615,0.077-5.334,0.077-7.949
			c0-2.092-0.231-4.183-0.154-6.17c0.154,0,0.514-1.964,0.591-1.65L159.084,139.569z"/>
	</g>
</g>
</svg>
