<?xml version="1.0" encoding="utf-8"?>
<!-- Generator: Adobe Illustrator 19.1.0, SVG Export Plug-In . SVG Version: 6.00 Build 0)  -->
<svg version="1.1" xmlns="http://www.w3.org/2000/svg" xmlns:xlink="http://www.w3.org/1999/xlink" x="0px" y="0px"
	 viewBox="-180 276.8 249.3 276.3" style="enable-background:new -180 276.8 249.3 276.3;" xml:space="preserve">
<style type="text/css">
	.st0{fill:none;stroke:#D7A133;stroke-miterlimit:10;}
	.st1{fill:none;stroke:#D6A033;stroke-miterlimit:10;}
	.st2{fill:none;stroke:#C6942F;stroke-miterlimit:10;}
	.st3{fill:none;stroke:#8D4F0D;stroke-miterlimit:10;}
	.st4{fill:none;stroke:#F3C13A;stroke-miterlimit:10;}
	.st5{fill:none;stroke:#CC4C4C;stroke-miterlimit:10;}
	.st6{fill:none;stroke:#D6A52D;stroke-miterlimit:10;}
	.st7{fill:none;stroke:#C99731;stroke-miterlimit:10;}
</style>
<g id="cut">
	<g>
		<g>
			<path class="st0" d="M-145.1,342.4c1.2,1.3,2.1,2.9,2.4,4.7c0.4,1.8,0,3.9-0.9,5.6c-0.9,1.7-2.3,3-3.7,4c-1.5,1-3,1.7-4.7,2.2"/>
		</g>
		<path class="st0" d="M-83.2,305.7c3,8.6-5.1,15.3-8.4,17.3"/>
		<path class="st0" d="M-112.7,450.9c6.7,1.3,14.1,12.4,12.7,17.4"/>
		<g>
			<path class="st0" d="M-63.5,455.1c-0.1-2.5,0.2-4.9,0.9-7.3c0.6-2.4,1.7-4.8,3.1-6.9c1.4-2.1,3.4-4,5.6-5.2c2.2-1.3,4.7-2,7.2-2"
				/>
		</g>
		<g>
			<path class="st0" d="M-106.3,374.4c2.4,0.8,4.5,2.3,6.3,4.2c1.7,1.9,3.1,4.3,3.6,7c0.5,2.6,0.2,5.4-0.7,7.8
				c-1,2.4-2.5,4.5-4.4,6.1"/>
		</g>
		<path class="st0" d="M-42.1,498.5c0.2,5.2,5.7,20.7,12.5,18.8"/>
		<path class="st1" d="M-8.1,397.3c0.2-0.8-0.3,6.4,14,6.3"/>
		<path class="st1" d="M-3.3,458.9L-3.3,458.9c13.8,0.1,14.9-7.3,18.4-13.7"/>
		<path class="st2" d="M63,435.6L63,435.6c-2.3-12.8-7.1-15-13.4-18.6"/>
		<path class="st2" d="M32.5,489.5L32.5,489.5c-5.3,8.3-4.8,12.4-4.4,18"/>
		<g>
			<path class="st0" d="M-30.4,340.8c-7.9-1-14.2-0.6-21,3.8"/>
		</g>
		<g>
			<path class="st0" d="M-139,422.3c-3.7-2-8.1-2.5-12-3.3c-2.4-0.5-9.3-2.8-11.1-1.9c-1.4,0.9-4,8.2-2.5,7.4"/>
		</g>
	</g>
	<g>
		<path class="st3" d="M-154.7,292.9c-3-4-1-13.4,4.5-14.9c4.5-1.5,11.4,4.2,13.2,6.5C-140,290.1-148.3,294.1-154.7,292.9"/>
	</g>
</g>
<g id="outline">
	<g>
		<path class="st4" d="M-134.8,279.3c-26.8,13.9-28.7,22.9-40.1,46.6c-6.2,12.9-4,50.5-2.2,72.3c0.2,2.6,0.4,5.6,1.4,10
			c1.5,6.5,4.5,10.7,6.7,12.6c4.1,3.5,4.4,5.3,5.7,8.2c2.9,6.8,9.8,12.1,15.1,17c6.5,6.1,13.3,11.8,20.1,17.4
			c14,11.5,24.6,20.8,36.6,34.4c18.3,20.7,59,20.7,83.8,20.7c9.9,0,25.8-5.6,33.8-8.6c11.9-5,17.9-12.3,22.8-23.2
			c12.9-24.8,22.2-54.5,7.4-79.4c-5.9-10-23.6-43.3-43.2-53.6c-26.8-13.9-42.7-5-59.6-29.8c-8.9-12.9-29.8-35.7-45.7-42.7
			C-99.1,278.3-130.8,276.3-134.8,279.3"/>
	</g>
</g>
<g id="shadow">
	<ellipse class="st5" cx="-25" cy="540.6" rx="82.4" ry="12.5"/>
</g>
<g id="dots">
	<g>
		<path class="st6" d="M-52.5,451.1c0.2,0.2,0.3,0.3,0.5,0.5"/>
		<path class="st6" d="M-149,431.1c-0.1,0.1,0.3,0.1,0.2,0"/>
		<path class="st6" d="M-143.2,430.9c0,0.2,0.4,0.2,0.4,0"/>
		<path class="st6" d="M-115.5,381.9C-115.3,381.9-115.3,381.9-115.5,381.9"/>
		<path class="st6" d="M-110.2,388.6c0-0.1,0-0.2,0-0.2"/>
		<path class="st6" d="M-108,382.6c0,0.1,0,0.2,0,0.2"/>
		<line class="st6" x1="-111" y1="399.4" x2="-111" y2="399.4"/>
		<path class="st6" d="M-104.2,392.6c0.3,0.1,0.6-0.2,0.5-0.5"/>
		<path class="st6" d="M-2.2,394.1c-0.1-0.3,0-0.7,0.2-1"/>
		<path class="st6" d="M49,435.6c0.2-0.3,0.3-0.7,0.5-1"/>
		<path class="st6" d="M-107.5,311.1c0-0.2,0-0.3,0-0.5"/>
		<path class="st6" d="M-98.9,298.2c-0.2,0.3,0.5,0.3,0.4,0"/>
		<path class="st6" d="M-99.5,313.6c0.2,0.2,0.3,0.3,0.5,0.5"/>
		<path class="st6" d="M-93.5,305.6c-0.2-0.2-0.3-0.3-0.5-0.5"/>
		<path class="st6" d="M-119.5,304.7c-0.4-0.1-0.9,0.1-1,0.4"/>
		<path class="st6" d="M-118.5,294.1c0.2,0,0.3,0,0.5,0"/>
		<path class="st6" d="M-120.9,355.1c0,0.2,0.5,0.2,0.4,0"/>
		<path class="st6" d="M-166.5,362.6c0.6,0.3,1.5-0.3,1.5-1"/>
		<path class="st7" d="M-79,466.6c0.2,0,0.3,0,0.5,0"/>
		<path class="st7" d="M-76.5,487.1C-76.5,487.5-76.5,487.5-76.5,487.1"/>
		<path class="st7" d="M-64,496.1c0-0.2,0-0.3,0-0.5"/>
		<path class="st7" d="M-18,506.6c0.3,0,0.7,0,1,0"/>
		<path class="st7" d="M21.2,507.1c0-0.7,0.1-1.3,0.1-2"/>
		<path class="st7" d="M25.5,494.1c-0.2,0.2-0.3,0.3-0.5,0.5"/>
		<path class="st7" d="M58,446.6c-0.3,0.7-0.7,1.3-1,2"/>
		<path class="st7" d="M43,476.6c0.2,0,0.3,0,0.5,0"/>
		<path class="st7" d="M34,458.1c0,0.2,0,0.3,0,0.5"/>
		<path class="st7" d="M22.4,375.7c0.3,0.3,0.7,0.7,1,1"/>
		<path class="st7" d="M33.5,460.1c-0.3-0.5-0.7-1-1-1.5"/>
		<path class="st7" d="M49.5,468.1c0.3-0.2,0.7-0.3,1-0.5"/>
		<path class="st7" d="M-125.5,462.6c0.2-0.2,0.3-0.3,0.5-0.5"/>
		<path class="st7" d="M-25,413.4c0.1,0,0.2,0,0.2,0"/>
		<path class="st7" d="M-10,425.4c-0.1,0-0.2,0-0.2,0"/>
		<path class="st7" d="M-26.8,384.9c0,0.1-0.2,0.1-0.2,0"/>
		<path class="st7" d="M-45.3,360.1c0,0.2,0.3,0.3,0.5,0.2"/>
		<path class="st7" d="M-59.5,370.1c0.1,0,0.2,0,0.2,0"/>
		<path class="st7" d="M-65.2,384.4c-0.2,0,0.1,0.4,0.2,0.2"/>
		<path class="st7" d="M-67.2,359.4c0.2,0,0.5,0,0.8,0"/>
		<path class="st7" d="M42.3,407.8c0.1,0,0.2,0,0.3,0"/>
		<path class="st7" d="M29.3,397.8c0.1-0.1,0.2-0.2,0.3-0.3"/>
		<path class="st7" d="M56.3,414.4c0.1,0,0.2,0,0.3,0"/>
		<path class="st7" d="M33.6,418.8c0,0.2,0,0.4,0,0.7"/>
		<path class="st7" d="M43.1,453.8c0,0.2,0.3,0.2,0.3,0"/>
		<path class="st7" d="M-102.4,428.4c0.1,0.4,0.8,0,0.6-0.3"/>
		<path class="st7" d="M-143.3,392.1c-0.1-0.2-0.2-0.4-0.3-0.7"/>
		<path class="st7" d="M-163,380.4c0.2,0.3,0.4,0.7,0.7,1"/>
		<path class="st7" d="M-160,401.4c0-0.2,0-0.4,0-0.7"/>
		<path class="st7" d="M-165.7,400.4c0.3-0.1,0.4-0.4,0.3-0.7"/>
		<path class="st7" d="M-160.7,419.4c0-0.1,0-0.2,0-0.3"/>
		<path class="st7" d="M-148,352.8c0.1,0.1,0.2,0.2,0.3,0.3"/>
		<path class="st6" d="M-151.7,346.8c0.2,0.3,0.8,0.3,1,0"/>
		<path class="st7" d="M-36.7,344.8c0.1,0,0.2,0,0.3,0"/>
	</g>
</g>
</svg>
