<?xml version="1.0" encoding="utf-8"?>
<!-- Generator: Adobe Illustrator 19.2.0, SVG Export Plug-In . SVG Version: 6.00 Build 0)  -->
<svg version="1.1" id="Layer_1" xmlns="http://www.w3.org/2000/svg" xmlns:xlink="http://www.w3.org/1999/xlink" x="0px" y="0px"
	 viewBox="0 0 249.3 276.3" style="enable-background:new 0 0 249.3 276.3;" xml:space="preserve">
<style type="text/css">
	.st0{fill:#F3C13A;}
	.st1{fill:#EAB83D;}
	.st2{fill:#8D4F0D;}
	.st3{fill:#D7A133;}
	.st4{fill:#D6A033;}
	.st5{fill:#C6942F;}
	.st6{fill:#8069A8;}
	.st7{fill:none;stroke:#D6A52D;stroke-miterlimit:10;}
	.st8{fill:none;stroke:#C99731;stroke-width:2;stroke-miterlimit:10;}
</style>
<g>
	<path class="st0" d="M48.9,2.5C22.1,16.4,20.2,25.4,8.8,49.1c-6.2,12.9-4,50.5-2.2,72.3C6.8,124,7,127,8,131.4
		c1.5,6.5,4.5,10.7,6.7,12.6c4.1,3.5,4.4,5.3,5.7,8.2c2.9,6.8,9.8,12.1,15.1,17c6.5,6.1,13.3,11.8,20.1,17.4
		c14,11.5,24.6,20.8,36.6,34.4c18.3,20.7,59,20.7,83.8,20.7c9.9,0,25.8-5.6,33.8-8.6c11.9-5,17.9-12.3,22.8-23.2
		c12.9-24.8,22.2-54.5,7.4-79.4c-5.9-10-23.6-43.3-43.2-53.6c-26.8-13.9-42.7-5-59.6-29.8c-8.9-12.9-29.8-35.7-45.7-42.7
		C84.6,1.5,52.9-0.5,48.9,2.5"/>
</g>
<path class="st1" d="M235.2,122.7c-0.8,14.2-7.4,28.2-16.2,39.4c-9.1,11.5-21.6,18.7-34,25.7c-14.6,8.3-33.8,12.8-50.5,13.4
	c-12.9,0.5-25.4-3.7-37.4-8.4C77,185,54.5,175.3,19.3,149.5c3,7.3,10.5,15.5,16.2,19.7c10.5,7.7,22.5,22,32.3,30.6
	c14,12.2,18,17.8,32.9,28.5c6.5,4.7,19.6,10,31.1,10.9c8.6,0.6,24.3,2.4,33,2.5c14.8,0.2,20,0.1,36.7-5.4
	c7.4-2.4,14.3-6.2,20.6-10.8c4.2-3.1,11-16.3,13.3-20.9c6.7-13.8,11.2-22.9,12-39.8C248.1,148,246,135.6,235.2,122.7z"/>
<g>
	<path class="st2" d="M29,15.1c-3-4-1-13.4,4.5-14.9C38-1.3,44.9,4.4,46.7,6.7c-3,5.5-9.7,8.3-15.7,8.8"/>
</g>
<g>
	<path class="st3" d="M38.6,65.6c1.2,1.3,2.1,2.9,2.4,4.7c0.4,1.8,0,3.9-0.9,5.6s-2.3,3-3.7,4c-1.5,1-3,1.7-4.7,2.2
		c1-1.5,2.1-2.7,3.2-3.9c1-1.2,2-2.4,2.7-3.7c0.7-1.2,1.1-2.5,1.2-4C38.8,69,38.7,67.3,38.6,65.6z"/>
</g>
<path class="st3" d="M100.5,28.9c3,8.6-5.1,15.3-8.4,17.3"/>
<path class="st3" d="M71,174.1c6.7,1.3,14.1,12.4,12.7,17.4"/>
<g>
	<path class="st3" d="M120.2,178.3c-0.1-2.5,0.2-4.9,0.9-7.3c0.6-2.4,1.7-4.8,3.1-6.9c1.4-2.1,3.4-4,5.6-5.2c2.2-1.3,4.7-2,7.2-2
		c-2.1,1.2-4.1,2.5-5.8,4c-1.7,1.5-3.2,3.2-4.5,5c-1.3,1.9-2.4,3.9-3.4,6C122.3,173.9,121.4,176.1,120.2,178.3z"/>
</g>
<g>
	<path class="st3" d="M77.4,97.6c2.4,0.8,4.5,2.3,6.3,4.2c1.7,1.9,3.1,4.3,3.6,7c0.5,2.6,0.2,5.4-0.7,7.8c-1,2.4-2.5,4.5-4.4,6.1
		c0.9-2.3,1.7-4.5,2.2-6.8c0.4-2.2,0.5-4.4,0-6.6c-0.4-2.1-1.3-4.2-2.5-6.1C80.6,101.2,79.1,99.4,77.4,97.6z"/>
</g>
<path class="st3" d="M141.6,221.7c0.2,5.2,5.7,20.7,12.5,18.8"/>
<path class="st4" d="M175.6,119.5c0.2-0.8-0.3,6.4,14,6.3"/>
<path class="st4" d="M180.4,181.1L180.4,181.1c13.8,0.1,14.9-7.3,18.4-13.7"/>
<path class="st5" d="M246.7,157.8L246.7,157.8c-2.3-12.8-7.1-15-13.4-18.6"/>
<path class="st5" d="M216.2,211.7L216.2,211.7c-5.3,8.3-4.8,12.4-4.4,18"/>
<g>
	<path class="st3" d="M153.3,64c-7.9-1-14.2-0.6-21,3.8"/>
</g>
<g>
	<path class="st3" d="M44.7,145.5c-3.7-2-8.1-2.5-12-3.3c-2.4-0.5-9.3-2.8-11.1-1.9c-1.4,0.9-4,8.2-2.5,7.4c1.5-0.8,4.3-1.8,5.5-2.6
		c1.5-1.1,2.5-0.9,4.4-0.8c3.3,0.2,6.7-0.4,9.9,0.5L44.7,145.5z"/>
</g>
<ellipse class="st6" cx="158.7" cy="263.8" rx="82.4" ry="12.5"/>
<path class="st7" d="M131.2,174.3c0.2,0.2,0.3,0.3,0.5,0.5"/>
<path class="st7" d="M34.7,154.3c-0.1,0.1,0.3,0.1,0.2,0"/>
<path class="st7" d="M40.5,154.1c0,0.2,0.4,0.2,0.4,0"/>
<path class="st7" d="M68.2,105.1C68.4,105.1,68.4,105.1,68.2,105.1"/>
<path class="st7" d="M73.5,111.8c0-0.1,0-0.2,0-0.2"/>
<path class="st7" d="M75.7,105.8c0,0.1,0,0.2,0,0.2"/>
<line class="st7" x1="72.7" y1="122.6" x2="72.7" y2="122.6"/>
<path class="st7" d="M79.5,115.8c0.3,0.1,0.6-0.2,0.5-0.5"/>
<path class="st7" d="M181.5,116.3c-0.1-0.3,0-0.7,0.2-1"/>
<path class="st7" d="M232.7,157.8c0.2-0.3,0.3-0.7,0.5-1"/>
<path class="st7" d="M76.2,34.3c0-0.2,0-0.3,0-0.5"/>
<path class="st7" d="M84.8,21.4c-0.2,0.3,0.5,0.3,0.4,0"/>
<path class="st7" d="M84.2,36.8c0.2,0.2,0.3,0.3,0.5,0.5"/>
<path class="st7" d="M90.2,28.8c-0.2-0.2-0.3-0.3-0.5-0.5"/>
<path class="st7" d="M64.2,27.9c-0.4-0.1-0.9,0.1-1,0.4"/>
<path class="st7" d="M65.2,16.3c0.2,0,0.3,0,0.5,0"/>
<path class="st7" d="M62.8,78.3c0,0.2,0.5,0.2,0.4,0"/>
<path class="st7" d="M17.2,85.8c0.6,0.3,1.5-0.3,1.5-1"/>
<path class="st8" d="M104.7,189.8c0.2,0,0.3,0,0.5,0"/>
<path class="st8" d="M107.2,210.3C107.2,210.7,107.2,210.7,107.2,210.3"/>
<path class="st8" d="M119.7,219.3c0-0.2,0-0.3,0-0.5"/>
<path class="st8" d="M165.7,228.8c0.3,0,0.7,0,1,0"/>
<path class="st8" d="M204.9,229.3c0-0.7,0.1-1.3,0.1-2"/>
<path class="st8" d="M209.2,216.3c-0.2,0.2-0.3,0.3-0.5,0.5"/>
<path class="st8" d="M241.7,168.8c-0.3,0.7-0.7,1.3-1,2"/>
<path class="st8" d="M226.7,198.8c0.2,0,0.3,0,0.5,0"/>
<path class="st8" d="M217.7,180.3c0,0.2,0,0.3,0,0.5"/>
<path class="st8" d="M206.1,97.9c0.3,0.3,0.7,0.7,1,1"/>
<path class="st8" d="M217.2,182.3c-0.3-0.5-0.7-1-1-1.5"/>
<path class="st8" d="M233.2,190.3c0.3-0.2,0.7-0.3,1-0.5"/>
<path class="st8" d="M58.2,185.8c0.2-0.2,0.3-0.3,0.5-0.5"/>
<path class="st8" d="M158.7,135.6c0.1,0,0.2,0,0.2,0"/>
<path class="st8" d="M173.7,147.6c-0.1,0-0.2,0-0.2,0"/>
<path class="st8" d="M156.9,107.1c0,0.1-0.2,0.1-0.2,0"/>
<path class="st8" d="M138.4,83.3c0,0.2,0.3,0.3,0.5,0.2"/>
<path class="st8" d="M124.2,93.3c0.1,0,0.2,0,0.2,0"/>
<path class="st8" d="M118.5,107.6c-0.2,0,0.1,0.4,0.2,0.2"/>
<path class="st8" d="M116.5,82.6c0.2,0,0.5,0,0.8,0"/>
<path class="st8" d="M226,130c0.1,0,0.2,0,0.3,0"/>
<path class="st8" d="M213,120c0.1-0.1,0.2-0.2,0.3-0.3"/>
<path class="st8" d="M240,136.6c0.1,0,0.2,0,0.3,0"/>
<path class="st8" d="M217.3,141c0,0.2,0,0.4,0,0.7"/>
<path class="st8" d="M226.8,176c0,0.2,0.3,0.2,0.3,0"/>
<path class="st8" d="M81.3,151.6c0.1,0.4,0.8,0,0.6-0.3"/>
<path class="st8" d="M40.4,115.3c-0.1-0.2-0.2-0.4-0.3-0.7"/>
<path class="st8" d="M20.7,103.6c0.2,0.3,0.4,0.7,0.7,1"/>
<path class="st8" d="M23.7,124.6c0-0.2,0-0.4,0-0.7"/>
<path class="st8" d="M18,123.6c0.3-0.1,0.4-0.4,0.3-0.7"/>
<path class="st8" d="M23,142.6c0-0.1,0-0.2,0-0.3"/>
<path class="st8" d="M35.7,76c0.1,0.1,0.2,0.2,0.3,0.3"/>
<path class="st7" d="M32,70c0.2,0.3,0.8,0.3,1,0"/>
<path class="st8" d="M147,67c0.1,0,0.2,0,0.3,0"/>
</svg>
