<?xml version="1.0" encoding="utf-8"?>
<!-- Generator: Adobe Illustrator 15.0.0, SVG Export Plug-In . SVG Version: 6.00 Build 0)  -->
<!DOCTYPE svg PUBLIC "-//W3C//DTD SVG 1.1//EN" "http://www.w3.org/Graphics/SVG/1.1/DTD/svg11.dtd">
<svg version="1.1" id="Layer_1" xmlns="http://www.w3.org/2000/svg" xmlns:xlink="http://www.w3.org/1999/xlink" x="0px" y="0px"
	 width="249.314px" height="245.891px" viewBox="0 0 249.314 245.891" enable-background="new 0 0 249.314 245.891"
	 xml:space="preserve">
<g>
	<g>
		<path fill="#F3C13A" d="M45.87,4.175C19.063,18.074,17.205,27.098,5.786,50.799c-6.221,12.907-3.982,50.49-2.249,72.285
			c0.209,2.623,0.387,5.561,1.401,9.993c1.495,6.522,4.537,10.72,6.689,12.575c4.096,3.537,4.45,5.342,5.684,8.229
			c2.909,6.797,9.812,12.091,15.066,17.029c6.469,6.076,13.281,11.772,20.129,17.414c13.983,11.521,24.571,20.777,36.584,34.392
			c18.255,20.69,59.014,20.69,83.833,20.69c9.931,0,25.813-5.617,33.758-8.595c11.914-4.964,17.871-12.255,22.833-23.176
			c12.909-24.819,22.155-54.512,7.42-79.425c-5.94-10.045-23.604-43.321-43.162-53.611c-26.806-13.9-42.688-4.965-59.567-29.785
			c-8.937-12.906-29.784-35.742-45.668-42.691C81.587,3.144,49.839,1.196,45.87,4.175"/>
	</g>
	<g>
		<path fill="#8D4F0D" d="M25.968,17.828c-2.979-3.972-0.992-13.403,4.468-14.892c4.467-1.489,11.416,4.196,13.217,6.55
			c-2.979,5.461-9.74,8.342-15.697,8.838"/>
	</g>
	<g>
		<path fill="#D7A133" d="M35.534,67.266c1.23,1.272,2.097,2.888,2.438,4.736c0.352,1.841,0.001,3.921-0.941,5.594
			c-0.928,1.688-2.28,2.975-3.717,3.971c-1.453,0.989-3.007,1.733-4.725,2.188c0.995-1.473,2.121-2.713,3.15-3.945
			c1.033-1.225,1.979-2.417,2.659-3.655c0.686-1.237,1.094-2.534,1.227-4.018C35.775,70.652,35.632,69.036,35.534,67.266z"/>
	</g>
	<path fill="#D7A133" d="M97.503,30.599c2.979,8.627-5.073,15.285-8.412,17.252"/>
	<path fill="#D7A133" d="M67.987,175.751c6.747,1.257,14.134,12.355,12.683,17.41"/>
	<g>
		<path fill="#D7A133" d="M117.218,179.96c-0.094-2.479,0.235-4.928,0.866-7.334c0.648-2.396,1.653-4.75,3.107-6.86
			c1.442-2.111,3.359-3.954,5.581-5.232c2.225-1.273,4.703-2.008,7.188-2.047c-2.144,1.25-4.12,2.488-5.834,3.979
			c-1.725,1.474-3.188,3.151-4.464,5c-1.276,1.85-2.359,3.865-3.372,5.975C119.26,175.544,118.344,177.749,117.218,179.96z"/>
	</g>
	<g>
		<path fill="#D7A133" d="M74.417,99.279c2.37,0.813,4.518,2.276,6.271,4.178c1.743,1.906,3.056,4.325,3.578,6.958
			c0.544,2.628,0.25,5.402-0.698,7.821c-0.957,2.424-2.482,4.53-4.417,6.119c0.917-2.326,1.745-4.543,2.153-6.782
			c0.425-2.228,0.452-4.437,0.021-6.567c-0.425-2.132-1.3-4.183-2.506-6.12C77.628,102.931,76.092,101.133,74.417,99.279z"/>
	</g>
	<path fill="#D7A133" d="M138.599,223.362c0.169,5.209,5.701,20.735,12.498,18.804"/>
	<g>
		<path fill="#E5B636" d="M236.514,129.196c6.451,12.533,10.808,23.663,8.062,41.821c-2.871,19.004-11.973,33.685-15.777,42.654
			c-6.038,14.244-22.91,23.705-37.957,26.72c-3.867,0.773-7.183,1.321-11.086,2.356c19.337-12.174,23.345-41.606,23.345-80.562
			c0-61.114-34.249-91.252-34.621-92.369c20.189,3.62,35.753,14.266,40.25,20.035C217.386,100.958,236.514,129.196,236.514,129.196z
			"/>
	</g>
	<path fill="#D6A033" d="M172.552,122.214c0.166-0.756-0.319,6.431,14.04,6.31"/>
	<path fill="#D6A033" d="M177.381,183.772L177.381,183.772c13.769,0.119,14.944-7.336,18.423-13.672"/>
	<path fill="#C6942F" d="M245.413,163.005L245.413,163.005c-2.348-12.756-7.131-15.043-13.419-18.606"/>
	<path fill="#C6942F" d="M213.157,214.377L213.157,214.377c-5.301,8.34-4.792,12.37-4.389,17.971"/>
	<g>
		<path fill="#D7A133" d="M150.237,65.654c-7.937-1.021-14.198-0.582-20.975,3.825"/>
	</g>
	<g>
		<path fill="#D7A133" d="M41.652,147.232c-3.705-2.007-8.098-2.516-12.039-3.268c-2.354-0.474-9.349-2.784-11.112-1.928
			c-1.426,0.86-4.044,8.215-2.496,7.351c1.498-0.834,4.322-1.759,5.549-2.558c1.539-1.113,2.514-0.867,4.358-0.776
			c3.344,0.177,6.699-0.404,9.899,0.463L41.652,147.232z"/>
	</g>
</g>
</svg>
