<?xml version="1.0" encoding="utf-8"?>
<!-- Generator: Adobe Illustrator 19.1.0, SVG Export Plug-In . SVG Version: 6.00 Build 0)  -->
<svg version="1.1" id="Layer_1" xmlns="http://www.w3.org/2000/svg" xmlns:xlink="http://www.w3.org/1999/xlink" x="0px" y="0px"
	 viewBox="-180 274.1 249.3 245.9" style="enable-background:new -180 274.1 249.3 245.9;" xml:space="preserve">
<style type="text/css">
	.st0{fill:none;stroke:#8D4F0D;stroke-miterlimit:10;}
	.st1{fill:none;stroke:#8D4F0D;stroke-width:0.25;stroke-miterlimit:10;}
</style>
<g>
	<path class="st0" d="M-132.2,278.2c-26.8,13.9-28.7,22.9-40.1,46.6c-6.2,12.9-4,50.5-2.2,72.3c0.2,2.6,0.4,5.6,1.4,10
		c1.5,6.5,4.5,10.7,6.7,12.6c4.1,3.5,4.4,5.3,5.7,8.2c2.9,6.8,9.8,12.1,15.1,17c6.5,6.1,13.3,11.8,20.1,17.4
		c14,11.5,24.6,20.8,36.6,34.4c18.3,20.7,59,20.7,83.8,20.7c9.9,0,25.8-5.6,33.8-8.6c11.9-5,17.9-12.3,22.8-23.2
		c12.9-24.8,22.2-54.5,7.4-79.4c-5.9-10-23.6-43.3-43.2-53.6c-26.8-13.9-42.7-5-59.6-29.8c-8.9-12.9-29.8-35.7-45.7-42.7
		C-96.5,277.2-128.3,275.2-132.2,278.2"/>
</g>
<g>
	<path class="st0" d="M-152.1,291.8c-3-4-1-13.4,4.5-14.9c4.5-1.5,11.4,4.2,13.2,6.5C-137.4,289-146.4,292.9-152.1,291.8"/>
</g>
<g>
	<path class="st1" d="M-142.6,341.3c1.2,1.3,2.1,2.9,2.4,4.7c0.4,1.8,0,3.9-0.9,5.6s-2.3,3-3.7,4c-1.5,1-3,1.7-4.7,2.2"/>
</g>
<path class="st1" d="M-80.6,304.6c3,8.6-5.1,15.3-8.4,17.3"/>
<path class="st1" d="M-110.1,449.8c6.7,1.3,14.1,12.4,12.7,17.4"/>
<path class="st1" d="M-39.5,497.4c0.2,5.2,5.7,20.7,12.5,18.8"/>
<path class="st1" d="M67.3,437L67.3,437c-2.3-12.8-7.1-15-13.4-18.6"/>
<path class="st1" d="M35.1,488.4L35.1,488.4c-5.3,8.3-4.8,12.4-4.4,18"/>
<g>
	<path class="st1" d="M-27.9,339.7c-7.9-1-14.2-0.6-21,3.8"/>
</g>
</svg>
